<mxfile host="Electron" modified="2023-09-02T23:35:22.088Z" agent="Mozilla/5.0 (Windows NT 10.0; Win64; x64) AppleWebKit/537.36 (KHTML, like Gecko) draw.io/21.6.8 Chrome/114.0.5735.289 Electron/25.5.0 Safari/537.36" etag="mC094Dnu-j0etlQFTqtG" version="21.6.8" type="device" pages="2">
  <diagram id="AEAr0YQwX4a4UaZBzt6F" name="Page-1">
    <mxGraphModel dx="1595" dy="697" grid="1" gridSize="10" guides="1" tooltips="1" connect="1" arrows="1" fold="1" page="0" pageScale="1" pageWidth="850" pageHeight="1100" math="0" shadow="0">
      <root>
        <mxCell id="0" />
        <mxCell id="1" parent="0" />
        <mxCell id="iPhmxq3mS7waDfNKyjm2-5" value="" style="rounded=0;whiteSpace=wrap;html=1;verticalAlign=top;fillColor=#1A1A1A;fontStyle=1;fontSize=14;strokeColor=none;" parent="1" vertex="1">
          <mxGeometry x="-125" y="110" width="110" height="450" as="geometry" />
        </mxCell>
        <mxCell id="EOyo4fcmfA98YA7bWsMf-9" value="Kinesis Application" style="rounded=0;whiteSpace=wrap;html=1;verticalAlign=top;fillColor=#1A1A1A;fontStyle=1;fontSize=14;strokeColor=none;" parent="1" vertex="1">
          <mxGeometry x="20" y="110" width="620" height="450" as="geometry" />
        </mxCell>
        <mxCell id="EOyo4fcmfA98YA7bWsMf-13" style="edgeStyle=orthogonalEdgeStyle;rounded=0;orthogonalLoop=1;jettySize=auto;html=1;fontColor=#FFFFFF;endArrow=block;endFill=1;strokeWidth=3;entryX=0;entryY=0.5;entryDx=0;entryDy=0;entryPerimeter=0;" parent="1" source="EOyo4fcmfA98YA7bWsMf-1" target="8jwDDrWikFqyBn_fs0aR-1" edge="1">
          <mxGeometry relative="1" as="geometry" />
        </mxCell>
        <mxCell id="EOyo4fcmfA98YA7bWsMf-1" value="Kinesis&lt;br&gt;Firehose" style="sketch=0;points=[[0,0,0],[0.25,0,0],[0.5,0,0],[0.75,0,0],[1,0,0],[0,1,0],[0.25,1,0],[0.5,1,0],[0.75,1,0],[1,1,0],[0,0.25,0],[0,0.5,0],[0,0.75,0],[1,0.25,0],[1,0.5,0],[1,0.75,0]];outlineConnect=0;fontColor=#FFFFFF;gradientColor=#945DF2;gradientDirection=north;fillColor=#5A30B5;strokeColor=#ffffff;dashed=0;verticalLabelPosition=bottom;verticalAlign=top;align=center;html=1;fontSize=12;fontStyle=1;aspect=fixed;shape=mxgraph.aws4.resourceIcon;resIcon=mxgraph.aws4.kinesis_data_firehose;" parent="1" vertex="1">
          <mxGeometry x="271" y="309" width="60" height="60" as="geometry" />
        </mxCell>
        <mxCell id="EOyo4fcmfA98YA7bWsMf-12" style="edgeStyle=orthogonalEdgeStyle;rounded=0;orthogonalLoop=1;jettySize=auto;html=1;entryX=0;entryY=0.5;entryDx=0;entryDy=0;entryPerimeter=0;fontColor=#FFFFFF;endArrow=block;endFill=1;strokeWidth=3;" parent="1" source="EOyo4fcmfA98YA7bWsMf-3" target="EOyo4fcmfA98YA7bWsMf-1" edge="1">
          <mxGeometry relative="1" as="geometry" />
        </mxCell>
        <mxCell id="EOyo4fcmfA98YA7bWsMf-14" style="edgeStyle=orthogonalEdgeStyle;rounded=0;orthogonalLoop=1;jettySize=auto;html=1;fontColor=#FFFFFF;endArrow=block;endFill=1;strokeWidth=3;entryX=0;entryY=0.5;entryDx=0;entryDy=0;entryPerimeter=0;" parent="1" source="EOyo4fcmfA98YA7bWsMf-3" target="EOyo4fcmfA98YA7bWsMf-4" edge="1">
          <mxGeometry relative="1" as="geometry" />
        </mxCell>
        <mxCell id="EOyo4fcmfA98YA7bWsMf-3" value="Kinesis&lt;br&gt;Data Stream" style="sketch=0;points=[[0,0,0],[0.25,0,0],[0.5,0,0],[0.75,0,0],[1,0,0],[0,1,0],[0.25,1,0],[0.5,1,0],[0.75,1,0],[1,1,0],[0,0.25,0],[0,0.5,0],[0,0.75,0],[1,0.25,0],[1,0.5,0],[1,0.75,0]];outlineConnect=0;fontColor=#FFFFFF;gradientColor=#945DF2;gradientDirection=north;fillColor=#5A30B5;strokeColor=#ffffff;dashed=0;verticalLabelPosition=bottom;verticalAlign=top;align=center;html=1;fontSize=12;fontStyle=1;aspect=fixed;shape=mxgraph.aws4.resourceIcon;resIcon=mxgraph.aws4.kinesis_data_streams;" parent="1" vertex="1">
          <mxGeometry x="70" y="309" width="60" height="60" as="geometry" />
        </mxCell>
        <mxCell id="EOyo4fcmfA98YA7bWsMf-4" value="Kinesis&lt;br&gt;Data Analytics" style="sketch=0;points=[[0,0,0],[0.25,0,0],[0.5,0,0],[0.75,0,0],[1,0,0],[0,1,0],[0.25,1,0],[0.5,1,0],[0.75,1,0],[1,1,0],[0,0.25,0],[0,0.5,0],[0,0.75,0],[1,0.25,0],[1,0.5,0],[1,0.75,0]];outlineConnect=0;fontColor=#FFFFFF;gradientColor=#945DF2;gradientDirection=north;fillColor=#5A30B5;strokeColor=#ffffff;dashed=0;verticalLabelPosition=bottom;verticalAlign=top;align=center;html=1;fontSize=12;fontStyle=1;aspect=fixed;shape=mxgraph.aws4.resourceIcon;resIcon=mxgraph.aws4.kinesis_data_analytics;" parent="1" vertex="1">
          <mxGeometry x="272" y="430" width="58" height="58" as="geometry" />
        </mxCell>
        <mxCell id="EOyo4fcmfA98YA7bWsMf-6" value="S3 Bucket" style="sketch=0;points=[[0,0,0],[0.25,0,0],[0.5,0,0],[0.75,0,0],[1,0,0],[0,1,0],[0.25,1,0],[0.5,1,0],[0.75,1,0],[1,1,0],[0,0.25,0],[0,0.5,0],[0,0.75,0],[1,0.25,0],[1,0.5,0],[1,0.75,0]];outlineConnect=0;fontColor=#FFFFFF;gradientColor=#60A337;gradientDirection=north;fillColor=#277116;strokeColor=#ffffff;dashed=0;verticalLabelPosition=bottom;verticalAlign=top;align=center;html=1;fontSize=12;fontStyle=1;aspect=fixed;shape=mxgraph.aws4.resourceIcon;resIcon=mxgraph.aws4.s3;" parent="1" vertex="1">
          <mxGeometry x="530" y="309" width="60" height="60" as="geometry" />
        </mxCell>
        <mxCell id="EOyo4fcmfA98YA7bWsMf-11" style="edgeStyle=orthogonalEdgeStyle;rounded=0;orthogonalLoop=1;jettySize=auto;html=1;fontColor=#1A1A1A;strokeWidth=3;endArrow=block;endFill=1;" parent="1" source="EOyo4fcmfA98YA7bWsMf-10" target="EOyo4fcmfA98YA7bWsMf-3" edge="1">
          <mxGeometry relative="1" as="geometry" />
        </mxCell>
        <mxCell id="EOyo4fcmfA98YA7bWsMf-10" value="Producer" style="shape=image;verticalLabelPosition=bottom;labelBackgroundColor=default;verticalAlign=top;aspect=fixed;imageAspect=0;image=data:image/png,iVBORw0KGgoAAAANSUhEUgAABLAAAASwCAYAAADrIbPPAAAABGdBTUEAALGPC/xhBQAAACBjSFJNAAB6JgAAgIQAAPoAAACA6AAAdTAAAOpgAAA6mAAAF3CculE8AAAABmJLR0QA/wD/AP+gvaeTAAB0gklEQVR42uzdd5TddZ3/8fe9d2qmJJPJpHdCGiEkoVepuyhYAEFFBVZExLVgQXDXn2bVVbGsqGtv6K4NFFdBRVERldAhECABEggphPRMJpPp9/7+gGVBWhImmc+99/E4x2NIz+tOu8/z+X5vJkjSwfNvbuzu6JlUiOzEbCYzLh+Z5kwm3xyRaY6I5shHSyETQyIiMhGDIyIbEbmIaLQeAAAAxNaI6IuIfCGi9cnnz5sjExsiYmNEYWOhkN2YjcLGQiazIpPJLK+siuW3zD9kq+nSkzHBwDn99CtyD06ZsFc2emdHITM7IjMzCoVJkY2JUYihFgIAAIA9LBObIh/LI5N5JDKF+yIKiwq9ubsX1h28LOZn8gYaqIeFPWb2B/82LZvNHZotxGGFTGFOROwTEYMsAwAAAMnbHhH3ZQqZhflMLChksgvu/tTBD5plzxCwdpf5heyczgX7R2SOzkQcHhGHRUSLYQAAAKBkrIuImwqZ+FumL//nuwYdfqdTWruHgNWPDvrQLc3dhb5jI+L4TMTJETHaKgAAAFAuChsykbk+Iv6QyfZefccnj1pjk/4hYL1Ec//1xgmFvswZEXFaJuLAeOJm6gAAAEB564vI3BaR/1m2ULjyjkuPWGGSXSdg7YLZH7x5bDaTPy2TidPjiUsD7QgAAAC8kPszUbgyF/kf3PbpIx82x84RXnbQ0fOvr9nSUX1qJhPnRcTLbAcAAADsgnxE/DkKhW+1bW/9xdIvv6LLJC9OhHkRsz/4t2m5bO6fIgpvCTdhBwAAAPpLIbYUMnFFNpv9yp2fPOQegzw/Aeu5zC9k53Xe9OpCxHsj4kiDAAAAALvZXwqZ+MLC6kN/5ZUMn03Aepop7/pNdcOgIa+LTHwoIqZbBAAAANiTChEPRyG+lKut+tYd8w/YbpEnCFgRsc97Fwytqo4LI+IdEdFsEQAAAGBgFTZkIr7SE/kvLvr0kZvLfY2yDlj7zL++vqqz6p+jkLkkMjHEOwcAAACQkkJEWyYyX80WKj91x6UHtJbrDmUZsGZ/4O66bK79rZlM/EtEDPfuAAAAACRuYyYK/1lZk/uPW+YfsrXc/vFlFbBOP/2K3ENTxrwlU8h8PCJGeNsHAAAAiszjkYkP31V96PfK6WbvZROw5n5owcsiH5dFJuZ4WwcAAACKWSbirkKhcOFdlx7+lzL595a22R++ZVKup+8zkYnXevMGAAAASkihkIkrM9nCB+/698MfLeV/aMkGrKPnX1+xpaP6nzOZ+PeIqPM2DQAAAJSojojCv01ZtvpzV155Rl8p/gNLMmDN+5ebZxfy+W9HxIHehgEAAICyUIiFUcifd9dnjri91P5pJRWwDn3vgtqu6sLFhch8KCKqvOUCAAAAZaY3IvPVvt5B/3LP5/ZrL5V/VMkErNn/cuOsXD7zo4jY19sqAAAAUOaW5CPOvPvTh91VCv+YEghYhcyci296dyYTnwmnrgAAAAD+V08mCp+8s+awj8X8TL6Y/yFFHbAOvOjWkb253u9FxIneJgEAAACe05/yuTjr7n8/bHWx/gOKNmDNufjGkzLZzA+iEEO9HQIAAAC8oI2ZiDfd+enDri3Gv3wRBqxCZu4lCz4YkflkRGS9/QEAAADskEJE5jN31RzyL8V2SWFRBayD59/c2NOR/34hE6/xNgcAAACw8zIRv+6Jvjcv+vSRm4vo71wc5v3LzbMLhfxVUYi9vKkBAAAAvCQP5Qv5U+6+9Ij7iuEvWxSX4M354M0nFPL5v4hXAAAAAP1i72wme/OcD/3tFcXwl00+YM29ZMFbMtn8ryNisLctAAAAgH5Tnylkfzn3kpvenvpfNOFLCAuZeZcs+GghMh/19gQAAACwO2W+dFfNIe9N9ebuSQas/d92e2V+aPf3I+IN3oAAAAAAdr9CZP57SE3nP/15/jG9qf3dkgtYU971m+rGQUN+4pUGAQAAAPasQsQ1Q2q6Tv/z/GM6U/p7JRWw9p9/+6B8V9f/RCFzgjcZAAAAgAHx5+6arlfeN/+Yban8hZK5ifs+86+vL3T0XCNeAQAAAAyooys7q3578PybG1P5CyVxAuvg+Tc3dnfm/xARB3obAQAAAEhAJm6tqs6ecMv8Q7YO9F9lwE9g7T//9kHdnfmrQ7wCAAAASEchDuruzP92n/nX1w/0X2VAA9Y+8++rynd2/ywijvJWAQAAAJCcw6o6q39x9PzrawbyLzFgAWv/t91eWdXZ+rOIeLm3BQAAAIBkHd/aWf2T/d92e+VA/QUGKGAVMvmh3d+PiFd6GwAAAABI3qv7hvZ8N6IwIPdTzw3EHzr3khM/HRFv99gDAAAAFIdMxOxRR67OPf6371w/AH/2njX3QwvOjUJ828MOAAAAUIwyF9z16UO/vkf/xD35h827eME/FjJxTURUeLABAAAAilJPIZ89aeFnDrluT/2BeyxgzfuXm2fn8/m/ZSIaPM4AAAAARa01X8gffvelR9y3J/6wPXIT930v+WtToZC/SrwCAAAAKAmDs5nsL+bMv37InvjDdn/Aml/IVkbuv6IQe3lsAQAAAErG3pnO6h/E/MJu70u7/Q+Y23XTRwsRJ3lMAQAAAErOK+d13vyh3f2H7NZ7YM370IKTC4X4ZeyhSxUBAAAA2OPyUcicfNelh/52d/0Buy1gzf7gzWNzufzdUYihHkcAAACAUlbYEPnCfnd95ojHdsfvvntORs0vZHPZ/PfFKwAAAIBykBkWuczlEYXdclhqtwSsuZ0LLoqIYz14AAAAAGWikDlh3iU3X7g7fut+r2L7XbJgbjbi5oio8sgBAAAAlJWuKPQdfNelR97dn79pv57AOvS9C2qzET8K8QoAAACgHFVHJvfDo+dfX9Ofv2m/BqyOqsL8iJjusQIAAAAoW/ts6az6cH/+hv12CeHci/+6X2Ryt0VEpccJAAAAoKz15iMOuvvTh93VH79Zv5zAOnr+9RWRyX0nxCsAAAAAIiqyEd84/fQrcv3xm/VLwGrtrHp/ROzvsQEAAADgSQcu22vcu/vjN3rJlxDO/vAtk3K9ffdFRK3HBQAAAICnac8W8jPvuPSIFS/lN3nJJ7ByPX2fC/EKAAAAgGery2dzl77U3+QlncCac8lNR2eicL3HAgAAAIDnk8nkj7rzU0f8dVd//a6fwJpfyGai8DkPAQAAAAAvqJD9Yswv7HKH2uVfOK/zpreGG7cDAAAA8CIKEXPndS04e1d//S5dQrjP/Ovrqzqrl0bECA8BAAAAADtgTbamasod8w/YvrO/cJdOYFV2Vr8rxCsAAAAAdtyovq7ud+zKL9zpE1gHz7+5sbsr/0gUYqjdAQAAANhxhQ3b84XJD3zmiLad+VU7fQKrp7PvfeIVAAAAADsvM6w2k3vXTv+qnfnJc+ZfPyTTUf1IZGKIwQEAAADYaYXY0pvpm7zo00du3tFfslMnsDKd1e8TrwAAAADYZZkYUhG5d+7cL9lB+8+/fVC+s3tFRDRbGgAAAICXYH1NV0y46QuHdezIT97hE1iFju5/CvEKAAAAgJeupasqztrRn7xjAWt+IVvIxIW2BQAAAKA/FDKF98X8wg61qR36SfO6bn5NREwxLQAAAAD9IzN1btfNJ+/Iz9yhgFUoFC40KgAAAAD9qlB43478tBe9ifu8D940o5At3Bc7ccN3AAAAANghmew+d33qkPtf6Ke8+AmsbOH8EK8AAAAA2B0Khbe82E95wTA15V2/qW6oG7wqIjPMmgAAAADsBhvb2reMWfrlV3Q93094wRNY9YOGnCZeAQAAALAbNTcOanr1C/2E7Av/YOatNgQAAABgdypkCue90I8/7yWEB/7rreN6+3ofDfe/AgAAAGD3yudzMf7ufz9s9XP94POewOrt6zkjxCsAAAAAdr9sNl847Xl/8Pl+oBCZ020HAAAAwB5RyJzxfD/0nCes9r/4b+PzmezycAILAAAAgD2jELnCpLv+/fBH//4HnvMEViGbe32IVwAAAADsOZnIZ5/zMsLnDFj5QuFUmwEAAACwRxWe+z5Yzzpltf/7bx+Wr+xeGy9wfywAAAAA2A36KjO5Ebd+6uCNT//O7LN/Vs8/hngFAAAAwJ6X6y3kj//778w++zvyL7cVAAAAAAMjf+Lff88zA9b8QrYQmRMMBQAAAMBAKETmxIjCM2579YyANadzwf4RMdxUAAAAAAyQkftdctOcp3/HMwJWNpM9xkYAAAAADKRsJvOMRvWMgFUo5A83EQAAAAADKl94RqN6WsAqZCIyh1oIAAAAgAGViecOWLM/eOPUiGixEAAAAAADbMT+F9241//+x1MBK5fNunwQAAAAgCTks5mnWtVTAStTyBxiGgAAAACSkI3D/u+bTypkC3MtAwAAAEAKCoWY87/fzkZEnH76FbkoxEzTAAAAAJCCTMSsmF/IRjwZsB6YNHpKRAwyDQAAAACJqJvXedPkiCcDVjabnW0TAAAAABKzb8STASvz5H8AAAAAQCrykZkd8dRN3DPufwUAAABAWjKFmRFPncAqTLYIAAAAACnJFGJSxJMBqxAx0SQAAAAAJGZiRETm4Pk3N3Z35lvtAQAAAEBqtufzjdnujp5JpgAAAAAgRdUVmQnZQjYnYAEAAACQpIpCZmI2m48xpgAAAAAgRYV8Zlw2MoUWUwAAAACQpExhWLYQmWZLAAAAAJCiTERzNjKZYaYAAAAAIE2FYdmIvBNYAAAAACSpEJnmbKbgBBYAAAAAicrEsGwhosESAAAAACSpUGjMRhSqLQEAAABAmjLV2YhMlSEAAAAASFRVNgrhBBYAAAAAacpEdTYy4QQWAAAAAGkqRHU2QsACAAAAIFlV2YiosAMAAAAAiarM2gAAAACAlAlYAAAAACRNwAIAAAAgaQIWAAAAAEkTsAAAAABImoAFAAAAQNIELAAAAACSJmABAAAAkDQBCwAAAICkCVgAAAAAJE3AAgAAACBpAhYAAAAASROwAAAAAEiagAUAAABA0gQsAAAAAJImYAEAAACQNAELAAAAgKQJWAAAAAAkTcACAAAAIGkCFgAAAABJE7AAAAAASJqABQAAAEDSBCwAAAAAkiZgAQAAAJA0AQsAAACApAlYAAAAACRNwAIAAAAgaQIWAAAAAEkTsAAAAABImoAFAAAAQNIELAAAAACSJmABAAAAkDQBCwAAAICkCVgAAAAAJE3AAgAAACBpAhYAAAAASROwAAAAAEiagAUAAABA0gQsAAAAAJImYAEAAACQNAELAAAAgKQJWAAAAAAkTcACAAAAIGkCFgAAAABJE7AAAAAASJqABQAAAEDSBCwAAAAAkiZgAQAAAJA0AQsAAACApAlYAAAAACRNwAIAAAAgaQIWAAAAAEkTsAAAAABImoAFAAAAQNIELAAAAACSJmABAAAAkDQBCwAAAICkCVgAAAAAJE3AAgAAACBpAhYAAAAASROwAAAAAEiagAUAAABA0gQsAAAAAJImYAEAAACQNAELAAAAgKQJWAAAAAAkTcACAAAAIGkCFgAAAABJE7AAAAAASJqABQAAAEDSBCwAAAAAkiZgAQAAAJA0AQsAAACApAlYAAAAACRNwAIAAAAgaQIWAAAAAEkTsAAAAABImoAFAAAAQNIELAAAAACSJmABAAAAkDQBCwAAAICkCVgAAAAAJE3AAgAAACBpAhYAAAAASROwAAAAAEiagAUAAABA0gQsAAAAAJImYAEAAACQNAELAAAAgKQJWAAAAAAkTcACAAAAIGkCFgAAAABJE7AAAAAASJqABQAAAEDSBCwAAAAAkiZgAQAAAJA0AQsAAACApAlYAAAAACRNwAIAAAAgaQIWAAAAAEkTsAAAAABImoAFAAAAQNIELAAAAACSJmABAAAAkDQBCwAAAICkCVgAAAAAJE3AAgAAACBpAhYAAAAASROwAAAAAEiagAUAAABA0gQsAAAAAJImYAEAAACQNAELAAAAgKQJWAAAAAAkTcACAAAAIGkCFgAAAABJE7AAAAAASJqABQAAAEDSBCwAAAAAkiZgAQAAAJA0AQsAAACApAlYAAAAACRNwAIAAAAgaQIWAAAAAEkTsAAAAABImoAFAAAAQNIELAAAAACSJmABAAAAkDQBCwAAAICkCVgAAAAAJE3AAgAAACBpAhYAAAAASROwAAAAAEiagAUAAABA0gQsAAAAAJImYAEAAACQNAELAAAAgKQJWAAAAAAkTcACAAAAIGkCFgAAAABJE7AAAAAASJqABQAAAEDSBCwAAAAAkiZgAQAAAJA0AQsAAACApAlYAAAAACRNwAIAAAAgaQIWAAAAAEkTsAAAAABImoAFAAAAQNIELAAAAACSJmABAAAAkDQBCwAAAICkCVgAAAAAJE3AAgAAACBpAhYAAAAASROwAAAAAEiagAUAAABA0gQsAAAAAJImYAEAAACQNAELAAAAgKQJWAAAAAAkTcACAAAAIGkCFgAAAABJE7AAAAAASJqABQAAAEDSBCwAAAAAkiZgAQAAAJA0AQsAAACApAlYAAAAACRNwAIAAAAgaQIWAAAAAEkTsAAAAABImoAFAAAAQNIELAAAAACSJmABAAAAkDQBCwAAAICkCVgAAAAAJE3AAgAAACBpAhYAAAAASROwAAAAAEiagAUAAABA0gQsAAAAAJImYAEAAACQNAELAAAAgKQJWAAAAAAkTcACAAAAIGkCFgAAAABJE7AAAAAASJqABQAAAEDSBCwAAAAAkiZgAQAAAJA0AQsAAACApAlYAAAAACRNwAIAAAAgaQIWAAAAAEkTsAAAAABImoAFAAAAQNIELAAAAACSJmABAAAAkDQBCwAAAICkCVgAAAAAJE3AAgAAACBpAhYAAAAASROwAAAAAEiagAUAAABA0gQsAAAAAJImYAEAAACQNAELAAAAgKQJWAAAAAAkTcACAAAAIGkCFgAAAABJE7AAAAAASJqABQAAAEDSBCwAAAAAkiZgAQAAAJA0AQsAAACApAlYAAAAACRNwAIAAAAgaQIWAAAAAEkTsAAAAABImoAFAAAAQNIELAAAAACSJmABAAAAkDQBCwAAAICkCVgAAAAAJE3AAgAAACBpAhYAAAAASROwAAAAAEiagAUAAABA0gQsAAAAAJImYAEAAACQNAELAAAAgKQJWAAAAAAkTcACAAAAIGkCFgAAAABJE7AAAAAASJqABQAAAEDSBCwAAAAAkiZgAQAAAJA0AQsAAACApAlYAAAAACRNwAIAAAAgaQIWAAAAAEkTsAAAAABImoAFAAAAQNIELAAAAACSJmABAAAAkDQBCwAAAICkCVgAAAAAJE3AAgAAACBpAhYAAAAASROwAAAAAEiagAUAAABA0gQsAAAAAJImYAEAAACQNAELAAAAgKQJWAAAAAAkTcACAAAAIGkCFgAAAABJE7AAAAAASJqABQAAAEDSBCwAAAAAkiZgAQAAAJA0AQsAAACApAlYAAAAACRNwAIAAAAgaQIWAAAAAEkTsAAAAABImoAFAAAAQNIELAAAAACSJmABAAAAkDQBCwAAAICkCVgAAAAAJE3AAgAAACBpAhYAAAAASROwAAAAAEiagAUAAABA0gQsAAAAAJImYAEAAACQNAELAAAAgKQJWAAAAAAkTcACAAAAIGkCFgAAAABJE7AAAAAASJqABQAAAEDSBCwAAAAAkiZgAQAAAJA0AQsAAACApAlYAAAAACRNwAIAAAAgaQIWAAAAAEkTsAAAAABImoAFAAAAQNIELAAAAACSJmABAAAAkDQBCwAAAICkCVgAAAAAJE3AAgAAACBpAhYAAAAASROwAAAAAEiagAUAAABA0gQsAAAAAJImYAEAAACQNAELAAAAgKQJWAAAAAAkTcACAAAAIGkCFgAAAABJE7AAAAAASJqABQAAAEDSBCwAAAAAkiZgAQAAAJA0AQsAAACApAlYAAAAACRNwAIAAAAgaQIWAAAAAEkTsAAAAABImoAFAAAAQNIELAAAAACSJmABAAAAkDQBCwAAAICkCVgAAAAAJE3AAgAAACBpAhYAAAAASROwAAAAAEiagAUAAABA0gQsAAAAAJImYAEAAACQNAELAAAAgKQJWAAAAAAkTcACAAAAIGkCFgAAAABJE7AAAAAASJqABQAAAEDSBCwAAAAAkiZgAQAAAJA0AQsAAACApAlYAAAAACRNwAIAAAAgaQIWAAAAAEkTsAAAAABImoAFAAAAQNIELAAAAACSJmABAAAAkDQBCwAAAICkCVgAAAAAJE3AAgAAACBpAhYAAAAASROwAAAAAEiagAUAAABA0gQsAAAAAJImYAEAAACQNAELAAAAgKQJWAAAAAAkTcACAAAAIGkCFgAAAABJE7AAAAAASJqABQAAAEDSBCwAAAAAkiZgAQAAAJA0AQsAAACApAlYAAAAACRNwAIAAAAgaQIWAAAAAEkTsAAAAABImoAFAAAAQNIELAAAAACSJmABAAAAkDQBCwAAAICkCVgAAAAAJE3AAgAAACBpAhYAAAAASROwAAAAAEiagAUAAABA0gQsAAAAAJImYAEAAACQNAELAAAAgKQJWAAAAAAkTcACAAAAIGkCFgAAAABJE7AAAAAASJqABQAAAEDSBCwAAAAAkiZgAQAAAJA0AQsAAACApAlYAAAAACRNwAIAAAAgaQIWAAAAAEkTsAAAAABImoAFAAAAQNIELAAAAACSJmABAAAAkDQBCwAAAICkCVgAAAAAJE3AAgAAACBpAhYAAAAASROwAAAAAEiagAUAAABA0gQsAAAAAJImYAEAAACQNAELAAAAgKQJWAAAAAAkTcACAAAAIGkCFgAAAABJE7AAAAAASJqABQAAAEDSBCwAAAAAkiZgAQAAAJA0AQsAAACApAlYAAAAACRNwAIAAAAgaQIWAAAAAEkTsAAAAABImoAFAAAAQNIELAAAAACSJmABAAAAkDQBCwAAAICkCVgAAAAAJE3AAgAAACBpAhYAAAAASROwAAAAAEiagAUAAABA0gQsAAAAAJImYAEAAACQNAELAAAAgKQJWAAAAAAkTcACAAAAIGkCFgAAAABJE7AAAAAASJqABQAAAEDSBCwAAAAAkiZgAQAAAJA0AQsAAACApAlYAAAAACRNwAIAAAAgaQIWAAAAAEkTsAAAAABImoAFAAAAQNIqTAAAAMDuls1mor46FzWV2aisyEZDTS6qKrJRW5WNQVW5qMhlovbJ/3+6uupc5LKZnf7zunry0dWbf+q/2zp7IwoRhcKT346Ivnwh2rv6IiJiW2df9PY98d+dPfnoftqvBQaegAUAAMAOq63KxvDGqmhuqIrG2oporK2IwYMqnvXtwYMqonFQRTTU5KK+OhfZXYhQA21bZ1/09OVje1dfdPTko6OrL7Z19cW2zr5o6+iNts6+2NbZG9s6n/i+9q6+aN3eG63be2LL9t7Ysr038vmCNxroBwIWAAAAkctmYsTgqhg5pDpGDq6KpvrKGDG4OobWV8aIwVXRXF8ZwwdXxaCqXNlsUl+Ti4hcNNVV7vLv0fpkyNrS3vPkt3tiY1tPbGjriQ1t3bF+a3esf/LbXT1OfcHzEbAAAADKQCYT0dJQFaOHVsfoppoY01Qdo5uqn/rvkYOrdulSPV7Y4EFPnEabMKzmRX9uW2dvrN/aE+u3dsfa1q5Ys7krHtvcFWu2dMWaLd2xrrUrevqc6KI8CVgAAAAlpKYyGxNbamNCS21MevJ/E1pqYmJLbVRVeB2vlDXUVERDTUVMHl77nD+eL0RsaOuOxzZ3xepNnfHohs5YubEzVmzoiJUbO2NbZ58RKVkCFgAAQBGqrszGlBGDYtqoupg84n9DVW2MGlIdGQepSlI2EzG8sSqGN1bFnAkNz/rxTdt6YsXGzlixoTOWr++IZWu3x8Nrt8djW7qi4OAWRU7AAgAASFxzQ2VMHVUX00bVxbRRg2LqqLqYMKymKG+Mzu4ztL4yhtZXPitudXTn45F122Pp2o4n/397PLhme6zf2m00ioaABQAAkJDmhsqYNbY+Zo1riJlj62LqqLporq80DLustiobM8fWx8yx9c/4/o1tPbHksfZn/G/1pk6DkaTM3EsWOEgIAAAwAGoqszFjTH3MGvfE//YdVx8jh1QbhgHT1tkbS1a3xz0rtsWilW1x78ptsWlbj2EYcAIWAADAHjKsoSoOmNwY8yY1xr7j62PKiEFe+Y/krdrYGfes3BaLVrTFopXb4oHH2qMvLyWwZwlYAAAAu0lzfWXMm9QYcyY2xJwJjTF9dJ0brFP0Orrz8cCa9li4fGvcsrQ17lreFt29ecOwWwlYAAAA/WRofWUcMmVwzJvcGAdMGhzjh9UYhZLX2ZOPe1a0xZ2PbI3blm2NRSvbordPaqB/CVgAAAAvwV4jBsWR05vi4CmD44DJjS4JpOx1dD8RtG5Z2hq3LN0Si1e3G4WXTMAC+s3MsfVx0F6DDQHAgPrpTWuio9ulLOw+1ZXZOHDy4DhqRlMcOb0pRgyuMgq8gNWbu+LmB7fEgoe2xC0Ptcb27j6jsNMqTAD0lzkTGuLdJ443BAAD6uo71wlY9Lu66lwcu8/QOHZWcxw8ZXDUVGaNAjtoTFN1nHbwiDjt4BHR3ZuP2x/eGjcs3hR/Wbw51rZ2G4gdImABAAA8h6qKbBwxbUi8fM6wOHJ6U1RViFbQH+9Xh00dEodNHRKXvCrigTXtccPizXHD/ZtiyWMuNeT5CVgAAABPymYiZk9oiJPntsQ/zB4W9TU5o8BukslETB9dF9NH18X5x42Nx7d0xfX3b4rrFm2Mux9ti4IbHvE0AhYAAFD2po6qi1MOHB4n7NscQ+srDQIDYOSQ6njDYaPiDYeNitWbu+IPizbGdYs2xv2rthkHAQsAAChP1ZXZ+MfZzXHaQSNi3/ENBoGEjGmqjrOPGh1nHzU6Vm/qjN8s3BC/vmt9rNjQaZwyJWABAABlZWJLbbxq/5Y45cARMXiQp0SQujFDa+K8Y8fGeceOjcWr2+PXd62P3y7cEJvbe4xTRny0BgAASl5lLhMn7Nscpx08IuZObDQIFKkZY+pixpi6eM/LJ8TflmyOr/1hZSx9fLthyoCABQAAlKxB1bl4zQHD481Hjo4Rg6sMAiWiMpeJY/YZGrcuaxWwyoSABQAAlJzm+sp47SEj4w2HjYzGWk97AIqdj+QAAEDJGNtcE284bGSceuCIqK7MGgSgRAhYAABA0Zsxpi7OO3ZsHDVjaGQz9gAoNQIWAABQtCa21Ma5x4yJl89pEa4ASpiABQAAFJ2RQ6rjrceMiVcfMDxyyhVAyROwAACAotFUVxlvPnJUnHn4qKiqcI8rgHIhYAEAAMkbVJ2Lc48eE284fFTUuDk7QNkRsAAAgGRlMhHHz2qO9500MUYMrjIIQJkSsAAAgCRNH10XH3zVpJgzocEYAGVOwAIAAJIyeFBFvO24sfG6Q0ZG1g3aAQgBCwAASEQum4nXHToyzj9+bDTUeKoCwP/xWQEAABhwU0YOio+etlfsM7beGAA8i4AFAAAM3BOSXCbedMTouOCEcVGZc7kgAM/z+cIEAADAQJg2qi4++tq9YvroOmMA8IIELAAAYI+qqsjG248fG2cdOdpN2gHYIQIWAACwx+w3oSH+7bVTYvywGmMAsMMELAAAYLfLZTPx5iNHxztOGBcV7nUFwE4SsAAAgN1qdFN1fOKMvWPOxAZjALBLBCwAAGC3OXleS1z8qklRV50zBgC7TMACAAD6XX1NLj706snx8jnDjAHASyZgAQAA/WrOhIb49JlTY3hjlTEA6BcCFgAA0G9OPWhEXPyqSVHpRu0A9CMBCwAAeMly2Uy876QJ8YbDRhkDgH4nYAEAAC9JU11lXHrm1DhgcqMxANgtBCwAAGCXTR9dF//x5mkxcki1MQDYbQQsAABgl7xibkt85NTJUVWRNQYAu5WABQAA7LQzDx8V7ztpYmTdqx2APUDAAgAAdlgmE/G248bF+ceNNQYAe4yABQAA7JBsNhP/+prJccqBw40BwB4lYAEAAC+qqiIbn3z93nHsPkONAcAeJ2ABAAAvqKGmIi47e1rMndhoDAAGhIAFAAA8r4aaivjGeTNj+ug6YwAwYLzeLQAA8Jxqq7Jx2dnTxCsABpyABQAAPEt1ZTa+ePYMlw0CkAQBCwAAeIbKXCY++8apccBk8QqANAhYAADAUypymfjMG6fFEdOajAFAMgQsAADgiScH2Ux87PQp8bIZ4hUAiX2OMgEAABARcdHJE+PE/YYZAoDkCFgAAEC8/rCR8bpDRxoCgCQJWAAAUOYOnTok3n/SREMAkCwBCwAAytjk4bVx6RumRi6bMQYAyRKwAACgTA2pq4jLzpoe9TU5YwCQNAELAADKUFVFNr541vQY21xjDACSJ2ABAEAZ+sipk2Pf8Q2GAKAoCFgAAFBmXnPA8HjF3BZDAFA0BCwAACgje40YFB981SRDAFBUBCwAACgTtVXZuPTMqVFT6WkAAMXFZy4AACgTl7x6ckweXmsIAIqOgAUAAGXgxP2GxSvnue8VAMVJwAIAgBI3aXht/L9T9zIEAEVLwAIAgBKWy2bi46dPidoqX/oDULx8FgMAgBJ2zstGx8yx9YYAoKgJWAAAUKImttTGeceONQQARU/AAgCAUvxCP5uJj50+JaoqfMkPQAl8XjMBAACUnrOOHB2zxrl0EIDSIGABAECJmdhSG+cf59JBAEqHgAUAAKX0BX4m4iOn7hXVlb7UB6CEPr+ZAAAASsdrDx4ZcyY2GAKAkiJgAQBAiRg8qCLefvw4QwBQcgQsAAAoEe84YXwMqaswBAAlR8ACAIASMGXEoDj1oOGGAKAkCVgAAFACLn71pMhlM4YAoCQJWAAAUORePmdY7D+p0RAAlCwBCwAAilhNZTbe9Y/jDQFASROwAACgiJ17zNgYOaTaEACUNAELAACKVHNDZbzxiFGGAKDkCVgAAFCkzj16bNRU+pIegNLnsx0AABShkUOq49SDhhsCgLIgYAEAQBF667FjoqrCl/MAlAef8QAAoMiMbqqOV85z+gqA8iFgAQBAkbnghHFRmcsYAoCyIWABAEARmTCsJk7cb5ghACgrFSYAAIDicd6xYyOXdfqK0tLdm4+tHb2xZXtvbN3eG60dz/7/9s6+6MsXIiKisycf3b35iIjo6s1HV88T3+7tK0R3bz4GVeee+r2rK7JR/eSrdWYzmaivyUV9TS7qqp/436An/7+htiLqq3MxrLEqmuoqoqmu0vsaJETAAgCAItHcUBknzHb6iuKztaM3HtvcFas3dcbqzV3x2KauWL25M1Zv6oq1rV3R0Z1P8u89tL4ymuoqY2hdZQxrrIyWhqoY3VQdo5qqY8zQmhjdVB01lS5sgj1BwAIAgCLx2oNGuPcVSVvb2h1LH98eDz3eHg89vj0eWdcRqzd1RVtnb1H+ezZt64lN23pi2Qv8nKH1lU9FrQnDamNiS21MHFYTE1pqo+5pJ8GAl0bAAgCAIlCZy8RpB48wBMlo7+qLe1dui0Ur2uLeVdvi3pXbYtO2nrLb4X8j170rtz3rx4Y3VsWEltqY2FITE1tqY8rIQTF9dF001HgqDjvLew0AABSBE/ZtjmENVYZgwPTlC/Hgmu1xy9ItccvS1rjzka3R01cwzAtYt7U71m3tjtuWtT7j+1saq2LGmLqYMaY+Jg+vjb1GDIpJLbWRccASnpeABQAAReCMQ0cagT0qny/E/avb49ZlrXHr0ta4e0XbUzdL56VZv7U71m/tjr8s3vzU9w0eVBGzxtXHvuMaYvb4hth3fL1LEOFpBCwAAEjc9NF1MXt8gyHY7fL5Qtyzclv8YdHGuPbuDWV5SeBAad3eGzc+sCVufGDLU983ZmhNzJ3YEHMmNMSciY1OaVHWBCwAAEjcG48YZQR2m3wh4p4VbfGHRRvjd/dsiI1tolUqVm/qjNWbOuOaO9dHRERTXWUcMLkx5kxsiDkTGmPGmDojUTYELAAASFhjbUWcsG+zIeh3i1e3xy9vXxd/vHdjbHTSqihsbu+J6xZtjOsWbYyIiFFDquPAvQbHQXs1xkFTBrtPHiVNwAIAgISdMLs5qiqyhqBfdHTn49q7N8TPb10b96/aZpAit2ZLV/zqjnXxqzvWRUTE5OG1ccS0pjhielPMndgQuazrDSkdAhYAACTs5LktRuAl29zeE1fcvDZ+smBNtG7vNUiJenhdRzy8riN+8NfHorYqGwfuNTiOmt4UR05vipZGp7MobgIWAAAkalxzjZu385Ks29od371+dfzyjnVeQbDMdHTn4y+LN8dfFm+ObCZin3ENcdT0pjhmn6ExeXitgSg6AhYAACTqxP2GecUxdsnm9p743p9Xx5W3rBWuiHwhYtGKtli0oi2+8vsVsdeIQXH8rKFx3L7NMWXEIANRFAQsAABI1PFu3s5O6ssX4oqbH4+vXbcytnX2GYTntGzt9li2dnt844+rYkxTdbxs5tA4ft/mmDPBiU/SJWABAECCxg+rib1HOhnBjrvt4db49C8fiUfWdRiDHbZ6c1f86MY18aMb18TElto4cb9hcdK8lhjTVG0ckiJgAf1m6ePb46pb1xqCfjVl5CD3fylhv7lrfXS6tIV+1tldGm9Tx81y+oodfJvvyceXrn00fnrT41Eo2INdt3x9R3z9DyvjG39cGXMnNsbJ81rihH2bo646ZxwGnIAF9Jtbl7XGrctaDUG/OvPwUQJWCfvCbx+NjW09hoDncMzMoUbgRd27clt85MqlsXy9U1f0n0Ih4s5Htsadj2yNS3/1SBy7z9A4aW5LHDJlcGSzbszHwBCwAAAgMU11lTFzbL0heF69fYX41p9WxXf/vDr68o5dsft09eTjtws3xG8XboiWxqp45byWOOWgES4xZI8TsAAAIDGHTR0SDjnwfFZv7ooP/vCBWLy63RjsUeu3dsd3/7w6Lr9hdRw6dUicdtCIOGp6k1NZ7BECFgAAJOaIaUOMwHO645GtcfGPHoxN21x+zcDJFyJufGBL3PjAlhjWUBUnz2uJ0w8ZEaOGOJXF7iNgAQBAQrKZiEP2HmIInuWnNz0en71meeRdMkhCNrR1x+U3rI7/+utjcdSMpnj9oSPjwL0GG4Z+J2ABAEBCpo6qi8GDfJnO/ykUIr75p1XxjT+sNAbJ6ssX4vr7NsX1922K6aPr4p+OHhPHz2qOjKsL6Sc+MwIAQEL2n9xoBJ6SL0R8/Kpl8cvb1xmDorHksfa4+EcPxtRRdfGWo8fE8fs2u68fL1nWBAAAkI4DJ7v0hifk84X4t58tFa8oWg+uaY9LfvxgvPpzd8WPF6yJ7t68UdhlAhYAAKTyxXkmYu6kBkMQhULEv/18WVx953pjUPRWb+qMz169PE75/ML41R3r3MeNXfscaQIAAEjDxJbaaKhxlw8ivvy7FeIVJWfNlq6Y/7Nl8drL7o7rFm2Mgo7FThCwAAAgEdPH1BuBuOLmx+PyG1YbgpK1fH1HXPyjB+Pcb94bdz/aZhB2iIAFAACJmDmmzghl7u5H2+Lz1yw3BGVh4fK2+Kev3xsXfOf+eOjx7QbhBQlYAACQiJlOYJW19Vu74wM/fCB6+lxXRXm5ZWlrvOHL98SnfvlwbO3oNQjPScACAIAUvjDPZmLaaCewytX/3rR9Y1uPMShL+Xwhrrx57VOvWOg+7zzr86QJAABg4E1uqY3aKl+el6sfL1gTCx7cYgjKXuv23vjs1cvjvG/eF0tdVsjT+AwJAAAJmO7+V2Vr1cbO+PLvVhgCnuau5VvjzP+8J77wm0ejvavPIAhYAACQAve/Kl+fvWZ5dPXkDQF/p7evEP/118fitP9YGH9dstkgZU7AAgCABDiBVZ5uWLzZE3N4Eeu2dsd7vr8kPvGLh2N7t9NY5UrAAgCABEwcVmuEMpMvRHzl9y4dhB111a1r44zL7o47H9lqjDIkYAEAwAAbVJ2LIXUVhigzf1i00U2qYSc9trkr3vbt++NL166Inj4vVVhOfJYEAIABNm5ojRHK0LevX2UE2AX5fCEuv2F13PzQlhhaX2mQMiFgAQDAABvbLGCVm9sf3ur0FbxESx5rN0IZcQkhAAAMsLFDq41QZq68+XEjAOwEAQsAAAbYWJcQlpW2zt748/2bDAGwEwQsAAAYYC4hLC833L/ZzacBdpKABQAAA8wlhOXlT/c5fQWwswQsAAAYQLlsJkYOEbDKRV++ELctazUEwE4SsAAAYAANa6iMXDZjiDKxeHV7tHf1GQJgJwlYAAAwgAYPqjRCGblz+VYjAOwCAQsAAAZQU12FEcrIQ2u2GwFgFwhYAAAwgIbUOYFVTpatFbAAdoWABQAAA2jwICewysny9R1GANgFAhYAAAygJiewykbr9t7o7MkbAmAXCFgAADCAhjiBVTbWt3UbAWAXCVgAADCAXEJYPrZu7zUCwC4SsAAAYAC5hLB8dLl8EGCXCVgAADCAnMAqH129AhbArhKwAABgANVU+pK8XBRMALDLfLYEAIABVFnhS/JyUZXzWAPsKh9BAQBgAFXlMkYoE9VO2wHsMh9BAQBgAFUIWGWjrjpnBIBdJGABAMAAqnIJYdloafSKkwC7ymdLAAAYQJVOYJWNofVVTtwB7CIBCwAABlCFG3uXz5OvTMTwxipDAOzKx1ATAADAwMhlM5F1IKes7DVikBEAdoGABQAAA6SqQr0qN1NHCVgAu0LAAgCAAVKR9eV4uZk6qs4IALvAZ0wAABioL8Z9NV529p/UGBkH7wB2/nOmCQAAYGD09hWMUGaG1le6DxbALhCwAABggPTmBaxydNjeQ4wAsJMELAAAGCBOYJWn4/dtNgLAThKwAABggPTlC1HQsMrOrHH1Ma65xhAAO0HAAgCAAdTnMsKydOJ+w4wAsBMELAAAGEDug1WeTjt4RFTkvBwhwI4SsAAAYABt7+ozQhka3lgVx81yLyyAHSVgAQDAANrWKWCVq7OPGh0Zh7AAdoiABQAAA2h7t4BVrqaProtj93EKC2BHCFgAADCAnMAqbxecMC6yWcewAF6MgAUAAAOo3T2wytrk4bVxxiEjDAHwIgQsAAAYQO2dvUYoc//8D+NjeGOVIQBegIAFAAADaMt2Aavc1VXn4qJXTjQEwAsQsAAAYABt2tZjBOK4Wc3x6gOGGwLgeQhYAAAwgDa0CVg84YOvnBSThtcaAuA5CFgAADCANrR1G4GIiKitysalZ06NQVU5YwD8HQELAAAGkEsIebopIwbFx183JTIZWwA8nYAFAAADyCWE/L1jZg6Nc48ZawiApxGwAABgAG1q74nevoIheIYLjh8Xr5gzzBAATxKwAABgAOXzhXh8S5cheIZMJmL+a6fEIXsPNgZACFgAADDgVm7qNALPUpHLxGffOC32GVtvDKDsCVgAADDAVm9yAovnVledi6+eOyNmjKkzBlDWBCwAABhgq53A4gU01FTEf/7TjNh75CBjAGVLwAIAgAG2ygksXkRTXWV8+/x9Yu7ERmMAZUnAAgCAAbZyoxNYvLiGmor46ltmxMtmNBkDKDsCFgAADLDl6zuiL18wBC+qujIbn3/TtDj1wBHGAMqKgAUAAAOsuzfvFBY7/iQum4l/PWVynH/8OGMA5fOxzwQAADDwHlqz3QjssEwm4vzjxsYHTp4YuWzGIEDJE7AAACABS9cKWOy8Mw8fFd88b2Y0N1QaAyhpAhYAACRg6eMCFrtm7sTG+OE7Z8d+ExqMAZQsAQsAABLwoIDFSzC8sSq+ed4+ccYhI40BlCQBCwAAErB6U2ds2tZjCHZZZS4Tl7x6UnzidXtHTaWnekBp8VENAAAScd+qbUbgJXvFnGFx+QWzYmJLrTGAkiFgAQBAIu5Z0WYE+sXUUXXx43fNjjMPH2UMoCQIWAAAkIhFK5zAov9UV2bjAydPjM+9aVoMHlRhEKCoCVgAAJCIe1dti3y+YAj61bH7DI2fvHu/mDux0RhA0RKwAAAgEdu7+mLpWq9GSP8bMbgqvnnezHjbcWMjl80YBCg6AhYAACTktmVbjcBukctm4u3Hj4sfvWt2zBpXbxCgqAhYAACQkFuXtRqB3WrvkYPi8gv2jQ+fMjkGVecMAhQFAQsAABJy+8Ot0dPnPljs5ieCmYhTDxoRv3jfnDhuVrNBgPQ/bpkAAADS0dGdj3tXthmCPaKlsSo++8ap8cWzp8eIwVUGAZIlYAEAQGJuWeoyQvasI6c3xZUXzokzDx8VFTk3eQfSI2ABAEBiFjy4xQjscfU1ufjAyRPjivfsF0fNaDIIkBQBCwAAEnPfqm2xtrXbEAyIiS21cdlZ0+Mbb50Z00bVGQRIgoAFAACJKRQi/rJ4syEYUAfuNTh++K7Z8fEzpkRzQ6VBgAElYAEAQIL+fP8mIzDwTxgzESfNbYn/ef/cOPeYMVFd6SkkMEAfj0wAAADpue3h1tja0WsIklBXnYt//ofx8T/vnxtnHj4qqio8lQT2LB91AAAgQb19hbjxgS2GICkjBlfFB06eGL94/5w49aARkct6xUJgzxCwAAAgUb+/Z4MRSNKoIdXx4VMmx5UX7hcnz2sJHQvY3QQsAABI1I0Pbokt7S4jJF0TW2rjY6dPiZ+8Z784Yd/myAhZwG4iYAEAQKJ6+wrxO6ewKAJTRgyKS8+cGt97+6w4fNoQIQvodwIWAAAk7Nd3rTcCRWP2+Ib48jkznrrZe41XLQT6iY8mAACQsHtXbovl6zsMQVEZ11wTHzh5Yvz64nnx7hPHx/DGKqMAL4mABQAAiXMKi2LVVFcZ57xsTPzqornxkdP2ir1GDDIKsEsELAAASNxVt66L7t68IShaVRXZeM0Bw+PKC/eL7759Vhw1o8l9soCdImABAEDiNrf3xB/v3WQISsKcCQ1x2VnT46r3PXGfrGr3yQJ2gI8UAABQBK64+XEjUFImDHvyPlkffOI+WS3ukwW8AAELAACKwN2PtsXi1e2GoOQMrX/iPllXXzQ3Pn7GFPfJAp6TgAUAAEXiSqewKGFVFdk4aW5LXPGe/eJL50yPg/YabBTgKQIWAAAUid8s3BAb2roNQUnLZCKOmNYUX3/rzPjJu2fHK+e1RGXOHd+h3AlYAABQJLp78/HDv60xBGVj6qi6+LfTp8RvL9k/zj9+XAypqzAKlCkBCwAAisgVNz8erdt7DUFZGVpfGecfNzauvWT/+PgZU2KK+2RB2RGwAACgiHR05+OnN7kXFuXpqftkXbhffPfts+KoGU2RcXUhlAUBCwAAisyPF6yJ7d19hqCszZnQEJedNT2uet/cOPPwUVFT6ektlDLv4QAAUGRat/fGTxc4hQUREROG1cQHTp4Y13xwXrzjhHExvLHKKFCCBCwAAChCl9/wmHthwdMMra+Mtx47Nn5zyf7xxbOnx8FTBru8EEqIgAUAAEWorbM3vvfn1YaAv3+Sm4k4cnpTfO3cmfHz986JMw8fFbVVnvpC0b9vmwAAAIrTT256PB7f0mUIeB4TW2rjAydPjN//ywHx4VMmx6ThtUaBIiVgAQBAkeruzcfX/7DKEPAi6qpzcepBI+LKC+fE186dGSfs2xzZrOsLoZhUmAAAAIrXNXetjzMPHxlTR9UZA15ENhNx8JTBcfCUwfHohs74yYI1cfWd62N7l1f1hOTff00AAADFK58vxKd/+UgUCraAnTFhWE1c/KpJ8bsP7R8fPmVyTGxxeSGkTMACAIAit/DRtrjmrvWGgF3wv5cX/uy9T1xeeNSMJq9eCAlyCSEAAJSAL/720Th6ZlM01PgSH3bF0y8vXPr49vjhjWvitws3RHdv3jiQwvuoCQAAoPht2tYTX7tupSGgH0wZOSg+etpe8ZuL58X5x4+LwYOEYRhoAhYAAJSIK25eG/eu3GYI6CdD6yvj/OPGxq8vnhcfOHlijBpSbRQYIAIWAACUiHy+EB/92VKXPEE/G1SVizMPHxW/umhufPL1e8f00V71E/Y0AQsAAErII+s6XEoIu0kum4kT9xsWP3rX7Pju22fFgXsNNgrsIQIWAACUmP/662Nx1/KthoDdaM6EhvjGW2fGd98+K46a0WQQ2M0ELAAAKDH5QsTHfr4sunpcSgi725wJDXHZWdPje0+GrEzGJrA7CFgAAFCCHt3QGZ//9XJDwB6y35Mh68fvmh0n7NssZEE/E7AAAKBE/eyWtfGbhRsMAXvQ1FF1cemZU+On79kvTp7XEtmskgX9QcACAIAS9slfPBzL13cYAvawKSMGxcdOnxL/8745cepBIyInZMFLImABAEAJ297dF//yk4eiu9f9sGAgjG2uiQ+fMjl+8b458ZoDhkdFTsiCXSFgAQBAiVvyWHv8x28eNQQMoLHNNfGR0/aKX7x/bpw0tyUcyIKdI2ABAEAZuOKmx+Pnt6w1BAywMU3V8fEzpsSVF85xs3fYCQIWAACUiUuvfiRuf3irISABk4bXxqVnTo0fvGPfOGpGk0HgRQhYAABQJnr7CnHRDx+IVRs7jQGJ2GdsfVx21vT47ttnxf6TGg0Cz0PAAgCAMtK6vTcu/MGS2NbZZwxIyJwJDfGtt+0TXzt3ZkwfXWcQ+DsCFgAAlJmH13XER65cGvmCLSA1B08ZHP/9ztnxydfvHeOH1RgEniRgAQBAGfrz/Zvia9etMASk+EQ9E3HifsPi5++dEx8/Y0qMaao2Ct4vTAAAAOXpu39eHb+7e4MhIFG5bCZOmtsSP3/fnHj3ieOjviZnFMqWgAUAAGWqUIj46M+Wxb0rtxkDElZVkY1zXjYmrr5oXpzzsjFRmcsYhbIjYAEAQBnr7s3HRT98IDa0dRsDEjd4UEW8+8Tx8dP37BdHzWgyCGVFwAIAgDK3trU73vHdxdHW2WsMKAITW2rjsrOmx+UXzIrZ4xsMQlkQsAAAgFj6+PZ4/389EN29eWNAkZg9viG+9/ZZcemZU2O0G71T4gQsAAAgIiJuf3hrXPLjhyKfLxgDikQmE3HCvs3x8/c+caP3umo3eqc0CVgAAMBT/nz/pvjUrx4xBBSZ6sr/u9H7mYePilzWjd4pLQIWAADwDD+/ZW18/Q8rDQFFaEhdRXzg5Inx43fPjgMmNxqEkiFgAQAAz/LNP66Kb/5xlSGgSE0ZMSi+ed4+8cWzp8fIIe6PRfETsAAAgOf09T+sjG/9ScSCYnbk9Ka46n1z4vzjx0VVhQRA8fLWCwAAPK+vXbcyvvvn1YaAIlZTmY3zjxsbP3n37Dhk78EGoSgJWAAAwAv6z9+tiMtvELGg2E1sqY2vvmVmfOz0KTF4UIVBKCoCFgAA8KK+dO2K+NK1KwwBJeDkeS3x8/fOiZPntRiDoiFgAQAAO+TyG1bHp375cOQLtoBiN7S+Mj52+pT40jnTY8TgKoOQPAELAADYYVfevDb+9acPRU+figWl4IhpTXHlhXPi1ANHGIOkCVgAAMBO+d3dG+Jd31sc7V19xoASUF+Tiw+fOjm+8k8zoqXRaSzSJGABAAA77dZlrfGO7y6OTdt6jAEl4tCpQ+LH75odL5vRZAySI2ABAAC7ZNGKtjj7q4vi4XUdxoASMbS+Mr5w1vT4+BlTYlBVziAkQ8ACAAB22erNXXHO1xbFzQ+1GgNKyElzW+In754dM8fWG4MkCFgAAMBLsq2zL955+eK44qbHjQElZGxzTVz+9llxzsvGRCZjDwaWgAUAALxk+XwhPv2rR+Jz1yyPvrxXKIRSUZHLxLtPHB+Xnjk16mtcUsjAEbAAAIB+86Mb18TbvnV/bGxzc3coJcfPao6fvme/mDXOJYUMDAELAADoV3ct3xpv+so9cd+qbcaAEjJqSHV8+237xKkHjjAGe5yABQAA9Lu1rd1x7jfui6tuW2sMKCFVFdn48KmT48OnTI7KnBtjsecIWAAAwG7R3ZuPT1z1cHziqoejuzdvECghpx40Ir527sxoqqs0BnuEgAUAAOxWV922Ns788j2x9PHtxoASMm9SY/zoXbNjn7Hui8XuJ2ABAAC73cPrOuLsry2KX92xzhhQQkYMropvvW2fOGF2szHYrQQsAABgj+jozsf8ny2LD/7wwWjr7DUIlIiaymx8+vVT4/zjxxmD3UbAAgAA9qg/3Lsx3vyVRV6lEEpIJhNx/nFj40OvnhzZrJu70/8ELAAAYI9bsaEzzvnavfGla1dET1/BIFAiTj9kRHz5nOlRV50zBv1KwAIAAAZEX74Ql9+wOt7y9Xtj+foOg0CJOHTvIfHN8/aJ5gavUEj/EbAAAIABdd+qbfH6L90Tl9+wOvIOY0FJmDGmLr5/wb4xrrnGGPQLAQsAABhw3b35+NK1K+KC79wfqzd3GQRKwOim6vj22/aJycNrjcFLJmABAADJuG1Za7z2CwufOI3lOBYUvZbGqvju22fFvuMbjMFLImABAABJ6ep54jTWm76yKJY81m4QKHKNtRXx9XNnxsFTBhuDXSZgAQAASVryWHuc/dVF8c0/rvJKhVDkaquycdlZ0+PwaUOMwS4RsAAAgGT19BXi639YGW/88j2xcHmbQaCIVVdm4/NvmhaHTR1iDHaagAUAACRv6drtce43742PXLk0Nm3rMQgUqaqKbHzhrOlx5PQmY7BTBCwAAKAoFAoR19y5Pk79j4Xx4wVrwj3eoThV5jLx2TdOFbHYKQIWAABQVLZ29MZnr14eb/n6vfHgGjd5h2JUVZGNz5w5NQ7Z243d2TECFgAAUJTuWdEWZ375nvjIlUtjc7vLCqHYVFc+cWP3o2Y4icWLE7AAAICilX/yssJTPv/EZYV9riuEolJVkY3PvnFavEzE4kUIWAAAQNH738sKT7/s7ljw4BaDQBGpzGXiM2+cFsfMHGoMnpeABQAAlIzl6zvind9bHB/47wdi1cZOg0CRqMxl4tNnTo1j9hGxeG4CFgAAUHL+dN+mOO0LC+Pzv14erdt7DQJFoDKXiUvfIGLx3AQsAACgJPX0FeKHf1sTr/7cXXH5DaujuzdvFEhcRS4Tn37D1Dh4ilcn5JkELAAAoKRt7eiNL127Il79ubviqlvXhvu8Q9oqc5n43JumxbRRdcbgKQIWAABQFta2dscnfvFwnP3VRXHzQ60GgYTVVefii+dMj1FDqo1BRAhYAABAmblv1bZ4x3fvj7d8/d64/eGtBoFEDW+siq+/dWYMra80BgIWAABQnhY+2hZv+9Z98e7Ll8SSx9oNAgka11wTn3vjtKjMZYxR5gQsAACgrP3tgc3xxv+8Jy78wZJ4cI2QBamZM7EhPnDyJEOUOQELAAAoe4VCxF8Wb44zv3xPXPyjB2Plxk6jQEJOP2REnHrgCEOUMQELAADgSflCxHWLNsZpX1gYn/jFw7Fua7dRIBGXvHpSzJnYYIgyJWABAAD8nd6+Qlx169p45WfujE/84uHY2NZjFBhgFblMfObMqdHSWGWMMiRgAQAAPI+eJ0PWqz9/V3zl9ytiS3uvUWAADWuoik+8bkpk3dO97AhYAAAAL2J7V1985/rVcdJn7ojPXbPcpYUwgA6cPDjefORoQ5QZAQsAAGAHdXTn40c3rolXfubO+MiVS93sHQbIBSeMi2mj6gxRRgQsAACAndTTV4hr7lwfp31hYXzkyqWxfH2HUWAPqqrIxidfv3dUV8oa5cIjDQAAsIt6nwxZr/3CwrjwB0tiyWPtRoE9ZNLw2njPiRMMUSYELAAAgJcoX4j4y+LN8ab/vCc+8N8PCFmwh7zu0JFx0F6DDVEGBCwAAIB+ki9E/Om+TXHml++JC75zf9yzos0osBtlMhH/esrkqKqQN0qdRxgAAGA3uGVpa5zztXvj/G/fH39ZvDnyBZvA7jCuuSbecvQYQ5S4ChMAAADsPrcta43blrXG8MaqOOWgEXHGISOiqa7SMNCP/unoMfG7ezbEI+u8oEKpcgILAABgD1i3tTu+8YeVceKn7oiLf/Rg3LK01SjQTypzmfjX10yOTMYWpUrAAgAA2IN6+gpx3aKNccF37o83/uc98cvb10VXT94w8BLNm9QYJ81tMUSJErAAAAAGyOLV7fFvP18WJ3zy9vjELx6Oh13+BC/Ju/5xfNRWSR2lyKMKAAAwwLZ19sVVt66NMy5bGO/83uJY8OCWKLjpO+y0lsaqOPPwUYYoQW7iDgAAkIh8IWLBg1tiwYNbYlxzTbz+sJHxmgNGOFECO+Gcl42J/7ltXWzc1mOMEuKjIAAAQIJWbuyMz169PP7hk7fH565ZHo9t7jIK7IC66lyce8xYQ5QYAQsAACBh7V198aMb18SrPntnXPiDJV69EHbAaw8eEeOH1RiihAhYAAAARSBfiPjL4s1xwXfujzO/fE9cc+f66O716oXwXCpymTj/uHGGKCECFgAAQJFZ8lh7fOTKpXHSZ+6Mb/1pVWxp7zUK/J1/nN0c45qdwioVAhYAAECR2tjWE1+7bmWc+Ok74iNXLo2H13UYBZ6UzWbi7JeNNkSpPJ4mAAAAKG7dvfm45s71ccZlC+OC79wff12y2SgQEa+aNzxGDqk2RAkQsAAAAEpEvhBxy9LWeM/3l8SZX74nfn3X+ujtKxiGslWRy8QbDx9liBIgYAEAAJSgJY+1x/+7Ymm84tI74xt/XBVbO9wni/J02sEjoqmu0hBFTsACAAAoYRvauuMbf1gZJ116Z/zHr5fHmi1dRqGs1FRm47UHjzBEkROwAAAAykB7V1/899/WxCs/c2dc+IMlcc+KNqNQNl578IioyGUMUcQELAAAgDKSL0T8ZfHmOOdr98ZbvnFvXLdoY+Tz7pNFaWtprIqjpjcZoohVmAAAAKA8LVzeFguXt8XY5pp4w2Ej45QDR0RNpXMOlKbTDxkZf7pvkyGKlI9MAAAAZW7Vxs747NXL4xWX3hFfvW5lbNzWYxRKzkF7DY6JLbWGKFICFgAAABERsaW9N779p1Xxik/fER+5cmms2NBpFEpGJhNu5l7EBCwAAACeoaevENfcuT5O+8LC+PAVS2PZ2u1GoSScPK8lqiqkkGLkUQMAAOA59eUL8Zu71scZX7zbKxdSEhprK+LwqUMMUYQELAAAAF5Q4e9eufCvSzZHwQsXUqRePneYEYqQVyEEAABghy1c3hbvWb4kZo6tj3OPGRNHzxgamYxdKB5HTW+K+ppcbOvsM0YRcQILAACAnXb/qm3x/v96IM766qK4dVmrQSgaVRXZOG5WsyGKjIAFAADALrtv1bZ4+7fvj7d8495YuNw9sigOr5jjMsJiI2ABAADwki1c3hbnfvPeuOiHD8Yj6zoMQtL2nzw4hjVUGaKICFgAAAD0i0Ih4o/3bozTL1sYF//owVi9qdMoJCmbiThy+hBDFNNjZgIAAAD6U74Qcd2ijXHaF+6Oz/96ebR19hqF5Bw1Y6gRioiABQAAwG7R3ZuPH/5tTbzqs3fFjxesiXzBJqTjkCmDo6ZSFikWHikAAAB2q9btvfHZq5fHm79yTyxa4UbvpKG6MhsH7jXYEEVCwAIAAGCPWLy6Pc75+r3xkSuXxub2HoMw4I6a3mSEIiFgAQAAsMcUChHX3Lk+Tv2PhXHlzWsj77pCBtCRM5oik7FDMRCwAAAA2ONat/fGp375cLzpK4ti8ep2gzAghjdWxaSWWkMUAQELAACAAbPksfY466uL4kvXroiePqex2PP2n9xohCIgYAEAADCg+vKFuPyG1fHG/7wnljzmNBZ71v6T3Mi9GAhYAAAAJGHp49ufOo3V6zQWe8j+k5zAKgYCFgAAAMno7XviNNZbvnFvLF/fYRB2u+aGypgwrMYQiROwAAAASM69K7fFG758T/zoxjVRcBiL3Wz/yS4jTJ2ABQAAQJK6evLxuWuWxzu+e3+sbe02CLvNPJcRJk/AAgAAIGm3LG2N0y9bGL+5a70x2C1mjqkzQuIELAAAAJK3rbMvPnzF0vi3ny+Lrp68QehX44fVxqDqnCESJmABAABQNH55+7o48z/viYfXucE7/SebiZg+2imspB8jEwAAAFBMHlnXEWd/dVFct2ijMeg3AlbaBCwAAACKTntXX1zy4wfjS9euiLxXKaQfzHAfrKQJWAAAABSlQiHi8htWx3t/sCTau/oMwkviBFbaBCwAAACK2l+XbI5zv3FfrNvabQx22aSW2qiulElS5ZEBAACg6D24pj3e/JVFsfTx7cZgl2SzmRg3tMYQqT4+JgAAAKAUrN/aHW/95n2x8NE2Y7BLxg8TsFIlYAEAAFAytnb0xju+c3/cuqzVGOy0iS21RkiUgAUAAEBJ6ezJx3u+vyRuWSpisXOcwEqXgAUAAEDJ6erJx4U/WBI3PyRisePGD3MCK1UCFgAAACWpqycf7/2vJe6JxQ6b4ARWsgQsAAAASlZXTz4u/P6SWLbWqxPy4prqKqOhpsIQCRKwAAAAKGlbO3rjnd9bHI9v6TIGL2rE4CojJEjAAgAAoOStbe2Od35vcbR39RmDF9QiYCVJwAIAAKAsPLyuIz5yxdLIF2zB82tpELBSJGABAABQNq6/f1N860+rDMHzammsNEKCBCwAAADKyrf+uDJuXdZqCJ7T8MZqIyRIwAIAAKCs5AsRH7liaWxp7zUGz+IEVpoELAAAAMrOuq3d8W8/X2oInqWl0T2wUiRgAQAAUJZuWLw5/uf2dYbgGZrqnMBKkYAFAABA2fr8NctjzZYuQ/CU+pqcERIkYAEAAFC22rv64mM/XxaFgi14Qn11LjIZO6RGwAIAAKCs3bK0NX5/zwZDEBER2WwmaqucwkrucTEBAAAA5e6y3z4anT15QxAREQ0uI0yOgAUAAEDZW9vaHT+6cY0hiIiIhpoKIyRGwAIAAICI+P4Nj0V7V58hiPpaJ7BSI2ABAABARLR19sZVt641BFFf7QRWagQsAAAAeNIP/7Ymevq8JGG5q8x5GcLUCFgAAADwpHVbu+MPizYaosxVVAhYqRGwAAAA4GmuuXO9EcpcRVbASo2ABQAAAE9zy9ItsW5rtyHKmICVHgELAAAAniZfiPjd3RsMUcYqc3JJajwiAAAA8Hf+snizEcpYLmeD1AhYAAAA8HfuXtEW7V19hihTFVm5JDUeEQAAAPg7vX2FuP3hrYYoU64gTI+HBAAAAJ7DbctajVCm8gUbpEbAAgAAgOeweHW7EcpUr4KVHAELAAAAnsODa9qdxClTfR745AhYAAAA8Bzau/pi9aZOQ5Shvj4BKzUCFgAAADyP5es7jFCGnMBKj4AFAAAAz+PxLd1GKENdvXkjJEbAAgAAgOexbmuXEcpQR7eAlRoBCwAAAJ7H2lYnsMpRR3efERIjYAEAAMDz2NrRa4Qy5ARWegQsAAAAeB5dPUJGOdruBFZyBCwAAEhALpsxAiSoU8AqS9u7BKzUVJgAAAD2vLrqXMyd2Bj7TWiIuRMbYsrIQXH0x24zDCSm06VkZcmlo+kRsAAAYICcetDwOHrm0IiI6PaS7ZCkjMORZaerJ+8eWAlyCSEAAAyA9q6+eP9/PxBfunZF5Av2gFRVVXjaXG62bHf6KkXeEwEAYIAUChGX37A6LvrhA9HufiuQpGoBq+y0bu8xQoJcQggAAAPs+vs2xaPrO2LCsJp4dEOnQSAhQ+o8bS43rU5gJUlKBgCABKza1BX//c7Zccw+Q40BCRnWUGWEMrO+zQmsFAlYAACQiLrqXHz2jdPi/OPGunE0JKK5odIIZWb91m4jJEjAAgCAlL5Az0Scf/y4uOys6S5dggRMbKk1QpkRsBL9/GgCAABIz5HTm+LKC+fEoVOHGAMG0CQBq+ysbRWwUiRgAQBAoprrK+PLZ0+Pd5wwLnJZ1xTCnlZdmY1xzTWGKDNOYKVJwAIAgJS/YM9m4q3Hjo3vvX1WjPVEGvaomWPqoyInHpebxzZ3GSHFz4cmAACA9M0aVx8/fOe+cfysZmPAHjJ7fL0RykxnTz42bnMCK0UCFgAAFImGmor4zBunxsfPmBK1Vb6Uh93toCmDjVBmVm3qjELBDinyWQ8AAIrMSXNb4r/+eXbsM9bpENhdaquysf+kRkOUmVUbO42QKAELAACK0OThtXH5BbPi3SeOj6oKX9ZDfztk7yHet8rQqk3uf5Uq740AAFCkctlMnPOyMfGTd8+O2eMbDAL96OVzhhmhDD26ocMIiRKwAACgyE1sqY3vvn1WfPiUye6NBf2gviYXR05rMkQZWrZ2uxES5bMbAACUwhf2mYhTDxoRV7xnvzhwshtPw0vxynnDo7rS0+Vy9Mg6J7CS/TxnAgAAKB1jhtbE1946My565USnsWBXniRnIs44dKQhytCGtu5o3d5riFTfN00AAACl9wT8DYeNip+/d04cN6vZILATDp/WFBOG1RiiDD3s9FXan9tMAAAApWnkkOr47BunxjfOmxl7jRhkENgB5x071ghlavHqdiMkTMACAIASd+DkwfHjd82Oi145MQZV5wwCz+PI6U0xa1y9IcrUfSu3GSFhAhYAAJSBilwm3nDYqPjF++bEyfNaDAJ/J5fNxDv/cbwhyti9qwSslAlYAABQRloaq+Jjp0+Jb563j8sK4Wled+jI2Huk94lytbGtJx7f0mWIhAlYAABQhg6Y3Bg/ftfsuPhVk2JofaVBKGvDG6vi7cePM0QZu8/pq+QJWAAAUKYqcpl43aEj4+qL5sW7Txwf9TXuj0X5yWQi/t+pe3n7L3OLVrYZIXECFgAAlLnaqmyc87Ix8T/vnxuvO3RkVOYyRqFsnHHIyDh82hBDlDknsNInYAEAABERMbS+Mi5+1aT45QfmxqkHjYhsVsiitO07viHe+4oJhihzhULEfSvbDZE4AQsAAHiGkUOq48OnTI7//ud949CpQwxCSWpprIrPv2lqVFV4WlzuHt3QEW2dvYZInPdUAADgOU0fXRdf+acZcfkFs+LI6U2RcSCLElFfk4svnj09hjVUGYNYtNLlg8VAwAIAAF7Q7PEN8cWzp8dP371fnDyvJXIuLaSIVVdm4wtnTY/po+uMQURE3PLQFiMUAQELAADYIVNGDoqPnT4lfvbeOfGq/YdHhZu9U2RqKrPx+TdNi/0nNRqDiHji/le3LG01RBEQsAAAgJ0yYVhNzH/tXvGrD8yNMw8fFTWVnlaQvkFVubjs7OlxmPu68TQPPt4eG7f1GKII+EwDAADskpFDquMDJ0+Mqy+aF+cdOzaa6yuNQpJaGqvi2+fvEwftNdgYPMPNDzl9VSwqTAAAALwUzQ2VccEJ4+Ktx46NP9+/Ka66da1LckjG1FF1cdlZ02LkkGpj8Cw3u/9V0RCwAACAflGZy8QJ+zbHCfs2x32rtsVPb3o8fn/PxujuzRuHAXHyvJb40KsnR22Vi494tq6efNy1vM0QRULAAgAA+t0+Y+vjY6dPiQtfPiF+dce6uPLmtbFmS5dh2COqK7Nx0ckT49SDRhiD53XnI1sF9iIiYAEAALvN0PrKOOdlY+LNR46OvyzZHFffsT7+9sDm6O0rGIfdYs6Ehvjoa6fEhGE1xuAF3exS56IiYAEAALtdLpuJY2YOjWNmDo3N7T1x7d0b4uo71seSx9qNQ7+oqczGO/9xfLz+sFGRzdiDF7fgwS1GKCICFgAAsEc11VXGGw4bFW84bFQ8sq4jfr9oY/zq9nUuMWSXHTWjKT74ykkxusmN2tkxj27ojGVrtxuiiAhYAADAgJk0vDbOP25snHfMmFjw0Ja45s71ccPizdHV4740vLgpIwfFB06eGAftNdgY7JQ/LNpohCIjYAEAAAMum83EEdOa4ohpTdHVk4+/LNkcv75rfSx4cIv7ZfEsIwZXxXnHjo3XHDA8sq4XZBcIWMVHwAIAAJJSXZmNE/ZtjhP2bY5N23ri9/dsjGvv3hCLVrZFQcsqa2OaquOso8bEaw4cHpU54Ypds2pjZzywxv33io2ABQAAJGtofWW8/rCR8frDRsbqzV1x7cINce3dG9y7psxMGTEozn7Z6Dhxv2GRc+KKl+iP920yQhESsAAAgKIwpqk6zj1mTJx7zJhYvbkrbnloS/xlyea46cEt0eMyw5KTzUQcuNfgOPPwUXHEtKbI6Fb0E5cPFicBCwAAKDpjmqrj1INGxKkHjYhtnX1x04NPxKwbH9wcW9p7DVTEJgyriZfPaYmT57V4VUH63ZotXXH/6m2GKEICFgAAUNTqa3JxwuzmOGF2c+Tzhbhn5bb465LNcevS1lj8WHvk805npa65vjL+YfawePmcYTFrXL1B2G3+dO8m99IrUgIWAABQMrLZTMyZ0BBzJjRE/GNEe1df3PnI1rjzka1xxyNbY/Hq9ugTtJIwqDoXR88cGq+YMywOnjLYva3YI669e4MRipSABQAAlKy66lwcOb0pjpzeFBFPBK2Fy9vijqeC1rbodf+sPSKTiZg2qi4OnTokDt17SMyZ0BAVXkmQPWjp2u1x3yqXDxYrAQsAACgbddW5OHzakDh82pCIiOjtK8SKjZ2xePW2WLy6Pe5fvS3uX9Ue3b15Y/WDIXUVceDkwXHwlMFxxPSmGN5YZRQGzK9uX2eEIiZgAQAA5fuEKJeJycNrY/Lw2jhpbktERHT35uPBNdtj8er2WLx6Wyx5rD0e3dARHd2i1gupqsjG1FGDYsaYupgxpj5mjqmLKSPrwpWBpKC3rxC/XejywaL+eG0CAACA/1NVkY1Z4+qfvJn4iIiIKBQi1rZ2xfL1nbFiQ0c8vL4jVmzoiOXrO2Nta1fZ3RR6UHUuJg+vjZlj6mPGmLqYPqYu9ho+yCWBJOtvD2yOjdt6DFHEBCwAAIAXkclEjBxSHSOHVMchew9+xo919uRj+fqOWLOlKx7f0hXrWrtjfVvPE9/e2h3rWruL8pLEYQ1VMXJIVYwaUh2jhlTH+GE1MX5YbUwYVhMtLgWkyPzqjvVGKHICFgAAwEtQU5mN6aPrYvrouuf9OZvbe56KWVs7emNrR2+0dfTF1o7e2NbZG1uf/Hbbkz/W0Z2PfKEQ2zr7dvnvVVWRjZrKbEREVFdmo6oiG421uRhSVxmDayti8KCKGDKoIhoHVcTgQZVPfLu2IprqK6OloTKqKrIeXErCpm098bcHNhuiyAlYAAAAu1lTXWU01VXGtFF1u/TrC4WIts7ep7697clvR0RU5LJRW/VEbHp6tAKe8JuFG7zaaAkQsAAAABKXyUQ01v7f07fBgzyVgx31S68+WBKkeQAAAKAk3basNZat3W6IEiBgAQAAACXpJzc9boQSIWABAAAAJefxLV3xl8Vu3l4qBCwAAACg5Fx5y9roy7t5e6kQsAAAAICS0t2bd/P2EiNgAQAAACXl2rs3xqZtPYYoIQIWAAAAUFKuuNnN20uNgAUAAACUjLsfbYv7V20zRIkRsAAAAICS8d0/rzZCCRKwAAAAgJLw8LqOuPGBzYYoQQIWAAAAUBK+c/2qyBfsUIoELAAAAKDordjQGb+/Z6MhSpSABQAAABS9r1y3IvocvypZAhYAAABQ1B56fHv8cZHTV6VMwAIAAACK2hd/+6h7X5U4AQsAAAAoWrcsbY0FD24xRIkTsAAAAICi1JcvxOd/vdwQZUDAAgAAAIrSTxY8Hksf326IMiBgAQAAAEVn47ae+MYfVxqiTAhYAAAAQNH5zNWPxLbOPkOUCQELAAAAKCp/e2BzXHfPRkOUEQELAAAAKBrtXX3x77942BBlRsACAAAAisYXfv1orG3tNkSZEbAAAACAovDn+zfFVbetNUQZErAAAACA5G3a1uPSwTImYAEAAABJyxci/t8VS2Pjth5jlCkBCwAAAEjad65fFTc9tMUQZUzAAgAAAJJ127LW+MYfVxmizAlYAAAAQJLWtnbHJT9+KPL5gjHKnIAFAAAAJKe7Nx8X/fCB2NzuvlcIWAAAAEBiCoWI+T9bFveu3GYMIkLAAgAAABLzzT+ujGvv3mAIniJgAQAAAMn4zV3r45t/ctN2nknAAgAAAJJw27LW+NhVD0fBPdv5OwIWAAAAMOAWr26P9/7g/7d351F2noV5wJ/vzmhmtFneFzAYEkEAE+SFxRqbEEJKEpqmZKU9SUvSJjntSXMKbQoGmmbCiW3JGNywnLbACQ7LCWCWsBmCTRDGlmxjaSRZsmUhS7JlydYy2mZGM3Nn7n37h2QjY1vWMvv8fufoXM1dvvt9z/vekeaZb3kw9ZGmMHgaBRYAAAAwoTbvGsif3/RADtUbwuAZKbAAAACACbN190D+0yfvz96+YWHwrBRYAAAAwITYunsgf/qJ+7Onty4MjkmBBQAAAIw75RUnolUEAAAAwHjasmsgf/rJ9enpddggx8ceWAAAAMC4UV5xMuyBBQAAAIyLNQ/35p2f2ZD9/SPC4IQosAAAAIAx9/31e/PeL/w4Q8NNYXDCFFgAAADAmPqH5Y/lg9/cmmaRBSdHgQUAAACMiWaz5IZvbc3nlz8uDE6JAgsAAAAYdfWRZv7y5k25dW2PMDhlCiwAAABgVPX0Duedn9mQddv6hMGoUGABAAAAo6Z768Fc/Q8/zu6DdWEwahRYAAAAwCkrJfn8isdy4y0PZ6ThbO2MLgUWAAAAcEr6hxp5/5cfyq33Od8VY0OBBQAAAJy0rbsH8heffTCbdw0IgzGjwAIAAABOyjdX7c61/7g5g8NNYTCmFFgAAADACekbbGTp17fkW927hcG4UGABAAAAx+2uHx/IX395U3YecJVBxo8CCwAAAHhOQ8PN/L/vPZpP3749TRcZZJwpsAAAAIBjWretL//r5k3ZutuJ2pkYCiwAAADgGdVHmvnk97fnU8u2p2G3KyaQAgsAAAB4mh9u2Jfrv7E12/cOCoMJp8ACAAAAnrR190A++K2tufPB/cJg0lBgAQAAAOkdHMmnlu3I5+7YkeGGwwWZXBRYAAAAMIM1myX/uHJXPvZP27Kvf1ggTEoKLAAAmASGG8287ws/zn9844X5mXNnCwQYF8vu35uPfXdbHtp5SBhMagosAACYBEpJvr16T76zZk9e/7Iz8qe/dGFeceE8wQBjYu0jvfnwdx7Jqi0HhcGUoMACAIBJpJTk9gf25fYH9uV1Cxfkz978wrzyBYosYHQ8tPNQPv69R3PrfT3CYEpRYAEAwCR196YDuXvTfel86en5o198fi5/8WlCAU7KI3sG839v25bvrt2TpvOzMwUpsAAAYJJbvnF/lm/cn5+7YG5+94rz8i8vPSfts2qCAZ7TpscP5dM/3JFvr96ThuaKKUyBBQAAU8SDj/Xnb766OR/77rb861efm7ctPj/nLWgTDPA0G3b051PLtue2dT0peiumAQUWAABMMfv6h3PTD7bns3fsyBtfcWb+7ZUX5JKL5gsGyOqHe3PTD7bn9gf2CYNpRYEFAABT1Eij5Nb7enLrfT152fPm5q2vPje/esnZOW22/+bDTPte8P31e/OZO3Zk3bY+gTAt+ZcNAACmgQ07+rPk61vyoVsezhtefkZ+/bJzcuVLT0+tVgkHpqm9fcP5+spd+eJdO/P4/iGBMK0psAAAYBqpjzSf3CvrvAVt+bVLzslvv/bcPP/MDuHANLFhR3++dPfOfKt7d4aGmwJhRlBgAQDANLXzQD03/WB7Pn379lz24tPy5lednV9+5Vk5fa4fA2CqqY808711e/P5FY/nvkd6BcKM418uAACY5poluXfzwdy7+WCWfH1LXvXCefkXP39WfnXR2Tlj7iwBwSS2eddAvrlqd752767s6x8WCDNWa5KRKLIAAGBGaDZLVm/tzeqtvfnbbz+SK16yIG9+1dl5w8vPyNz2FgHBJLD7YD23rN6Tb6zclc27BgQCyXBrknoUWAAAMOPUR5q5/YF9uf2BfWlrreXVP3Na3vDyM/MLLz8j5y1oExCM8+fx++v35pvdu7PixwfSbBahwFEfkdaU1FNljiwAAGBm//C8fOP+LN+4P9d9LfnZ8+bk9S87I7/w8jOy6IXzU7mYIYy6oeFm7nnoQG69ryffX783/UMNocAzqTLUmiqutQkAADzFQzsP5aGdh3LTD7bnnNPa8vqXnZErf+70vOZnFmReh0MN4WT1DTZy+4Z9+d66nizfuN9VBOF4lAy1JqWe+HUKAADwzHYfrOcr9+zMV+7ZmZZalYsvnJfXLVyQ1y1ckFe9cH5aW/w8AcfS0zucOx7cl++t25t7HjqQ+ojSCk5QvTWp7IEFAAAcl0azZO0jvVn7SG8+8c+PpmNWLYsumn+k0Do9L3veXIcb4nPSLNn42KHcvmFfbn9gbzbs6E9xSis4BWWoNckBQQAAACdjcLiZuzcdyN2bDiR5JHPbW/LKF8zLJS86LZdcND+Xvmh+2lprgmLa27538MnPwvKN+53PCkZTVe1vrZIeRTAAADAa+ocaRxVaScesWl75gnm59EWnZdFF87PoovmZ2+4cWkxtpSRbdg9kzcO9Wb31YFZuOZgd+xzcBGP3oUtPa6myJxosAABgDAwON3Pv5oO5d/PBJEmtVmXheXNy8YVz84rnz8vFL5iXhefNcR4tJrX6SDP3P9qf1Q8fzOqHe7Pm4d4cODQiGBg/e1qT0uMk7gAAwHhoNks2PtafjY/156s/2pUkaWut5aUXzMkrLpx3uNS6cG5efM7s1Gp+TmEC5mhJHtkzkAe292fDjv6sfaQ3D2zvd+J1mEClpKe1lFpPZRcsAABggtRHmlm3rS/rtvU9ed+ctpYsPH9OFp4/Jy85f05+9rzDtwvmtAqMUTPSKNm861A27DiUDTv6smF7fzY+diiH6s5fBZNJldLTWitlT/GLDQAmqfu39+WmH2wXxDQ1UPfbbOCZHao3nrza4dHOOa0tC8+fk5ceKbUWnj8nLzpndjpmOVE8x7bzQD2bdx3K5p0D2bzrUDY+dig/fvyQPatgSqj1tDZTHq0cQgjAJLV6a29Wb+0VBABJkt0H69l9sJ4VG/c/5f7zFrTlorNn54Vnd+Sis2fnonMO3z7vjPa0OBRxxs2RzbsG8tDOw2XVQ0dKq95B56yCqaqqlW2tVZpbE1cBAQAApq6dB+rZeaCeex468JT7Z7VUef6ZHbno7I48/8yOPO+M9lxwensuOHLrkMSpp5Rk18F6tvUMZlvPYB7dO5htewaf/NrhfzD9NJrNLa1ts2dtqQ/aZRIAAJh+hhslW3cPZOvugWd8fE57S553pNB63hmHb8+Z35bzFrTlzHmzcu6Ctsxp8wv/8TTSKNnTW8/j++t5/MDQkXJyKI/tG8r2vUN5pGfQYX8w074vzB5+uEqSS9+zvCclZ4oEAADgqWa31XLegvbDhdZpbTlr/uHbM+fNyoI5rTl9zpHbua2Z32GPrmczONzMvv7h9PQOZ1//4T97eoezt284uw8e3oPusf1D6emtp+k6Y8BP7O5e0nnu4e+uzWxNpcACAAD4aQP15jH34jpaS63K6XNas2BOaxbMmfXk3+d1tGRO++E/89pbMr+j9cjXtSfvm9fRmvZZtUl7QvpGs6R/qJHhkZLewZH0DTbSN9hI7+BIegdG0jvYSN/gE7eN9A6M5MChkfT0DWdvX92FO4CTU2VLkhwusKpqS1IukwoAAMDJazRLevqG09M3nGTgpJfT2lJlTltLarVkbntrqiqZ33H4UMb5HYe/TpK21mcuvFpqVea0H3XoY8kznsR8aKSZoeGfFEuH6s2MNJrpH2qk0Uz6BkfSaJb0DTqvFDAxSrI1OVJgVWmuK6l+WywAAAATb6RRcnDgcOG0v9/V84CZqypZlyS1JCnJfSIBAAAAYDIp1eHOqpYkzapVgQUAAADApDKrNNYmRwqsNe2v3ZSkXywAAAAATBJ9P+q4amtypMBKV9VMlfVyAQAAAGCSuC9dVTN5osBKUjWrNXIBAAAAYFKosvaJvz5ZYDWrLJcMAAAAAJNDufOJvz1ZYKVR3SkYAAAAACaD1tJ8squqjn7g0quXP5bkfBEBAAAAMIEe717SecETX9SOfqQquUs+AAAAAEyokjuO/vIpBVazFocRAgAAADChqp/qqJ66B1ajuUxEAAAAAEykZlWWHf31Uwqs7jlXrkqyU0wAAAAATJDHV1/bueboO55SYKWraib5rpwAAAAAmAilVN9OqnL0fbWnPynfERUAAAAAE6GWp3dTTyuwhuv5TpKGuAAAAAAYZ42herntp+98WoG1/sbOvUnukRcAAAAA46mkrDjSTT1F7Vme/mWRAQAAADCuSvWlZ7r7GQus1pZZX0xSpAYAAADAOGmW1hx/gfWja167LcldcgMAAABgnNy55prO7c/0QO3ZXlFV+aLcAAAAABgPVckXnu2xYxRYI19I0hQfAAAAAGOsWUrzq8/24LMWWCuv/YXHkiyTHwAAAABjqUpu677+qh3P9njtmK8u5RMiBAAAAGAslerYHdQxC6z67NO/kmS3GAEAAAAYG2VPb9+BbxzrGccssNZ3XVwvyWcFCQAAAMBYqEp106aPvGXoWM+pPddCWqp8PEkRJwAAAACjrlR/91xPec4Ca+V1nRuS/FCaAAAAAIyyZauuX/zAcz2pdjxLKlVulCcAAAAAo6mq8sHjed5xFVirr1v8tSQbxAoAAADAaKiSB1e1L77leJ5bO85FlpTqw6IFAAAAYDQ0U92Qrqp5PM+tHe9CO+rlpqTsES8AAAAAp2jX6R2Dnz3eJx93gbXixs6BKvmYfAEAAAA4JaV8ZFnXGweP9+m1E1l2s6P+v5PskzIAAAAAJ6Vkf5ld/+iJvOSECqzVXW/cn7giIQAAAAAnbemRjum41U70HeodQzcm2S1rAAAAAE5M2XOoNE/4FFUnXGCt73pjX1I+KHAAAAAATkhVu+7B66/qPdGX1U7mvRoj8z6a5HGpAwAAAHCcdnQMlv9zMi88qQJr7Q2L+lPlf8odAAAAgONSlatX3Ng5cDIvrZ3se3a3L/5Ukh9JHwAAAIDnsLK7vfNzJ/viky6w0lU1S8k7khRjAAAAAMCzKLVSe0e6qubJLqB2Ku++emnn8lLlZuMAAAAAwDMpqT63cukVd5zKMmqnuhJVrbwrySHDAQAAAMBP6Ws2q/ec6kJOucDqvubKh0uVvzIeAAAAADxFVd639vorHj3VxdRGY11esunRG1PlXqMCAAAAQJKkyj0LN23/2OgsapRc9t67XlWazXuTzDJCAAAAADPaSKmV16y+9srVo7Gw2mit1aprr1ibKh80PgAAAAAzXJVrR6u8SkaxwEqSjsG8P8n9RgkAAABgZqqSdb19+68dzWWOaoG14sbOgUatvC3JoOECAAAAmHGGSmn8waaPvGVoNBdaG+21XHvtletKlb80XgAAAAAzTFXe1b309WtGe7G1sVjX1e2LP5TkNqMGAAAAMDNUyXe7r+v8yFgse0wKrHRVzTSbb0/SY/gAAAAApr1dLY3WtydVGYuF18Zqrbuvv2pHUv2bJA1jCAAAADBtNauSf/+jD7z28bF6g9pYrn33ksW3pZQu4wgAAAAwXZX3rlra+U9j+Q7VOGxEdem7V3wpVX7LgAIAAABMK1/rXrL4N8fq0MEn1MZ+O6pyqDT/MMkDxhQAAABguigba6Xt7WNdXiXjUmAlD15/VW+zNH83yQGDCwAAADDFleyvmrW3rlz66nHpemrjtV1rll61vqR6a5K6UQYAAACYsoZTVb+76vrF43a0XW08t271ksXLkvxn4wwAAAAwJZVSVX/SvWTxbeP5prXx3sruJZ1/V1KuMd4AAAAAU0uV8v7V1y3++/F/3wlRqkuuvuvTVcofGHoAAACAKeHvu5cs/qPxOGn7T6tNzPZW5SUPbfvDKrnZ2AMAAABMblXJPy7oGPrjiSivkgnbA+uwi7vWt7UNHvxqUt5iKgAAAABMQlW5tbfvwL/a9JG3DE3YKkx0BovfuXz2YHu+neQNZgQAAADApLK8MTL3zWtvWNQ/kStRm+gUVtzYOdDWUfuNVLnHnAAAAACYHEpyd1tH7dcmurxKJkGBlSR3d11xsN4+9KYk/2x6AAAAAEy4H7Z31N58d9cVByfDylSTKZnLu+6d0xyqfyUlv2KeAAAAAEyI73QM5bdW3Ng5MFlWqDaZ0lnZ9epD9fYFv5GSr5grAAAAAOPuGws6hn5zMpVXySQrsJJkfdfF9QWzh95WUn3WnAEAAAAYN3+/oGPot5Z1vXFwsq1YNXkzK9VlVy//q5Lqr8wfAAAAgLFUfbh7yRXvSKoyKddussd3ydUr/rBK+XiSWSYTAAAAwKgaqZI/W7Wk8+OTeSWrqZDkpe9d/qY08qVUOd28AgAAADh1JemtJb+3aknndyb7ulZTJdRF777j4lpV+2qSl5hiAAAAACevSh5Ms/rNVdcvfmAqrG9tqgS7ZulV6w81m5cn1ZdNMwAAAICT9o1mx9AVU6W8SqbQHlg/UapLr17+rqS6JkmLOQcAAABwXBpVyt+s6uh8f7qq5lRa8WqqJn7Zu5f/SqnKZ5PqbPMPAAAA4Jh2JdXvdy9ZfNtUXPnaVE191dLOfxqutbwyqW4xBwEAAACe1W1pNi+dquVVMoX3wPqJUl129Yo/KcmNSeaYkwAAAABJksGkdHV3dH5gqh0y+NOq6TIih69S2PK5pCwyPwEAAIAZ7v5SK7+/+torV0+HjalNl1FZs/Sq9bW9s16TlKuT1M1TAAAAYAYaTqqlCzqGLp8u5VUyjfbAOtrl717+840qn6iS15m3AAAAwExQJd1VrfrjldcuXjUNt22a6iq1ywZX/HFJPphknmkMAAAATFOHkvL+hQ9tv+Hmm3+vMR03sJruI7jofcufX2vkuiR/MBO2FwAAAJgxSpV8qbSU/9F9zZUPT+cNnTGFziVX3/maKtXfJllsfgMAAABT3Mpaqb1j5dIr7pgJGzuz9kjqKrXLhpa/vZTqmiQXmOsAAADAFLMjJe/pXrr4M0lVZspGz8hD6hb++S3tp809/e0l+esk55v7AAAAwORW9iS5oWOo+vCKGzsHZtrWz+hzQr3qL9bMbWnt+y+pqnel5EwfBgAAAGBSqbK3KuUjszpaPnR31xUHZ24M5PJ337ugmfp/TZU/S3KuRAAAAIAJtjOlfLRtdsuHZ3Jx9QQF1lEW/vkt7fPnnP62VHl3kldIBAAAABhnm0rJR2fX8/GZeKjgs1FgPZOuUrt06K5fTyn/LckbBAIAAACMsWVVqT60avYV30pX1RTHUymwnsOi99z90lpp/oek/FEcXggAAACMnn0lubml5KMrl3beJ45np8A6Thd3rW9rHzj41lKVP0nyS0lqUgEAAABOUKNKvtdMPjncseBr67surovkuSmwTsLl//3es5ut9bekyr+LMgsAAAA4tmaSFaXk5qo0b+6+/qodIjkxCqxT9Jr33fOCRqPxOyXld5K8LkmLVAAAAGDGa5SUFbWq+nKjlpvXXNO5XSQnT4E1ii5+5/IzZ7XnTUl+uUrekuRCqQAAAMCMsbtKlpWSb9br+eb6Gzv3imR0KLDGTKkWXb3ikpZUv1hKuSpVOpOcLxcAAACYNh5PqjurqtzRrMqy1dd2rkmqIpbRp8AaR5ddvXxhKelMLZ2l5JIquTjJPMkAAADApNdXkvVV0p2SFbVmuXPlB658SCzjQ4E1kbpK7fL+5S8urbVFpVleWWq5uCp5cZIXJTlHQAAAADDudifZWqpsqZpZX1W5r2qUtSs/0LnZ3lUTR4E1SV3c9f15LfW2F7U2ai9uVs0XVKnOqpKzmqnOqlLOSnJ2Sc46Mohzk7Tl8NUQF0gPAAAAciCHr/5XL0l/klRV9qSkp6TqqaX0lKQnpdpTJY+OtDS3pD5vy9obFvWLbvL5//gTh1xYeuyaAAAAJXRFWHRkYXRlOmNyZWF0ZQAyMDIxLTA1LTA2VDE3OjM1OjQ0KzAwOjAwmR2G7gAAACV0RVh0ZGF0ZTptb2RpZnkAMjAyMS0wNS0wNlQxNzozNTo0NCswMDowMOhAPlIAAAAASUVORK5CYII=;fontStyle=1" parent="1" vertex="1">
          <mxGeometry x="-100" y="309" width="60" height="60" as="geometry" />
        </mxCell>
        <mxCell id="4wnhlf1m7BTgz00R7PTS-1" value="Consumer" style="shape=image;verticalLabelPosition=bottom;labelBackgroundColor=default;verticalAlign=top;aspect=fixed;imageAspect=0;image=data:image/png,iVBORw0KGgoAAAANSUhEUgAABLAAAASwCAYAAADrIbPPAAAABGdBTUEAALGPC/xhBQAAACBjSFJNAAB6JgAAgIQAAPoAAACA6AAAdTAAAOpgAAA6mAAAF3CculE8AAAABmJLR0QA/wD/AP+gvaeTAAB0gklEQVR42uzdd5TddZ3/8fe9d2qmJJPJpHdCGiEkoVepuyhYAEFFBVZExLVgQXDXn2bVVbGsqGtv6K4NFFdBRVERldAhECABEggphPRMJpPp9/7+gGVBWhImmc+99/E4x2NIz+tOu8/z+X5vJkjSwfNvbuzu6JlUiOzEbCYzLh+Z5kwm3xyRaY6I5shHSyETQyIiMhGDIyIbEbmIaLQeAAAAxNaI6IuIfCGi9cnnz5sjExsiYmNEYWOhkN2YjcLGQiazIpPJLK+siuW3zD9kq+nSkzHBwDn99CtyD06ZsFc2emdHITM7IjMzCoVJkY2JUYihFgIAAIA9LBObIh/LI5N5JDKF+yIKiwq9ubsX1h28LOZn8gYaqIeFPWb2B/82LZvNHZotxGGFTGFOROwTEYMsAwAAAMnbHhH3ZQqZhflMLChksgvu/tTBD5plzxCwdpf5heyczgX7R2SOzkQcHhGHRUSLYQAAAKBkrIuImwqZ+FumL//nuwYdfqdTWruHgNWPDvrQLc3dhb5jI+L4TMTJETHaKgAAAFAuChsykbk+Iv6QyfZefccnj1pjk/4hYL1Ec//1xgmFvswZEXFaJuLAeOJm6gAAAEB564vI3BaR/1m2ULjyjkuPWGGSXSdg7YLZH7x5bDaTPy2TidPjiUsD7QgAAAC8kPszUbgyF/kf3PbpIx82x84RXnbQ0fOvr9nSUX1qJhPnRcTLbAcAAADsgnxE/DkKhW+1bW/9xdIvv6LLJC9OhHkRsz/4t2m5bO6fIgpvCTdhBwAAAPpLIbYUMnFFNpv9yp2fPOQegzw/Aeu5zC9k53Xe9OpCxHsj4kiDAAAAALvZXwqZ+MLC6kN/5ZUMn03Aepop7/pNdcOgIa+LTHwoIqZbBAAAANiTChEPRyG+lKut+tYd8w/YbpEnCFgRsc97Fwytqo4LI+IdEdFsEQAAAGBgFTZkIr7SE/kvLvr0kZvLfY2yDlj7zL++vqqz6p+jkLkkMjHEOwcAAACQkkJEWyYyX80WKj91x6UHtJbrDmUZsGZ/4O66bK79rZlM/EtEDPfuAAAAACRuYyYK/1lZk/uPW+YfsrXc/vFlFbBOP/2K3ENTxrwlU8h8PCJGeNsHAAAAiszjkYkP31V96PfK6WbvZROw5n5owcsiH5dFJuZ4WwcAAACKWSbirkKhcOFdlx7+lzL595a22R++ZVKup+8zkYnXevMGAAAASkihkIkrM9nCB+/698MfLeV/aMkGrKPnX1+xpaP6nzOZ+PeIqPM2DQAAAJSojojCv01ZtvpzV155Rl8p/gNLMmDN+5ebZxfy+W9HxIHehgEAAICyUIiFUcifd9dnjri91P5pJRWwDn3vgtqu6sLFhch8KCKqvOUCAAAAZaY3IvPVvt5B/3LP5/ZrL5V/VMkErNn/cuOsXD7zo4jY19sqAAAAUOaW5CPOvPvTh91VCv+YEghYhcyci296dyYTnwmnrgAAAAD+V08mCp+8s+awj8X8TL6Y/yFFHbAOvOjWkb253u9FxIneJgEAAACe05/yuTjr7n8/bHWx/gOKNmDNufjGkzLZzA+iEEO9HQIAAAC8oI2ZiDfd+enDri3Gv3wRBqxCZu4lCz4YkflkRGS9/QEAAADskEJE5jN31RzyL8V2SWFRBayD59/c2NOR/34hE6/xNgcAAACw8zIRv+6Jvjcv+vSRm4vo71wc5v3LzbMLhfxVUYi9vKkBAAAAvCQP5Qv5U+6+9Ij7iuEvWxSX4M354M0nFPL5v4hXAAAAAP1i72wme/OcD/3tFcXwl00+YM29ZMFbMtn8ryNisLctAAAAgH5Tnylkfzn3kpvenvpfNOFLCAuZeZcs+GghMh/19gQAAACwO2W+dFfNIe9N9ebuSQas/d92e2V+aPf3I+IN3oAAAAAAdr9CZP57SE3nP/15/jG9qf3dkgtYU971m+rGQUN+4pUGAQAAAPasQsQ1Q2q6Tv/z/GM6U/p7JRWw9p9/+6B8V9f/RCFzgjcZAAAAgAHx5+6arlfeN/+Yban8hZK5ifs+86+vL3T0XCNeAQAAAAyooys7q3578PybG1P5CyVxAuvg+Tc3dnfm/xARB3obAQAAAEhAJm6tqs6ecMv8Q7YO9F9lwE9g7T//9kHdnfmrQ7wCAAAASEchDuruzP92n/nX1w/0X2VAA9Y+8++rynd2/ywijvJWAQAAAJCcw6o6q39x9PzrawbyLzFgAWv/t91eWdXZ+rOIeLm3BQAAAIBkHd/aWf2T/d92e+VA/QUGKGAVMvmh3d+PiFd6GwAAAABI3qv7hvZ8N6IwIPdTzw3EHzr3khM/HRFv99gDAAAAFIdMxOxRR67OPf6371w/AH/2njX3QwvOjUJ828MOAAAAUIwyF9z16UO/vkf/xD35h827eME/FjJxTURUeLABAAAAilJPIZ89aeFnDrluT/2BeyxgzfuXm2fn8/m/ZSIaPM4AAAAARa01X8gffvelR9y3J/6wPXIT930v+WtToZC/SrwCAAAAKAmDs5nsL+bMv37InvjDdn/Aml/IVkbuv6IQe3lsAQAAAErG3pnO6h/E/MJu70u7/Q+Y23XTRwsRJ3lMAQAAAErOK+d13vyh3f2H7NZ7YM370IKTC4X4ZeyhSxUBAAAA2OPyUcicfNelh/52d/0Buy1gzf7gzWNzufzdUYihHkcAAACAUlbYEPnCfnd95ojHdsfvvntORs0vZHPZ/PfFKwAAAIBykBkWuczlEYXdclhqtwSsuZ0LLoqIYz14AAAAAGWikDlh3iU3X7g7fut+r2L7XbJgbjbi5oio8sgBAAAAlJWuKPQdfNelR97dn79pv57AOvS9C2qzET8K8QoAAACgHFVHJvfDo+dfX9Ofv2m/BqyOqsL8iJjusQIAAAAoW/ts6az6cH/+hv12CeHci/+6X2Ryt0VEpccJAAAAoKz15iMOuvvTh93VH79Zv5zAOnr+9RWRyX0nxCsAAAAAIiqyEd84/fQrcv3xm/VLwGrtrHp/ROzvsQEAAADgSQcu22vcu/vjN3rJlxDO/vAtk3K9ffdFRK3HBQAAAICnac8W8jPvuPSIFS/lN3nJJ7ByPX2fC/EKAAAAgGery2dzl77U3+QlncCac8lNR2eicL3HAgAAAIDnk8nkj7rzU0f8dVd//a6fwJpfyGai8DkPAQAAAAAvqJD9Yswv7HKH2uVfOK/zpreGG7cDAAAA8CIKEXPndS04e1d//S5dQrjP/Ovrqzqrl0bECA8BAAAAADtgTbamasod8w/YvrO/cJdOYFV2Vr8rxCsAAAAAdtyovq7ud+zKL9zpE1gHz7+5sbsr/0gUYqjdAQAAANhxhQ3b84XJD3zmiLad+VU7fQKrp7PvfeIVAAAAADsvM6w2k3vXTv+qnfnJc+ZfPyTTUf1IZGKIwQEAAADYaYXY0pvpm7zo00du3tFfslMnsDKd1e8TrwAAAADYZZkYUhG5d+7cL9lB+8+/fVC+s3tFRDRbGgAAAICXYH1NV0y46QuHdezIT97hE1iFju5/CvEKAAAAgJeupasqztrRn7xjAWt+IVvIxIW2BQAAAKA/FDKF98X8wg61qR36SfO6bn5NREwxLQAAAAD9IzN1btfNJ+/Iz9yhgFUoFC40KgAAAAD9qlB43478tBe9ifu8D940o5At3Bc7ccN3AAAAANghmew+d33qkPtf6Ke8+AmsbOH8EK8AAAAA2B0Khbe82E95wTA15V2/qW6oG7wqIjPMmgAAAADsBhvb2reMWfrlV3Q93094wRNY9YOGnCZeAQAAALAbNTcOanr1C/2E7Av/YOatNgQAAABgdypkCue90I8/7yWEB/7rreN6+3ofDfe/AgAAAGD3yudzMf7ufz9s9XP94POewOrt6zkjxCsAAAAAdr9sNl847Xl/8Pl+oBCZ020HAAAAwB5RyJzxfD/0nCes9r/4b+PzmezycAILAAAAgD2jELnCpLv+/fBH//4HnvMEViGbe32IVwAAAADsOZnIZ5/zMsLnDFj5QuFUmwEAAACwRxWe+z5Yzzpltf/7bx+Wr+xeGy9wfywAAAAA2A36KjO5Ebd+6uCNT//O7LN/Vs8/hngFAAAAwJ6X6y3kj//778w++zvyL7cVAAAAAAMjf+Lff88zA9b8QrYQmRMMBQAAAMBAKETmxIjCM2579YyANadzwf4RMdxUAAAAAAyQkftdctOcp3/HMwJWNpM9xkYAAAAADKRsJvOMRvWMgFUo5A83EQAAAAADKl94RqN6WsAqZCIyh1oIAAAAgAGViecOWLM/eOPUiGixEAAAAAADbMT+F9241//+x1MBK5fNunwQAAAAgCTks5mnWtVTAStTyBxiGgAAAACSkI3D/u+bTypkC3MtAwAAAEAKCoWY87/fzkZEnH76FbkoxEzTAAAAAJCCTMSsmF/IRjwZsB6YNHpKRAwyDQAAAACJqJvXedPkiCcDVjabnW0TAAAAABKzb8STASvz5H8AAAAAQCrykZkd8dRN3DPufwUAAABAWjKFmRFPncAqTLYIAAAAACnJFGJSxJMBqxAx0SQAAAAAJGZiRETm4Pk3N3Z35lvtAQAAAEBqtufzjdnujp5JpgAAAAAgRdUVmQnZQjYnYAEAAACQpIpCZmI2m48xpgAAAAAgRYV8Zlw2MoUWUwAAAACQpExhWLYQmWZLAAAAAJCiTERzNjKZYaYAAAAAIE2FYdmIvBNYAAAAACSpEJnmbKbgBBYAAAAAicrEsGwhosESAAAAACSpUGjMRhSqLQEAAABAmjLV2YhMlSEAAAAASFRVNgrhBBYAAAAAacpEdTYy4QQWAAAAAGkqRHU2QsACAAAAIFlV2YiosAMAAAAAiarM2gAAAACAlAlYAAAAACRNwAIAAAAgaQIWAAAAAEkTsAAAAABImoAFAAAAQNIELAAAAACSJmABAAAAkDQBCwAAAICkCVgAAAAAJE3AAgAAACBpAhYAAAAASROwAAAAAEiagAUAAABA0gQsAAAAAJImYAEAAACQNAELAAAAgKQJWAAAAAAkTcACAAAAIGkCFgAAAABJE7AAAAAASJqABQAAAEDSBCwAAAAAkiZgAQAAAJA0AQsAAACApAlYAAAAACRNwAIAAAAgaQIWAAAAAEkTsAAAAABImoAFAAAAQNIELAAAAACSJmABAAAAkDQBCwAAAICkCVgAAAAAJE3AAgAAACBpAhYAAAAASROwAAAAAEiagAUAAABA0gQsAAAAAJImYAEAAACQNAELAAAAgKQJWAAAAAAkTcACAAAAIGkCFgAAAABJE7AAAAAASJqABQAAAEDSBCwAAAAAkiZgAQAAAJA0AQsAAACApAlYAAAAACRNwAIAAAAgaQIWAAAAAEkTsAAAAABImoAFAAAAQNIELAAAAACSJmABAAAAkDQBCwAAAICkCVgAAAAAJE3AAgAAACBpAhYAAAAASROwAAAAAEiagAUAAABA0gQsAAAAAJImYAEAAACQNAELAAAAgKQJWAAAAAAkTcACAAAAIGkCFgAAAABJE7AAAAAASJqABQAAAEDSBCwAAAAAkiZgAQAAAJA0AQsAAACApAlYAAAAACRNwAIAAAAgaQIWAAAAAEkTsAAAAABImoAFAAAAQNIELAAAAACSJmABAAAAkDQBCwAAAICkCVgAAAAAJE3AAgAAACBpAhYAAAAASROwAAAAAEiagAUAAABA0gQsAAAAAJImYAEAAACQNAELAAAAgKQJWAAAAAAkTcACAAAAIGkCFgAAAABJE7AAAAAASJqABQAAAEDSBCwAAAAAkiZgAQAAAJA0AQsAAACApAlYAAAAACRNwAIAAAAgaQIWAAAAAEkTsAAAAABImoAFAAAAQNIELAAAAACSJmABAAAAkDQBCwAAAICkCVgAAAAAJE3AAgAAACBpAhYAAAAASROwAAAAAEiagAUAAABA0gQsAAAAAJImYAEAAACQNAELAAAAgKQJWAAAAAAkTcACAAAAIGkCFgAAAABJE7AAAAAASJqABQAAAEDSBCwAAAAAkiZgAQAAAJA0AQsAAACApAlYAAAAACRNwAIAAAAgaQIWAAAAAEkTsAAAAABImoAFAAAAQNIELAAAAACSJmABAAAAkDQBCwAAAICkCVgAAAAAJE3AAgAAACBpAhYAAAAASROwAAAAAEiagAUAAABA0gQsAAAAAJImYAEAAACQNAELAAAAgKQJWAAAAAAkTcACAAAAIGkCFgAAAABJE7AAAAAASJqABQAAAEDSBCwAAAAAkiZgAQAAAJA0AQsAAACApAlYAAAAACRNwAIAAAAgaQIWAAAAAEkTsAAAAABImoAFAAAAQNIELAAAAACSJmABAAAAkDQBCwAAAICkCVgAAAAAJE3AAgAAACBpAhYAAAAASROwAAAAAEiagAUAAABA0gQsAAAAAJImYAEAAACQNAELAAAAgKQJWAAAAAAkTcACAAAAIGkCFgAAAABJE7AAAAAASJqABQAAAEDSBCwAAAAAkiZgAQAAAJA0AQsAAACApAlYAAAAACRNwAIAAAAgaQIWAAAAAEkTsAAAAABImoAFAAAAQNIELAAAAACSJmABAAAAkDQBCwAAAICkCVgAAAAAJE3AAgAAACBpAhYAAAAASROwAAAAAEiagAUAAABA0gQsAAAAAJImYAEAAACQNAELAAAAgKQJWAAAAAAkTcACAAAAIGkCFgAAAABJE7AAAAAASJqABQAAAEDSBCwAAAAAkiZgAQAAAJA0AQsAAACApAlYAAAAACRNwAIAAAAgaQIWAAAAAEkTsAAAAABImoAFAAAAQNIELAAAAACSJmABAAAAkDQBCwAAAICkCVgAAAAAJE3AAgAAACBpAhYAAAAASROwAAAAAEiagAUAAABA0gQsAAAAAJImYAEAAACQNAELAAAAgKQJWAAAAAAkTcACAAAAIGkCFgAAAABJE7AAAAAASJqABQAAAEDSBCwAAAAAkiZgAQAAAJA0AQsAAACApAlYAAAAACRNwAIAAAAgaQIWAAAAAEkTsAAAAABImoAFAAAAQNIELAAAAACSJmABAAAAkDQBCwAAAICkCVgAAAAAJE3AAgAAACBpAhYAAAAASROwAAAAAEiagAUAAABA0gQsAAAAAJImYAEAAACQNAELAAAAgKQJWAAAAAAkTcACAAAAIGkCFgAAAABJE7AAAAAASJqABQAAAEDSBCwAAAAAkiZgAQAAAJA0AQsAAACApAlYAAAAACRNwAIAAAAgaQIWAAAAAEkTsAAAAABImoAFAAAAQNIELAAAAACSJmABAAAAkDQBCwAAAICkCVgAAAAAJE3AAgAAACBpAhYAAAAASROwAAAAAEiagAUAAABA0gQsAAAAAJImYAEAAACQNAELAAAAgKQJWAAAAAAkTcACAAAAIGkCFgAAAABJE7AAAAAASJqABQAAAEDSBCwAAAAAkiZgAQAAAJA0AQsAAACApAlYAAAAACRNwAIAAAAgaQIWAAAAAEkTsAAAAABImoAFAAAAQNIELAAAAACSJmABAAAAkDQBCwAAAICkCVgAAAAAJE3AAgAAACBpAhYAAAAASROwAAAAAEiagAUAAABA0gQsAAAAAJImYAEAAACQNAELAAAAgKQJWAAAAAAkTcACAAAAIGkCFgAAAABJE7AAAAAASJqABQAAAEDSBCwAAAAAkiZgAQAAAJA0AQsAAACApAlYAAAAACRNwAIAAAAgaQIWAAAAAEkTsAAAAABImoAFAAAAQNIELAAAAACSJmABAAAAkDQBCwAAAICkCVgAAAAAJE3AAgAAACBpAhYAAAAASROwAAAAAEiagAUAAABA0gQsAAAAAJImYAEAAACQNAELAAAAgKQJWAAAAAAkTcACAAAAIGkCFgAAAABJE7AAAAAASJqABQAAAEDSBCwAAAAAkiZgAQAAAJA0AQsAAACApAlYAAAAACRNwAIAAAAgaQIWAAAAAEkTsAAAAABImoAFAAAAQNIELAAAAACSJmABAAAAkDQBCwAAAICkCVgAAAAAJE3AAgAAACBpAhYAAAAASROwAAAAAEiagAUAAABA0gQsAAAAAJImYAEAAACQNAELAAAAgKQJWAAAAAAkTcACAAAAIGkCFgAAAABJE7AAAAAASJqABQAAAEDSBCwAAAAAkiZgAQAAAJA0AQsAAACApAlYAAAAACRNwAIAAAAgaQIWAAAAAEkTsAAAAABImoAFAAAAQNIELAAAAACSJmABAAAAkDQBCwAAAICkCVgAAAAAJE3AAgAAACBpAhYAAAAASROwAAAAAEiagAUAAABA0gQsAAAAAJImYAEAAACQNAELAAAAgKQJWAAAAAAkTcACAAAAIGkCFgAAAABJE7AAAAAASJqABQAAAEDSBCwAAAAAkiZgAQAAAJA0AQsAAACApAlYAAAAACRNwAIAAAAgaQIWAAAAAEkTsAAAAABImoAFAAAAQNIELAAAAACSJmABAAAAkDQBCwAAAICkCVgAAAAAJE3AAgAAACBpAhYAAAAASROwAAAAAEiagAUAAABA0gQsAAAAAJImYAEAAACQNAELAAAAgKQJWAAAAAAkTcACAAAAIGkCFgAAAABJE7AAAAAASJqABQAAAEDSBCwAAAAAkiZgAQAAAJA0AQsAAACApAlYAAAAACRNwAIAAAAgaQIWAAAAAEkTsAAAAABImoAFAAAAQNIELAAAAACSJmABAAAAkDQBCwAAAICkCVgAAAAAJE3AAgAAACBpAhYAAAAASROwAAAAAEiagAUAAABA0gQsAAAAAJImYAEAAACQNAELAAAAgKQJWAAAAAAkTcACAAAAIGkCFgAAAABJE7AAAAAASJqABQAAAEDSBCwAAAAAkiZgAQAAAJA0AQsAAACApAlYAAAAACRNwAIAAAAgaQIWAAAAAEkTsAAAAABImoAFAAAAQNIELAAAAACSJmABAAAAkDQBCwAAAICkCVgAAAAAJE3AAgAAACBpAhYAAAAASROwAAAAAEiagAUAAABA0gQsAAAAAJImYAEAAACQNAELAAAAgKQJWAAAAAAkTcACAAAAIGkCFgAAAABJE7AAAAAASJqABQAAAEDSBCwAAAAAkiZgAQAAAJA0AQsAAACApAlYAAAAACRNwAIAAAAgaQIWAAAAAEkTsAAAAABImoAFAAAAQNIqTAAAAMDuls1mor46FzWV2aisyEZDTS6qKrJRW5WNQVW5qMhlovbJ/3+6uupc5LKZnf7zunry0dWbf+q/2zp7IwoRhcKT346Ivnwh2rv6IiJiW2df9PY98d+dPfnoftqvBQaegAUAAMAOq63KxvDGqmhuqIrG2oporK2IwYMqnvXtwYMqonFQRTTU5KK+OhfZXYhQA21bZ1/09OVje1dfdPTko6OrL7Z19cW2zr5o6+iNts6+2NbZG9s6n/i+9q6+aN3eG63be2LL9t7Ysr038vmCNxroBwIWAAAAkctmYsTgqhg5pDpGDq6KpvrKGDG4OobWV8aIwVXRXF8ZwwdXxaCqXNlsUl+Ti4hcNNVV7vLv0fpkyNrS3vPkt3tiY1tPbGjriQ1t3bF+a3esf/LbXT1OfcHzEbAAAADKQCYT0dJQFaOHVsfoppoY01Qdo5uqn/rvkYOrdulSPV7Y4EFPnEabMKzmRX9uW2dvrN/aE+u3dsfa1q5Ys7krHtvcFWu2dMWaLd2xrrUrevqc6KI8CVgAAAAlpKYyGxNbamNCS21MevJ/E1pqYmJLbVRVeB2vlDXUVERDTUVMHl77nD+eL0RsaOuOxzZ3xepNnfHohs5YubEzVmzoiJUbO2NbZ58RKVkCFgAAQBGqrszGlBGDYtqoupg84n9DVW2MGlIdGQepSlI2EzG8sSqGN1bFnAkNz/rxTdt6YsXGzlixoTOWr++IZWu3x8Nrt8djW7qi4OAWRU7AAgAASFxzQ2VMHVUX00bVxbRRg2LqqLqYMKymKG+Mzu4ztL4yhtZXPitudXTn45F122Pp2o4n/397PLhme6zf2m00ioaABQAAkJDmhsqYNbY+Zo1riJlj62LqqLporq80DLustiobM8fWx8yx9c/4/o1tPbHksfZn/G/1pk6DkaTM3EsWOEgIAAAwAGoqszFjTH3MGvfE//YdVx8jh1QbhgHT1tkbS1a3xz0rtsWilW1x78ptsWlbj2EYcAIWAADAHjKsoSoOmNwY8yY1xr7j62PKiEFe+Y/krdrYGfes3BaLVrTFopXb4oHH2qMvLyWwZwlYAAAAu0lzfWXMm9QYcyY2xJwJjTF9dJ0brFP0Orrz8cCa9li4fGvcsrQ17lreFt29ecOwWwlYAAAA/WRofWUcMmVwzJvcGAdMGhzjh9UYhZLX2ZOPe1a0xZ2PbI3blm2NRSvbordPaqB/CVgAAAAvwV4jBsWR05vi4CmD44DJjS4JpOx1dD8RtG5Z2hq3LN0Si1e3G4WXTMAC+s3MsfVx0F6DDQHAgPrpTWuio9ulLOw+1ZXZOHDy4DhqRlMcOb0pRgyuMgq8gNWbu+LmB7fEgoe2xC0Ptcb27j6jsNMqTAD0lzkTGuLdJ443BAAD6uo71wlY9Lu66lwcu8/QOHZWcxw8ZXDUVGaNAjtoTFN1nHbwiDjt4BHR3ZuP2x/eGjcs3hR/Wbw51rZ2G4gdImABAAA8h6qKbBwxbUi8fM6wOHJ6U1RViFbQH+9Xh00dEodNHRKXvCrigTXtccPizXHD/ZtiyWMuNeT5CVgAAABPymYiZk9oiJPntsQ/zB4W9TU5o8BukslETB9dF9NH18X5x42Nx7d0xfX3b4rrFm2Mux9ti4IbHvE0AhYAAFD2po6qi1MOHB4n7NscQ+srDQIDYOSQ6njDYaPiDYeNitWbu+IPizbGdYs2xv2rthkHAQsAAChP1ZXZ+MfZzXHaQSNi3/ENBoGEjGmqjrOPGh1nHzU6Vm/qjN8s3BC/vmt9rNjQaZwyJWABAABlZWJLbbxq/5Y45cARMXiQp0SQujFDa+K8Y8fGeceOjcWr2+PXd62P3y7cEJvbe4xTRny0BgAASl5lLhMn7Nscpx08IuZObDQIFKkZY+pixpi6eM/LJ8TflmyOr/1hZSx9fLthyoCABQAAlKxB1bl4zQHD481Hjo4Rg6sMAiWiMpeJY/YZGrcuaxWwyoSABQAAlJzm+sp47SEj4w2HjYzGWk97AIqdj+QAAEDJGNtcE284bGSceuCIqK7MGgSgRAhYAABA0Zsxpi7OO3ZsHDVjaGQz9gAoNQIWAABQtCa21Ma5x4yJl89pEa4ASpiABQAAFJ2RQ6rjrceMiVcfMDxyyhVAyROwAACAotFUVxlvPnJUnHn4qKiqcI8rgHIhYAEAAMkbVJ2Lc48eE284fFTUuDk7QNkRsAAAgGRlMhHHz2qO9500MUYMrjIIQJkSsAAAgCRNH10XH3zVpJgzocEYAGVOwAIAAJIyeFBFvO24sfG6Q0ZG1g3aAQgBCwAASEQum4nXHToyzj9+bDTUeKoCwP/xWQEAABhwU0YOio+etlfsM7beGAA8i4AFAAAM3BOSXCbedMTouOCEcVGZc7kgAM/z+cIEAADAQJg2qi4++tq9YvroOmMA8IIELAAAYI+qqsjG248fG2cdOdpN2gHYIQIWAACwx+w3oSH+7bVTYvywGmMAsMMELAAAYLfLZTPx5iNHxztOGBcV7nUFwE4SsAAAgN1qdFN1fOKMvWPOxAZjALBLBCwAAGC3OXleS1z8qklRV50zBgC7TMACAAD6XX1NLj706snx8jnDjAHASyZgAQAA/WrOhIb49JlTY3hjlTEA6BcCFgAA0G9OPWhEXPyqSVHpRu0A9CMBCwAAeMly2Uy876QJ8YbDRhkDgH4nYAEAAC9JU11lXHrm1DhgcqMxANgtBCwAAGCXTR9dF//x5mkxcki1MQDYbQQsAABgl7xibkt85NTJUVWRNQYAu5WABQAA7LQzDx8V7ztpYmTdqx2APUDAAgAAdlgmE/G248bF+ceNNQYAe4yABQAA7JBsNhP/+prJccqBw40BwB4lYAEAAC+qqiIbn3z93nHsPkONAcAeJ2ABAAAvqKGmIi47e1rMndhoDAAGhIAFAAA8r4aaivjGeTNj+ug6YwAwYLzeLQAA8Jxqq7Jx2dnTxCsABpyABQAAPEt1ZTa+ePYMlw0CkAQBCwAAeIbKXCY++8apccBk8QqANAhYAADAUypymfjMG6fFEdOajAFAMgQsAADgiScH2Ux87PQp8bIZ4hUAiX2OMgEAABARcdHJE+PE/YYZAoDkCFgAAEC8/rCR8bpDRxoCgCQJWAAAUOYOnTok3n/SREMAkCwBCwAAytjk4bVx6RumRi6bMQYAyRKwAACgTA2pq4jLzpoe9TU5YwCQNAELAADKUFVFNr541vQY21xjDACSJ2ABAEAZ+sipk2Pf8Q2GAKAoCFgAAFBmXnPA8HjF3BZDAFA0BCwAACgje40YFB981SRDAFBUBCwAACgTtVXZuPTMqVFT6WkAAMXFZy4AACgTl7x6ckweXmsIAIqOgAUAAGXgxP2GxSvnue8VAMVJwAIAgBI3aXht/L9T9zIEAEVLwAIAgBKWy2bi46dPidoqX/oDULx8FgMAgBJ2zstGx8yx9YYAoKgJWAAAUKImttTGeceONQQARU/AAgCAUvxCP5uJj50+JaoqfMkPQAl8XjMBAACUnrOOHB2zxrl0EIDSIGABAECJmdhSG+cf59JBAEqHgAUAAKX0BX4m4iOn7hXVlb7UB6CEPr+ZAAAASsdrDx4ZcyY2GAKAkiJgAQBAiRg8qCLefvw4QwBQcgQsAAAoEe84YXwMqaswBAAlR8ACAIASMGXEoDj1oOGGAKAkCVgAAFACLn71pMhlM4YAoCQJWAAAUORePmdY7D+p0RAAlCwBCwAAilhNZTbe9Y/jDQFASROwAACgiJ17zNgYOaTaEACUNAELAACKVHNDZbzxiFGGAKDkCVgAAFCkzj16bNRU+pIegNLnsx0AABShkUOq49SDhhsCgLIgYAEAQBF667FjoqrCl/MAlAef8QAAoMiMbqqOV85z+gqA8iFgAQBAkbnghHFRmcsYAoCyIWABAEARmTCsJk7cb5ghACgrFSYAAIDicd6xYyOXdfqK0tLdm4+tHb2xZXtvbN3eG60dz/7/9s6+6MsXIiKisycf3b35iIjo6s1HV88T3+7tK0R3bz4GVeee+r2rK7JR/eSrdWYzmaivyUV9TS7qqp/436An/7+htiLqq3MxrLEqmuoqoqmu0vsaJETAAgCAItHcUBknzHb6iuKztaM3HtvcFas3dcbqzV3x2KauWL25M1Zv6oq1rV3R0Z1P8u89tL4ymuoqY2hdZQxrrIyWhqoY3VQdo5qqY8zQmhjdVB01lS5sgj1BwAIAgCLx2oNGuPcVSVvb2h1LH98eDz3eHg89vj0eWdcRqzd1RVtnb1H+ezZt64lN23pi2Qv8nKH1lU9FrQnDamNiS21MHFYTE1pqo+5pJ8GAl0bAAgCAIlCZy8RpB48wBMlo7+qLe1dui0Ur2uLeVdvi3pXbYtO2nrLb4X8j170rtz3rx4Y3VsWEltqY2FITE1tqY8rIQTF9dF001HgqDjvLew0AABSBE/ZtjmENVYZgwPTlC/Hgmu1xy9ItccvS1rjzka3R01cwzAtYt7U71m3tjtuWtT7j+1saq2LGmLqYMaY+Jg+vjb1GDIpJLbWRccASnpeABQAAReCMQ0cagT0qny/E/avb49ZlrXHr0ta4e0XbUzdL56VZv7U71m/tjr8s3vzU9w0eVBGzxtXHvuMaYvb4hth3fL1LEOFpBCwAAEjc9NF1MXt8gyHY7fL5Qtyzclv8YdHGuPbuDWV5SeBAad3eGzc+sCVufGDLU983ZmhNzJ3YEHMmNMSciY1OaVHWBCwAAEjcG48YZQR2m3wh4p4VbfGHRRvjd/dsiI1tolUqVm/qjNWbOuOaO9dHRERTXWUcMLkx5kxsiDkTGmPGmDojUTYELAAASFhjbUWcsG+zIeh3i1e3xy9vXxd/vHdjbHTSqihsbu+J6xZtjOsWbYyIiFFDquPAvQbHQXs1xkFTBrtPHiVNwAIAgISdMLs5qiqyhqBfdHTn49q7N8TPb10b96/aZpAit2ZLV/zqjnXxqzvWRUTE5OG1ccS0pjhielPMndgQuazrDSkdAhYAACTs5LktRuAl29zeE1fcvDZ+smBNtG7vNUiJenhdRzy8riN+8NfHorYqGwfuNTiOmt4UR05vipZGp7MobgIWAAAkalxzjZu385Ks29od371+dfzyjnVeQbDMdHTn4y+LN8dfFm+ObCZin3ENcdT0pjhmn6ExeXitgSg6AhYAACTqxP2GecUxdsnm9p743p9Xx5W3rBWuiHwhYtGKtli0oi2+8vsVsdeIQXH8rKFx3L7NMWXEIANRFAQsAABI1PFu3s5O6ssX4oqbH4+vXbcytnX2GYTntGzt9li2dnt844+rYkxTdbxs5tA4ft/mmDPBiU/SJWABAECCxg+rib1HOhnBjrvt4db49C8fiUfWdRiDHbZ6c1f86MY18aMb18TElto4cb9hcdK8lhjTVG0ckiJgAf1m6ePb46pb1xqCfjVl5CD3fylhv7lrfXS6tIV+1tldGm9Tx81y+oodfJvvyceXrn00fnrT41Eo2INdt3x9R3z9DyvjG39cGXMnNsbJ81rihH2bo646ZxwGnIAF9Jtbl7XGrctaDUG/OvPwUQJWCfvCbx+NjW09hoDncMzMoUbgRd27clt85MqlsXy9U1f0n0Ih4s5Htsadj2yNS3/1SBy7z9A4aW5LHDJlcGSzbszHwBCwAAAgMU11lTFzbL0heF69fYX41p9WxXf/vDr68o5dsft09eTjtws3xG8XboiWxqp45byWOOWgES4xZI8TsAAAIDGHTR0SDjnwfFZv7ooP/vCBWLy63RjsUeu3dsd3/7w6Lr9hdRw6dUicdtCIOGp6k1NZ7BECFgAAJOaIaUOMwHO645GtcfGPHoxN21x+zcDJFyJufGBL3PjAlhjWUBUnz2uJ0w8ZEaOGOJXF7iNgAQBAQrKZiEP2HmIInuWnNz0en71meeRdMkhCNrR1x+U3rI7/+utjcdSMpnj9oSPjwL0GG4Z+J2ABAEBCpo6qi8GDfJnO/ykUIr75p1XxjT+sNAbJ6ssX4vr7NsX1922K6aPr4p+OHhPHz2qOjKsL6Sc+MwIAQEL2n9xoBJ6SL0R8/Kpl8cvb1xmDorHksfa4+EcPxtRRdfGWo8fE8fs2u68fL1nWBAAAkI4DJ7v0hifk84X4t58tFa8oWg+uaY9LfvxgvPpzd8WPF6yJ7t68UdhlAhYAAKTyxXkmYu6kBkMQhULEv/18WVx953pjUPRWb+qMz169PE75/ML41R3r3MeNXfscaQIAAEjDxJbaaKhxlw8ivvy7FeIVJWfNlq6Y/7Nl8drL7o7rFm2Mgo7FThCwAAAgEdPH1BuBuOLmx+PyG1YbgpK1fH1HXPyjB+Pcb94bdz/aZhB2iIAFAACJmDmmzghl7u5H2+Lz1yw3BGVh4fK2+Kev3xsXfOf+eOjx7QbhBQlYAACQiJlOYJW19Vu74wM/fCB6+lxXRXm5ZWlrvOHL98SnfvlwbO3oNQjPScACAIAUvjDPZmLaaCewytX/3rR9Y1uPMShL+Xwhrrx57VOvWOg+7zzr86QJAABg4E1uqY3aKl+el6sfL1gTCx7cYgjKXuv23vjs1cvjvG/eF0tdVsjT+AwJAAAJmO7+V2Vr1cbO+PLvVhgCnuau5VvjzP+8J77wm0ejvavPIAhYAACQAve/Kl+fvWZ5dPXkDQF/p7evEP/118fitP9YGH9dstkgZU7AAgCABDiBVZ5uWLzZE3N4Eeu2dsd7vr8kPvGLh2N7t9NY5UrAAgCABEwcVmuEMpMvRHzl9y4dhB111a1r44zL7o47H9lqjDIkYAEAwAAbVJ2LIXUVhigzf1i00U2qYSc9trkr3vbt++NL166Inj4vVVhOfJYEAIABNm5ojRHK0LevX2UE2AX5fCEuv2F13PzQlhhaX2mQMiFgAQDAABvbLGCVm9sf3ur0FbxESx5rN0IZcQkhAAAMsLFDq41QZq68+XEjAOwEAQsAAAbYWJcQlpW2zt748/2bDAGwEwQsAAAYYC4hLC833L/ZzacBdpKABQAAA8wlhOXlT/c5fQWwswQsAAAYQLlsJkYOEbDKRV++ELctazUEwE4SsAAAYAANa6iMXDZjiDKxeHV7tHf1GQJgJwlYAAAwgAYPqjRCGblz+VYjAOwCAQsAAAZQU12FEcrIQ2u2GwFgFwhYAAAwgIbUOYFVTpatFbAAdoWABQAAA2jwICewysny9R1GANgFAhYAAAygJiewykbr9t7o7MkbAmAXCFgAADCAhjiBVTbWt3UbAWAXCVgAADCAXEJYPrZu7zUCwC4SsAAAYAC5hLB8dLl8EGCXCVgAADCAnMAqH129AhbArhKwAABgANVU+pK8XBRMALDLfLYEAIABVFnhS/JyUZXzWAPsKh9BAQBgAFXlMkYoE9VO2wHsMh9BAQBgAFUIWGWjrjpnBIBdJGABAMAAqnIJYdloafSKkwC7ymdLAAAYQJVOYJWNofVVTtwB7CIBCwAABlCFG3uXz5OvTMTwxipDAOzKx1ATAADAwMhlM5F1IKes7DVikBEAdoGABQAAA6SqQr0qN1NHCVgAu0LAAgCAAVKR9eV4uZk6qs4IALvAZ0wAABioL8Z9NV529p/UGBkH7wB2/nOmCQAAYGD09hWMUGaG1le6DxbALhCwAABggPTmBaxydNjeQ4wAsJMELAAAGCBOYJWn4/dtNgLAThKwAABggPTlC1HQsMrOrHH1Ma65xhAAO0HAAgCAAdTnMsKydOJ+w4wAsBMELAAAGEDug1WeTjt4RFTkvBwhwI4SsAAAYABt7+ozQhka3lgVx81yLyyAHSVgAQDAANrWKWCVq7OPGh0Zh7AAdoiABQAAA2h7t4BVrqaProtj93EKC2BHCFgAADCAnMAqbxecMC6yWcewAF6MgAUAAAOo3T2wytrk4bVxxiEjDAHwIgQsAAAYQO2dvUYoc//8D+NjeGOVIQBegIAFAAADaMt2Aavc1VXn4qJXTjQEwAsQsAAAYABt2tZjBOK4Wc3x6gOGGwLgeQhYAAAwgDa0CVg84YOvnBSThtcaAuA5CFgAADCANrR1G4GIiKitysalZ06NQVU5YwD8HQELAAAGkEsIebopIwbFx183JTIZWwA8nYAFAAADyCWE/L1jZg6Nc48ZawiApxGwAABgAG1q74nevoIheIYLjh8Xr5gzzBAATxKwAABgAOXzhXh8S5cheIZMJmL+a6fEIXsPNgZACFgAADDgVm7qNALPUpHLxGffOC32GVtvDKDsCVgAADDAVm9yAovnVledi6+eOyNmjKkzBlDWBCwAABhgq53A4gU01FTEf/7TjNh75CBjAGVLwAIAgAG2ygksXkRTXWV8+/x9Yu7ERmMAZUnAAgCAAbZyoxNYvLiGmor46ltmxMtmNBkDKDsCFgAADLDl6zuiL18wBC+qujIbn3/TtDj1wBHGAMqKgAUAAAOsuzfvFBY7/iQum4l/PWVynH/8OGMA5fOxzwQAADDwHlqz3QjssEwm4vzjxsYHTp4YuWzGIEDJE7AAACABS9cKWOy8Mw8fFd88b2Y0N1QaAyhpAhYAACRg6eMCFrtm7sTG+OE7Z8d+ExqMAZQsAQsAABLwoIDFSzC8sSq+ed4+ccYhI40BlCQBCwAAErB6U2ds2tZjCHZZZS4Tl7x6UnzidXtHTaWnekBp8VENAAAScd+qbUbgJXvFnGFx+QWzYmJLrTGAkiFgAQBAIu5Z0WYE+sXUUXXx43fNjjMPH2UMoCQIWAAAkIhFK5zAov9UV2bjAydPjM+9aVoMHlRhEKCoCVgAAJCIe1dti3y+YAj61bH7DI2fvHu/mDux0RhA0RKwAAAgEdu7+mLpWq9GSP8bMbgqvnnezHjbcWMjl80YBCg6AhYAACTktmVbjcBukctm4u3Hj4sfvWt2zBpXbxCgqAhYAACQkFuXtRqB3WrvkYPi8gv2jQ+fMjkGVecMAhQFAQsAABJy+8Ot0dPnPljs5ieCmYhTDxoRv3jfnDhuVrNBgPQ/bpkAAADS0dGdj3tXthmCPaKlsSo++8ap8cWzp8eIwVUGAZIlYAEAQGJuWeoyQvasI6c3xZUXzokzDx8VFTk3eQfSI2ABAEBiFjy4xQjscfU1ufjAyRPjivfsF0fNaDIIkBQBCwAAEnPfqm2xtrXbEAyIiS21cdlZ0+Mbb50Z00bVGQRIgoAFAACJKRQi/rJ4syEYUAfuNTh++K7Z8fEzpkRzQ6VBgAElYAEAQIL+fP8mIzDwTxgzESfNbYn/ef/cOPeYMVFd6SkkMEAfj0wAAADpue3h1tja0WsIklBXnYt//ofx8T/vnxtnHj4qqio8lQT2LB91AAAgQb19hbjxgS2GICkjBlfFB06eGL94/5w49aARkct6xUJgzxCwAAAgUb+/Z4MRSNKoIdXx4VMmx5UX7hcnz2sJHQvY3QQsAABI1I0Pbokt7S4jJF0TW2rjY6dPiZ+8Z784Yd/myAhZwG4iYAEAQKJ6+wrxO6ewKAJTRgyKS8+cGt97+6w4fNoQIQvodwIWAAAk7Nd3rTcCRWP2+Ib48jkznrrZe41XLQT6iY8mAACQsHtXbovl6zsMQVEZ11wTHzh5Yvz64nnx7hPHx/DGKqMAL4mABQAAiXMKi2LVVFcZ57xsTPzqornxkdP2ir1GDDIKsEsELAAASNxVt66L7t68IShaVRXZeM0Bw+PKC/eL7759Vhw1o8l9soCdImABAEDiNrf3xB/v3WQISsKcCQ1x2VnT46r3PXGfrGr3yQJ2gI8UAABQBK64+XEjUFImDHvyPlkffOI+WS3ukwW8AAELAACKwN2PtsXi1e2GoOQMrX/iPllXXzQ3Pn7GFPfJAp6TgAUAAEXiSqewKGFVFdk4aW5LXPGe/eJL50yPg/YabBTgKQIWAAAUid8s3BAb2roNQUnLZCKOmNYUX3/rzPjJu2fHK+e1RGXOHd+h3AlYAABQJLp78/HDv60xBGVj6qi6+LfTp8RvL9k/zj9+XAypqzAKlCkBCwAAisgVNz8erdt7DUFZGVpfGecfNzauvWT/+PgZU2KK+2RB2RGwAACgiHR05+OnN7kXFuXpqftkXbhffPfts+KoGU2RcXUhlAUBCwAAisyPF6yJ7d19hqCszZnQEJedNT2uet/cOPPwUVFT6ektlDLv4QAAUGRat/fGTxc4hQUREROG1cQHTp4Y13xwXrzjhHExvLHKKFCCBCwAAChCl9/wmHthwdMMra+Mtx47Nn5zyf7xxbOnx8FTBru8EEqIgAUAAEWorbM3vvfn1YaAv3+Sm4k4cnpTfO3cmfHz986JMw8fFbVVnvpC0b9vmwAAAIrTT256PB7f0mUIeB4TW2rjAydPjN//ywHx4VMmx6ThtUaBIiVgAQBAkeruzcfX/7DKEPAi6qpzcepBI+LKC+fE186dGSfs2xzZrOsLoZhUmAAAAIrXNXetjzMPHxlTR9UZA15ENhNx8JTBcfCUwfHohs74yYI1cfWd62N7l1f1hOTff00AAADFK58vxKd/+UgUCraAnTFhWE1c/KpJ8bsP7R8fPmVyTGxxeSGkTMACAIAit/DRtrjmrvWGgF3wv5cX/uy9T1xeeNSMJq9eCAlyCSEAAJSAL/720Th6ZlM01PgSH3bF0y8vXPr49vjhjWvitws3RHdv3jiQwvuoCQAAoPht2tYTX7tupSGgH0wZOSg+etpe8ZuL58X5x4+LwYOEYRhoAhYAAJSIK25eG/eu3GYI6CdD6yvj/OPGxq8vnhcfOHlijBpSbRQYIAIWAACUiHy+EB/92VKXPEE/G1SVizMPHxW/umhufPL1e8f00V71E/Y0AQsAAErII+s6XEoIu0kum4kT9xsWP3rX7Pju22fFgXsNNgrsIQIWAACUmP/662Nx1/KthoDdaM6EhvjGW2fGd98+K46a0WQQ2M0ELAAAKDH5QsTHfr4sunpcSgi725wJDXHZWdPje0+GrEzGJrA7CFgAAFCCHt3QGZ//9XJDwB6y35Mh68fvmh0n7NssZEE/E7AAAKBE/eyWtfGbhRsMAXvQ1FF1cemZU+On79kvTp7XEtmskgX9QcACAIAS9slfPBzL13cYAvawKSMGxcdOnxL/8745cepBIyInZMFLImABAEAJ297dF//yk4eiu9f9sGAgjG2uiQ+fMjl+8b458ZoDhkdFTsiCXSFgAQBAiVvyWHv8x28eNQQMoLHNNfGR0/aKX7x/bpw0tyUcyIKdI2ABAEAZuOKmx+Pnt6w1BAywMU3V8fEzpsSVF85xs3fYCQIWAACUiUuvfiRuf3irISABk4bXxqVnTo0fvGPfOGpGk0HgRQhYAABQJnr7CnHRDx+IVRs7jQGJ2GdsfVx21vT47ttnxf6TGg0Cz0PAAgCAMtK6vTcu/MGS2NbZZwxIyJwJDfGtt+0TXzt3ZkwfXWcQ+DsCFgAAlJmH13XER65cGvmCLSA1B08ZHP/9ztnxydfvHeOH1RgEniRgAQBAGfrz/Zvia9etMASk+EQ9E3HifsPi5++dEx8/Y0qMaao2Ct4vTAAAAOXpu39eHb+7e4MhIFG5bCZOmtsSP3/fnHj3ieOjviZnFMqWgAUAAGWqUIj46M+Wxb0rtxkDElZVkY1zXjYmrr5oXpzzsjFRmcsYhbIjYAEAQBnr7s3HRT98IDa0dRsDEjd4UEW8+8Tx8dP37BdHzWgyCGVFwAIAgDK3trU73vHdxdHW2WsMKAITW2rjsrOmx+UXzIrZ4xsMQlkQsAAAgFj6+PZ4/389EN29eWNAkZg9viG+9/ZZcemZU2O0G71T4gQsAAAgIiJuf3hrXPLjhyKfLxgDikQmE3HCvs3x8/c+caP3umo3eqc0CVgAAMBT/nz/pvjUrx4xBBSZ6sr/u9H7mYePilzWjd4pLQIWAADwDD+/ZW18/Q8rDQFFaEhdRXzg5Inx43fPjgMmNxqEkiFgAQAAz/LNP66Kb/5xlSGgSE0ZMSi+ed4+8cWzp8fIIe6PRfETsAAAgOf09T+sjG/9ScSCYnbk9Ka46n1z4vzjx0VVhQRA8fLWCwAAPK+vXbcyvvvn1YaAIlZTmY3zjxsbP3n37Dhk78EGoSgJWAAAwAv6z9+tiMtvELGg2E1sqY2vvmVmfOz0KTF4UIVBKCoCFgAA8KK+dO2K+NK1KwwBJeDkeS3x8/fOiZPntRiDoiFgAQAAO+TyG1bHp375cOQLtoBiN7S+Mj52+pT40jnTY8TgKoOQPAELAADYYVfevDb+9acPRU+figWl4IhpTXHlhXPi1ANHGIOkCVgAAMBO+d3dG+Jd31sc7V19xoASUF+Tiw+fOjm+8k8zoqXRaSzSJGABAAA77dZlrfGO7y6OTdt6jAEl4tCpQ+LH75odL5vRZAySI2ABAAC7ZNGKtjj7q4vi4XUdxoASMbS+Mr5w1vT4+BlTYlBVziAkQ8ACAAB22erNXXHO1xbFzQ+1GgNKyElzW+In754dM8fWG4MkCFgAAMBLsq2zL955+eK44qbHjQElZGxzTVz+9llxzsvGRCZjDwaWgAUAALxk+XwhPv2rR+Jz1yyPvrxXKIRSUZHLxLtPHB+Xnjk16mtcUsjAEbAAAIB+86Mb18TbvnV/bGxzc3coJcfPao6fvme/mDXOJYUMDAELAADoV3ct3xpv+so9cd+qbcaAEjJqSHV8+237xKkHjjAGe5yABQAA9Lu1rd1x7jfui6tuW2sMKCFVFdn48KmT48OnTI7KnBtjsecIWAAAwG7R3ZuPT1z1cHziqoejuzdvECghpx40Ir527sxoqqs0BnuEgAUAAOxWV922Ns788j2x9PHtxoASMm9SY/zoXbNjn7Hui8XuJ2ABAAC73cPrOuLsry2KX92xzhhQQkYMropvvW2fOGF2szHYrQQsAABgj+jozsf8ny2LD/7wwWjr7DUIlIiaymx8+vVT4/zjxxmD3UbAAgAA9qg/3Lsx3vyVRV6lEEpIJhNx/nFj40OvnhzZrJu70/8ELAAAYI9bsaEzzvnavfGla1dET1/BIFAiTj9kRHz5nOlRV50zBv1KwAIAAAZEX74Ql9+wOt7y9Xtj+foOg0CJOHTvIfHN8/aJ5gavUEj/EbAAAIABdd+qbfH6L90Tl9+wOvIOY0FJmDGmLr5/wb4xrrnGGPQLAQsAABhw3b35+NK1K+KC79wfqzd3GQRKwOim6vj22/aJycNrjcFLJmABAADJuG1Za7z2CwufOI3lOBYUvZbGqvju22fFvuMbjMFLImABAABJ6ep54jTWm76yKJY81m4QKHKNtRXx9XNnxsFTBhuDXSZgAQAASVryWHuc/dVF8c0/rvJKhVDkaquycdlZ0+PwaUOMwS4RsAAAgGT19BXi639YGW/88j2xcHmbQaCIVVdm4/NvmhaHTR1iDHaagAUAACRv6drtce43742PXLk0Nm3rMQgUqaqKbHzhrOlx5PQmY7BTBCwAAKAoFAoR19y5Pk79j4Xx4wVrwj3eoThV5jLx2TdOFbHYKQIWAABQVLZ29MZnr14eb/n6vfHgGjd5h2JUVZGNz5w5NQ7Z243d2TECFgAAUJTuWdEWZ375nvjIlUtjc7vLCqHYVFc+cWP3o2Y4icWLE7AAAICilX/yssJTPv/EZYV9riuEolJVkY3PvnFavEzE4kUIWAAAQNH738sKT7/s7ljw4BaDQBGpzGXiM2+cFsfMHGoMnpeABQAAlIzl6zvind9bHB/47wdi1cZOg0CRqMxl4tNnTo1j9hGxeG4CFgAAUHL+dN+mOO0LC+Pzv14erdt7DQJFoDKXiUvfIGLx3AQsAACgJPX0FeKHf1sTr/7cXXH5DaujuzdvFEhcRS4Tn37D1Dh4ilcn5JkELAAAoKRt7eiNL127Il79ubviqlvXhvu8Q9oqc5n43JumxbRRdcbgKQIWAABQFta2dscnfvFwnP3VRXHzQ60GgYTVVefii+dMj1FDqo1BRAhYAABAmblv1bZ4x3fvj7d8/d64/eGtBoFEDW+siq+/dWYMra80BgIWAABQnhY+2hZv+9Z98e7Ll8SSx9oNAgka11wTn3vjtKjMZYxR5gQsAACgrP3tgc3xxv+8Jy78wZJ4cI2QBamZM7EhPnDyJEOUOQELAAAoe4VCxF8Wb44zv3xPXPyjB2Plxk6jQEJOP2REnHrgCEOUMQELAADgSflCxHWLNsZpX1gYn/jFw7Fua7dRIBGXvHpSzJnYYIgyJWABAAD8nd6+Qlx169p45WfujE/84uHY2NZjFBhgFblMfObMqdHSWGWMMiRgAQAAPI+eJ0PWqz9/V3zl9ytiS3uvUWAADWuoik+8bkpk3dO97AhYAAAAL2J7V1985/rVcdJn7ojPXbPcpYUwgA6cPDjefORoQ5QZAQsAAGAHdXTn40c3rolXfubO+MiVS93sHQbIBSeMi2mj6gxRRgQsAACAndTTV4hr7lwfp31hYXzkyqWxfH2HUWAPqqrIxidfv3dUV8oa5cIjDQAAsIt6nwxZr/3CwrjwB0tiyWPtRoE9ZNLw2njPiRMMUSYELAAAgJcoX4j4y+LN8ab/vCc+8N8PCFmwh7zu0JFx0F6DDVEGBCwAAIB+ki9E/Om+TXHml++JC75zf9yzos0osBtlMhH/esrkqKqQN0qdRxgAAGA3uGVpa5zztXvj/G/fH39ZvDnyBZvA7jCuuSbecvQYQ5S4ChMAAADsPrcta43blrXG8MaqOOWgEXHGISOiqa7SMNCP/unoMfG7ezbEI+u8oEKpcgILAABgD1i3tTu+8YeVceKn7oiLf/Rg3LK01SjQTypzmfjX10yOTMYWpUrAAgAA2IN6+gpx3aKNccF37o83/uc98cvb10VXT94w8BLNm9QYJ81tMUSJErAAAAAGyOLV7fFvP18WJ3zy9vjELx6Oh13+BC/Ju/5xfNRWSR2lyKMKAAAwwLZ19sVVt66NMy5bGO/83uJY8OCWKLjpO+y0lsaqOPPwUYYoQW7iDgAAkIh8IWLBg1tiwYNbYlxzTbz+sJHxmgNGOFECO+Gcl42J/7ltXWzc1mOMEuKjIAAAQIJWbuyMz169PP7hk7fH565ZHo9t7jIK7IC66lyce8xYQ5QYAQsAACBh7V198aMb18SrPntnXPiDJV69EHbAaw8eEeOH1RiihAhYAAAARSBfiPjL4s1xwXfujzO/fE9cc+f66O716oXwXCpymTj/uHGGKCECFgAAQJFZ8lh7fOTKpXHSZ+6Mb/1pVWxp7zUK/J1/nN0c45qdwioVAhYAAECR2tjWE1+7bmWc+Ok74iNXLo2H13UYBZ6UzWbi7JeNNkSpPJ4mAAAAKG7dvfm45s71ccZlC+OC79wff12y2SgQEa+aNzxGDqk2RAkQsAAAAEpEvhBxy9LWeM/3l8SZX74nfn3X+ujtKxiGslWRy8QbDx9liBIgYAEAAJSgJY+1x/+7Ymm84tI74xt/XBVbO9wni/J02sEjoqmu0hBFTsACAAAoYRvauuMbf1gZJ116Z/zHr5fHmi1dRqGs1FRm47UHjzBEkROwAAAAykB7V1/899/WxCs/c2dc+IMlcc+KNqNQNl578IioyGUMUcQELAAAgDKSL0T8ZfHmOOdr98ZbvnFvXLdoY+Tz7pNFaWtprIqjpjcZoohVmAAAAKA8LVzeFguXt8XY5pp4w2Ej45QDR0RNpXMOlKbTDxkZf7pvkyGKlI9MAAAAZW7Vxs747NXL4xWX3hFfvW5lbNzWYxRKzkF7DY6JLbWGKFICFgAAABERsaW9N779p1Xxik/fER+5cmms2NBpFEpGJhNu5l7EBCwAAACeoaevENfcuT5O+8LC+PAVS2PZ2u1GoSScPK8lqiqkkGLkUQMAAOA59eUL8Zu71scZX7zbKxdSEhprK+LwqUMMUYQELAAAAF5Q4e9eufCvSzZHwQsXUqRePneYEYqQVyEEAABghy1c3hbvWb4kZo6tj3OPGRNHzxgamYxdKB5HTW+K+ppcbOvsM0YRcQILAACAnXb/qm3x/v96IM766qK4dVmrQSgaVRXZOG5WsyGKjIAFAADALrtv1bZ4+7fvj7d8495YuNw9sigOr5jjMsJiI2ABAADwki1c3hbnfvPeuOiHD8Yj6zoMQtL2nzw4hjVUGaKICFgAAAD0i0Ih4o/3bozTL1sYF//owVi9qdMoJCmbiThy+hBDFNNjZgIAAAD6U74Qcd2ijXHaF+6Oz/96ebR19hqF5Bw1Y6gRioiABQAAwG7R3ZuPH/5tTbzqs3fFjxesiXzBJqTjkCmDo6ZSFikWHikAAAB2q9btvfHZq5fHm79yTyxa4UbvpKG6MhsH7jXYEEVCwAIAAGCPWLy6Pc75+r3xkSuXxub2HoMw4I6a3mSEIiFgAQAAsMcUChHX3Lk+Tv2PhXHlzWsj77pCBtCRM5oik7FDMRCwAAAA2ONat/fGp375cLzpK4ti8ep2gzAghjdWxaSWWkMUAQELAACAAbPksfY466uL4kvXroiePqex2PP2n9xohCIgYAEAADCg+vKFuPyG1fHG/7wnljzmNBZ71v6T3Mi9GAhYAAAAJGHp49ufOo3V6zQWe8j+k5zAKgYCFgAAAMno7XviNNZbvnFvLF/fYRB2u+aGypgwrMYQiROwAAAASM69K7fFG758T/zoxjVRcBiL3Wz/yS4jTJ2ABQAAQJK6evLxuWuWxzu+e3+sbe02CLvNPJcRJk/AAgAAIGm3LG2N0y9bGL+5a70x2C1mjqkzQuIELAAAAJK3rbMvPnzF0vi3ny+Lrp68QehX44fVxqDqnCESJmABAABQNH55+7o48z/viYfXucE7/SebiZg+2imspB8jEwAAAFBMHlnXEWd/dVFct2ijMeg3AlbaBCwAAACKTntXX1zy4wfjS9euiLxXKaQfzHAfrKQJWAAAABSlQiHi8htWx3t/sCTau/oMwkviBFbaBCwAAACK2l+XbI5zv3FfrNvabQx22aSW2qiulElS5ZEBAACg6D24pj3e/JVFsfTx7cZgl2SzmRg3tMYQqT4+JgAAAKAUrN/aHW/95n2x8NE2Y7BLxg8TsFIlYAEAAFAytnb0xju+c3/cuqzVGOy0iS21RkiUgAUAAEBJ6ezJx3u+vyRuWSpisXOcwEqXgAUAAEDJ6erJx4U/WBI3PyRisePGD3MCK1UCFgAAACWpqycf7/2vJe6JxQ6b4ARWsgQsAAAASlZXTz4u/P6SWLbWqxPy4prqKqOhpsIQCRKwAAAAKGlbO3rjnd9bHI9v6TIGL2rE4CojJEjAAgAAoOStbe2Od35vcbR39RmDF9QiYCVJwAIAAKAsPLyuIz5yxdLIF2zB82tpELBSJGABAABQNq6/f1N860+rDMHzammsNEKCBCwAAADKyrf+uDJuXdZqCJ7T8MZqIyRIwAIAAKCs5AsRH7liaWxp7zUGz+IEVpoELAAAAMrOuq3d8W8/X2oInqWl0T2wUiRgAQAAUJZuWLw5/uf2dYbgGZrqnMBKkYAFAABA2fr8NctjzZYuQ/CU+pqcERIkYAEAAFC22rv64mM/XxaFgi14Qn11LjIZO6RGwAIAAKCs3bK0NX5/zwZDEBER2WwmaqucwkrucTEBAAAA5e6y3z4anT15QxAREQ0uI0yOgAUAAEDZW9vaHT+6cY0hiIiIhpoKIyRGwAIAAICI+P4Nj0V7V58hiPpaJ7BSI2ABAABARLR19sZVt641BFFf7QRWagQsAAAAeNIP/7Ymevq8JGG5q8x5GcLUCFgAAADwpHVbu+MPizYaosxVVAhYqRGwAAAA4GmuuXO9EcpcRVbASo2ABQAAAE9zy9ItsW5rtyHKmICVHgELAAAAniZfiPjd3RsMUcYqc3JJajwiAAAA8Hf+snizEcpYLmeD1AhYAAAA8HfuXtEW7V19hihTFVm5JDUeEQAAAPg7vX2FuP3hrYYoU64gTI+HBAAAAJ7DbctajVCm8gUbpEbAAgAAgOeweHW7EcpUr4KVHAELAAAAnsODa9qdxClTfR745AhYAAAA8Bzau/pi9aZOQ5Shvj4BKzUCFgAAADyP5es7jFCGnMBKj4AFAAAAz+PxLd1GKENdvXkjJEbAAgAAgOexbmuXEcpQR7eAlRoBCwAAAJ7H2lYnsMpRR3efERIjYAEAAMDz2NrRa4Qy5ARWegQsAAAAeB5dPUJGOdruBFZyBCwAAEhALpsxAiSoU8AqS9u7BKzUVJgAAAD2vLrqXMyd2Bj7TWiIuRMbYsrIQXH0x24zDCSm06VkZcmlo+kRsAAAYICcetDwOHrm0IiI6PaS7ZCkjMORZaerJ+8eWAlyCSEAAAyA9q6+eP9/PxBfunZF5Av2gFRVVXjaXG62bHf6KkXeEwEAYIAUChGX37A6LvrhA9HufiuQpGoBq+y0bu8xQoJcQggAAAPs+vs2xaPrO2LCsJp4dEOnQSAhQ+o8bS43rU5gJUlKBgCABKza1BX//c7Zccw+Q40BCRnWUGWEMrO+zQmsFAlYAACQiLrqXHz2jdPi/OPGunE0JKK5odIIZWb91m4jJEjAAgCAlL5Az0Scf/y4uOys6S5dggRMbKk1QpkRsBL9/GgCAABIz5HTm+LKC+fEoVOHGAMG0CQBq+ysbRWwUiRgAQBAoprrK+PLZ0+Pd5wwLnJZ1xTCnlZdmY1xzTWGKDNOYKVJwAIAgJS/YM9m4q3Hjo3vvX1WjPVEGvaomWPqoyInHpebxzZ3GSHFz4cmAACA9M0aVx8/fOe+cfysZmPAHjJ7fL0RykxnTz42bnMCK0UCFgAAFImGmor4zBunxsfPmBK1Vb6Uh93toCmDjVBmVm3qjELBDinyWQ8AAIrMSXNb4r/+eXbsM9bpENhdaquysf+kRkOUmVUbO42QKAELAACK0OThtXH5BbPi3SeOj6oKX9ZDfztk7yHet8rQqk3uf5Uq740AAFCkctlMnPOyMfGTd8+O2eMbDAL96OVzhhmhDD26ocMIiRKwAACgyE1sqY3vvn1WfPiUye6NBf2gviYXR05rMkQZWrZ2uxES5bMbAACUwhf2mYhTDxoRV7xnvzhwshtPw0vxynnDo7rS0+Vy9Mg6J7CS/TxnAgAAKB1jhtbE1946My565USnsWBXniRnIs44dKQhytCGtu5o3d5riFTfN00AAACl9wT8DYeNip+/d04cN6vZILATDp/WFBOG1RiiDD3s9FXan9tMAAAApWnkkOr47BunxjfOmxl7jRhkENgB5x071ghlavHqdiMkTMACAIASd+DkwfHjd82Oi145MQZV5wwCz+PI6U0xa1y9IcrUfSu3GSFhAhYAAJSBilwm3nDYqPjF++bEyfNaDAJ/J5fNxDv/cbwhyti9qwSslAlYAABQRloaq+Jjp0+Jb563j8sK4Wled+jI2Huk94lytbGtJx7f0mWIhAlYAABQhg6Y3Bg/ftfsuPhVk2JofaVBKGvDG6vi7cePM0QZu8/pq+QJWAAAUKYqcpl43aEj4+qL5sW7Txwf9TXuj0X5yWQi/t+pe3n7L3OLVrYZIXECFgAAlLnaqmyc87Ix8T/vnxuvO3RkVOYyRqFsnHHIyDh82hBDlDknsNInYAEAABERMbS+Mi5+1aT45QfmxqkHjYhsVsiitO07viHe+4oJhihzhULEfSvbDZE4AQsAAHiGkUOq48OnTI7//ud949CpQwxCSWpprIrPv2lqVFV4WlzuHt3QEW2dvYZInPdUAADgOU0fXRdf+acZcfkFs+LI6U2RcSCLElFfk4svnj09hjVUGYNYtNLlg8VAwAIAAF7Q7PEN8cWzp8dP371fnDyvJXIuLaSIVVdm4wtnTY/po+uMQURE3PLQFiMUAQELAADYIVNGDoqPnT4lfvbeOfGq/YdHhZu9U2RqKrPx+TdNi/0nNRqDiHji/le3LG01RBEQsAAAgJ0yYVhNzH/tXvGrD8yNMw8fFTWVnlaQvkFVubjs7OlxmPu68TQPPt4eG7f1GKII+EwDAADskpFDquMDJ0+Mqy+aF+cdOzaa6yuNQpJaGqvi2+fvEwftNdgYPMPNDzl9VSwqTAAAALwUzQ2VccEJ4+Ktx46NP9+/Ka66da1LckjG1FF1cdlZ02LkkGpj8Cw3u/9V0RCwAACAflGZy8QJ+zbHCfs2x32rtsVPb3o8fn/PxujuzRuHAXHyvJb40KsnR22Vi494tq6efNy1vM0QRULAAgAA+t0+Y+vjY6dPiQtfPiF+dce6uPLmtbFmS5dh2COqK7Nx0ckT49SDRhiD53XnI1sF9iIiYAEAALvN0PrKOOdlY+LNR46OvyzZHFffsT7+9sDm6O0rGIfdYs6Ehvjoa6fEhGE1xuAF3exS56IiYAEAALtdLpuJY2YOjWNmDo3N7T1x7d0b4uo71seSx9qNQ7+oqczGO/9xfLz+sFGRzdiDF7fgwS1GKCICFgAAsEc11VXGGw4bFW84bFQ8sq4jfr9oY/zq9nUuMWSXHTWjKT74ykkxusmN2tkxj27ojGVrtxuiiAhYAADAgJk0vDbOP25snHfMmFjw0Ja45s71ccPizdHV4740vLgpIwfFB06eGAftNdgY7JQ/LNpohCIjYAEAAAMum83EEdOa4ohpTdHVk4+/LNkcv75rfSx4cIv7ZfEsIwZXxXnHjo3XHDA8sq4XZBcIWMVHwAIAAJJSXZmNE/ZtjhP2bY5N23ri9/dsjGvv3hCLVrZFQcsqa2OaquOso8bEaw4cHpU54Ypds2pjZzywxv33io2ABQAAJGtofWW8/rCR8frDRsbqzV1x7cINce3dG9y7psxMGTEozn7Z6Dhxv2GRc+KKl+iP920yQhESsAAAgKIwpqk6zj1mTJx7zJhYvbkrbnloS/xlyea46cEt0eMyw5KTzUQcuNfgOPPwUXHEtKbI6Fb0E5cPFicBCwAAKDpjmqrj1INGxKkHjYhtnX1x04NPxKwbH9wcW9p7DVTEJgyriZfPaYmT57V4VUH63ZotXXH/6m2GKEICFgAAUNTqa3JxwuzmOGF2c+Tzhbhn5bb465LNcevS1lj8WHvk805npa65vjL+YfawePmcYTFrXL1B2G3+dO8m99IrUgIWAABQMrLZTMyZ0BBzJjRE/GNEe1df3PnI1rjzka1xxyNbY/Hq9ugTtJIwqDoXR88cGq+YMywOnjLYva3YI669e4MRipSABQAAlKy66lwcOb0pjpzeFBFPBK2Fy9vijqeC1rbodf+sPSKTiZg2qi4OnTokDt17SMyZ0BAVXkmQPWjp2u1x3yqXDxYrAQsAACgbddW5OHzakDh82pCIiOjtK8SKjZ2xePW2WLy6Pe5fvS3uX9Ue3b15Y/WDIXUVceDkwXHwlMFxxPSmGN5YZRQGzK9uX2eEIiZgAQAA5fuEKJeJycNrY/Lw2jhpbktERHT35uPBNdtj8er2WLx6Wyx5rD0e3dARHd2i1gupqsjG1FGDYsaYupgxpj5mjqmLKSPrwpWBpKC3rxC/XejywaL+eG0CAACA/1NVkY1Z4+qfvJn4iIiIKBQi1rZ2xfL1nbFiQ0c8vL4jVmzoiOXrO2Nta1fZ3RR6UHUuJg+vjZlj6mPGmLqYPqYu9ho+yCWBJOtvD2yOjdt6DFHEBCwAAIAXkclEjBxSHSOHVMchew9+xo919uRj+fqOWLOlKx7f0hXrWrtjfVvPE9/e2h3rWruL8pLEYQ1VMXJIVYwaUh2jhlTH+GE1MX5YbUwYVhMtLgWkyPzqjvVGKHICFgAAwEtQU5mN6aPrYvrouuf9OZvbe56KWVs7emNrR2+0dfTF1o7e2NbZG1uf/Hbbkz/W0Z2PfKEQ2zr7dvnvVVWRjZrKbEREVFdmo6oiG421uRhSVxmDayti8KCKGDKoIhoHVcTgQZVPfLu2IprqK6OloTKqKrIeXErCpm098bcHNhuiyAlYAAAAu1lTXWU01VXGtFF1u/TrC4WIts7ep7697clvR0RU5LJRW/VEbHp6tAKe8JuFG7zaaAkQsAAAABKXyUQ01v7f07fBgzyVgx31S68+WBKkeQAAAKAk3basNZat3W6IEiBgAQAAACXpJzc9boQSIWABAAAAJefxLV3xl8Vu3l4qBCwAAACg5Fx5y9roy7t5e6kQsAAAAICS0t2bd/P2EiNgAQAAACXl2rs3xqZtPYYoIQIWAAAAUFKuuNnN20uNgAUAAACUjLsfbYv7V20zRIkRsAAAAICS8d0/rzZCCRKwAAAAgJLw8LqOuPGBzYYoQQIWAAAAUBK+c/2qyBfsUIoELAAAAKDordjQGb+/Z6MhSpSABQAAABS9r1y3IvocvypZAhYAAABQ1B56fHv8cZHTV6VMwAIAAACK2hd/+6h7X5U4AQsAAAAoWrcsbY0FD24xRIkTsAAAAICi1JcvxOd/vdwQZUDAAgAAAIrSTxY8Hksf326IMiBgAQAAAEVn47ae+MYfVxqiTAhYAAAAQNH5zNWPxLbOPkOUCQELAAAAKCp/e2BzXHfPRkOUEQELAAAAKBrtXX3x77942BBlRsACAAAAisYXfv1orG3tNkSZEbAAAACAovDn+zfFVbetNUQZErAAAACA5G3a1uPSwTImYAEAAABJyxci/t8VS2Pjth5jlCkBCwAAAEjad65fFTc9tMUQZUzAAgAAAJJ127LW+MYfVxmizAlYAAAAQJLWtnbHJT9+KPL5gjHKnIAFAAAAJKe7Nx8X/fCB2NzuvlcIWAAAAEBiCoWI+T9bFveu3GYMIkLAAgAAABLzzT+ujGvv3mAIniJgAQAAAMn4zV3r45t/ctN2nknAAgAAAJJw27LW+NhVD0fBPdv5OwIWAAAAMOAWr26P9/7g/7d351F2noV5wJ/vzmhmtFneFzAYEkEAE+SFxRqbEEJKEpqmZKU9SUvSJjntSXMKbQoGmmbCiW3JGNywnLbACQ7LCWCWsBmCTRDGlmxjaSRZsmUhS7JlydYy2mZGM3Nn7n37h2QjY1vWMvv8fufoXM1dvvt9z/vekeaZb3kw9ZGmMHgaBRYAAAAwoTbvGsif3/RADtUbwuAZKbAAAACACbN190D+0yfvz96+YWHwrBRYAAAAwITYunsgf/qJ+7Onty4MjkmBBQAAAIw75RUnolUEAAAAwHjasmsgf/rJ9enpddggx8ceWAAAAMC4UV5xMuyBBQAAAIyLNQ/35p2f2ZD9/SPC4IQosAAAAIAx9/31e/PeL/w4Q8NNYXDCFFgAAADAmPqH5Y/lg9/cmmaRBSdHgQUAAACMiWaz5IZvbc3nlz8uDE6JAgsAAAAYdfWRZv7y5k25dW2PMDhlCiwAAABgVPX0Duedn9mQddv6hMGoUGABAAAAo6Z768Fc/Q8/zu6DdWEwahRYAAAAwCkrJfn8isdy4y0PZ6ThbO2MLgUWAAAAcEr6hxp5/5cfyq33Od8VY0OBBQAAAJy0rbsH8heffTCbdw0IgzGjwAIAAABOyjdX7c61/7g5g8NNYTCmFFgAAADACekbbGTp17fkW927hcG4UGABAAAAx+2uHx/IX395U3YecJVBxo8CCwAAAHhOQ8PN/L/vPZpP3749TRcZZJwpsAAAAIBjWretL//r5k3ZutuJ2pkYCiwAAADgGdVHmvnk97fnU8u2p2G3KyaQAgsAAAB4mh9u2Jfrv7E12/cOCoMJp8ACAAAAnrR190A++K2tufPB/cJg0lBgAQAAAOkdHMmnlu3I5+7YkeGGwwWZXBRYAAAAMIM1myX/uHJXPvZP27Kvf1ggTEoKLAAAmASGG8287ws/zn9844X5mXNnCwQYF8vu35uPfXdbHtp5SBhMagosAACYBEpJvr16T76zZk9e/7Iz8qe/dGFeceE8wQBjYu0jvfnwdx7Jqi0HhcGUoMACAIBJpJTk9gf25fYH9uV1Cxfkz978wrzyBYosYHQ8tPNQPv69R3PrfT3CYEpRYAEAwCR196YDuXvTfel86en5o198fi5/8WlCAU7KI3sG839v25bvrt2TpvOzMwUpsAAAYJJbvnF/lm/cn5+7YG5+94rz8i8vPSfts2qCAZ7TpscP5dM/3JFvr96ThuaKKUyBBQAAU8SDj/Xnb766OR/77rb861efm7ctPj/nLWgTDPA0G3b051PLtue2dT0peiumAQUWAABMMfv6h3PTD7bns3fsyBtfcWb+7ZUX5JKL5gsGyOqHe3PTD7bn9gf2CYNpRYEFAABT1Eij5Nb7enLrfT152fPm5q2vPje/esnZOW22/+bDTPte8P31e/OZO3Zk3bY+gTAt+ZcNAACmgQ07+rPk61vyoVsezhtefkZ+/bJzcuVLT0+tVgkHpqm9fcP5+spd+eJdO/P4/iGBMK0psAAAYBqpjzSf3CvrvAVt+bVLzslvv/bcPP/MDuHANLFhR3++dPfOfKt7d4aGmwJhRlBgAQDANLXzQD03/WB7Pn379lz24tPy5lednV9+5Vk5fa4fA2CqqY808711e/P5FY/nvkd6BcKM418uAACY5poluXfzwdy7+WCWfH1LXvXCefkXP39WfnXR2Tlj7iwBwSS2eddAvrlqd752767s6x8WCDNWa5KRKLIAAGBGaDZLVm/tzeqtvfnbbz+SK16yIG9+1dl5w8vPyNz2FgHBJLD7YD23rN6Tb6zclc27BgQCyXBrknoUWAAAMOPUR5q5/YF9uf2BfWlrreXVP3Na3vDyM/MLLz8j5y1oExCM8+fx++v35pvdu7PixwfSbBahwFEfkdaU1FNljiwAAGBm//C8fOP+LN+4P9d9LfnZ8+bk9S87I7/w8jOy6IXzU7mYIYy6oeFm7nnoQG69ryffX783/UMNocAzqTLUmiqutQkAADzFQzsP5aGdh3LTD7bnnNPa8vqXnZErf+70vOZnFmReh0MN4WT1DTZy+4Z9+d66nizfuN9VBOF4lAy1JqWe+HUKAADwzHYfrOcr9+zMV+7ZmZZalYsvnJfXLVyQ1y1ckFe9cH5aW/w8AcfS0zucOx7cl++t25t7HjqQ+ojSCk5QvTWp7IEFAAAcl0azZO0jvVn7SG8+8c+PpmNWLYsumn+k0Do9L3veXIcb4nPSLNn42KHcvmFfbn9gbzbs6E9xSis4BWWoNckBQQAAACdjcLiZuzcdyN2bDiR5JHPbW/LKF8zLJS86LZdcND+Xvmh+2lprgmLa27538MnPwvKN+53PCkZTVe1vrZIeRTAAADAa+ocaRxVaScesWl75gnm59EWnZdFF87PoovmZ2+4cWkxtpSRbdg9kzcO9Wb31YFZuOZgd+xzcBGP3oUtPa6myJxosAABgDAwON3Pv5oO5d/PBJEmtVmXheXNy8YVz84rnz8vFL5iXhefNcR4tJrX6SDP3P9qf1Q8fzOqHe7Pm4d4cODQiGBg/e1qT0uMk7gAAwHhoNks2PtafjY/156s/2pUkaWut5aUXzMkrLpx3uNS6cG5efM7s1Gp+TmEC5mhJHtkzkAe292fDjv6sfaQ3D2zvd+J1mEClpKe1lFpPZRcsAABggtRHmlm3rS/rtvU9ed+ctpYsPH9OFp4/Jy85f05+9rzDtwvmtAqMUTPSKNm861A27DiUDTv6smF7fzY+diiH6s5fBZNJldLTWitlT/GLDQAmqfu39+WmH2wXxDQ1UPfbbOCZHao3nrza4dHOOa0tC8+fk5ceKbUWnj8nLzpndjpmOVE8x7bzQD2bdx3K5p0D2bzrUDY+dig/fvyQPatgSqj1tDZTHq0cQgjAJLV6a29Wb+0VBABJkt0H69l9sJ4VG/c/5f7zFrTlorNn54Vnd+Sis2fnonMO3z7vjPa0OBRxxs2RzbsG8tDOw2XVQ0dKq95B56yCqaqqlW2tVZpbE1cBAQAApq6dB+rZeaCeex468JT7Z7VUef6ZHbno7I48/8yOPO+M9lxwensuOHLrkMSpp5Rk18F6tvUMZlvPYB7dO5htewaf/NrhfzD9NJrNLa1ts2dtqQ/aZRIAAJh+hhslW3cPZOvugWd8fE57S553pNB63hmHb8+Z35bzFrTlzHmzcu6Ctsxp8wv/8TTSKNnTW8/j++t5/MDQkXJyKI/tG8r2vUN5pGfQYX8w074vzB5+uEqSS9+zvCclZ4oEAADgqWa31XLegvbDhdZpbTlr/uHbM+fNyoI5rTl9zpHbua2Z32GPrmczONzMvv7h9PQOZ1//4T97eoezt284uw8e3oPusf1D6emtp+k6Y8BP7O5e0nnu4e+uzWxNpcACAAD4aQP15jH34jpaS63K6XNas2BOaxbMmfXk3+d1tGRO++E/89pbMr+j9cjXtSfvm9fRmvZZtUl7QvpGs6R/qJHhkZLewZH0DTbSN9hI7+BIegdG0jvYSN/gE7eN9A6M5MChkfT0DWdvX92FO4CTU2VLkhwusKpqS1IukwoAAMDJazRLevqG09M3nGTgpJfT2lJlTltLarVkbntrqiqZ33H4UMb5HYe/TpK21mcuvFpqVea0H3XoY8kznsR8aKSZoeGfFEuH6s2MNJrpH2qk0Uz6BkfSaJb0DTqvFDAxSrI1OVJgVWmuK6l+WywAAAATb6RRcnDgcOG0v9/V84CZqypZlyS1JCnJfSIBAAAAYDIp1eHOqpYkzapVgQUAAADApDKrNNYmRwqsNe2v3ZSkXywAAAAATBJ9P+q4amtypMBKV9VMlfVyAQAAAGCSuC9dVTN5osBKUjWrNXIBAAAAYFKosvaJvz5ZYDWrLJcMAAAAAJNDufOJvz1ZYKVR3SkYAAAAACaD1tJ8squqjn7g0quXP5bkfBEBAAAAMIEe717SecETX9SOfqQquUs+AAAAAEyokjuO/vIpBVazFocRAgAAADChqp/qqJ66B1ajuUxEAAAAAEykZlWWHf31Uwqs7jlXrkqyU0wAAAAATJDHV1/bueboO55SYKWraib5rpwAAAAAmAilVN9OqnL0fbWnPynfERUAAAAAE6GWp3dTTyuwhuv5TpKGuAAAAAAYZ42herntp+98WoG1/sbOvUnukRcAAAAA46mkrDjSTT1F7Vme/mWRAQAAADCuSvWlZ7r7GQus1pZZX0xSpAYAAADAOGmW1hx/gfWja167LcldcgMAAABgnNy55prO7c/0QO3ZXlFV+aLcAAAAABgPVckXnu2xYxRYI19I0hQfAAAAAGOsWUrzq8/24LMWWCuv/YXHkiyTHwAAAABjqUpu677+qh3P9njtmK8u5RMiBAAAAGAslerYHdQxC6z67NO/kmS3GAEAAAAYG2VPb9+BbxzrGccssNZ3XVwvyWcFCQAAAMBYqEp106aPvGXoWM+pPddCWqp8PEkRJwAAAACjrlR/91xPec4Ca+V1nRuS/FCaAAAAAIyyZauuX/zAcz2pdjxLKlVulCcAAAAAo6mq8sHjed5xFVirr1v8tSQbxAoAAADAaKiSB1e1L77leJ5bO85FlpTqw6IFAAAAYDQ0U92Qrqp5PM+tHe9CO+rlpqTsES8AAAAAp2jX6R2Dnz3eJx93gbXixs6BKvmYfAEAAAA4JaV8ZFnXGweP9+m1E1l2s6P+v5PskzIAAAAAJ6Vkf5ld/+iJvOSECqzVXW/cn7giIQAAAAAnbemRjum41U70HeodQzcm2S1rAAAAAE5M2XOoNE/4FFUnXGCt73pjX1I+KHAAAAAATkhVu+7B66/qPdGX1U7mvRoj8z6a5HGpAwAAAHCcdnQMlv9zMi88qQJr7Q2L+lPlf8odAAAAgONSlatX3Ng5cDIvrZ3se3a3L/5Ukh9JHwAAAIDnsLK7vfNzJ/viky6w0lU1S8k7khRjAAAAAMCzKLVSe0e6qubJLqB2Ku++emnn8lLlZuMAAAAAwDMpqT63cukVd5zKMmqnuhJVrbwrySHDAQAAAMBP6Ws2q/ec6kJOucDqvubKh0uVvzIeAAAAADxFVd639vorHj3VxdRGY11esunRG1PlXqMCAAAAQJKkyj0LN23/2OgsapRc9t67XlWazXuTzDJCAAAAADPaSKmV16y+9srVo7Gw2mit1aprr1ibKh80PgAAAAAzXJVrR6u8SkaxwEqSjsG8P8n9RgkAAABgZqqSdb19+68dzWWOaoG14sbOgUatvC3JoOECAAAAmHGGSmn8waaPvGVoNBdaG+21XHvtletKlb80XgAAAAAzTFXe1b309WtGe7G1sVjX1e2LP5TkNqMGAAAAMDNUyXe7r+v8yFgse0wKrHRVzTSbb0/SY/gAAAAApr1dLY3WtydVGYuF18Zqrbuvv2pHUv2bJA1jCAAAADBtNauSf/+jD7z28bF6g9pYrn33ksW3pZQu4wgAAAAwXZX3rlra+U9j+Q7VOGxEdem7V3wpVX7LgAIAAABMK1/rXrL4N8fq0MEn1MZ+O6pyqDT/MMkDxhQAAABguigba6Xt7WNdXiXjUmAlD15/VW+zNH83yQGDCwAAADDFleyvmrW3rlz66nHpemrjtV1rll61vqR6a5K6UQYAAACYsoZTVb+76vrF43a0XW08t271ksXLkvxn4wwAAAAwJZVSVX/SvWTxbeP5prXx3sruJZ1/V1KuMd4AAAAAU0uV8v7V1y3++/F/3wlRqkuuvuvTVcofGHoAAACAKeHvu5cs/qPxOGn7T6tNzPZW5SUPbfvDKrnZ2AMAAABMblXJPy7oGPrjiSivkgnbA+uwi7vWt7UNHvxqUt5iKgAAAABMQlW5tbfvwL/a9JG3DE3YKkx0BovfuXz2YHu+neQNZgQAAADApLK8MTL3zWtvWNQ/kStRm+gUVtzYOdDWUfuNVLnHnAAAAACYHEpyd1tH7dcmurxKJkGBlSR3d11xsN4+9KYk/2x6AAAAAEy4H7Z31N58d9cVByfDylSTKZnLu+6d0xyqfyUlv2KeAAAAAEyI73QM5bdW3Ng5MFlWqDaZ0lnZ9epD9fYFv5GSr5grAAAAAOPuGws6hn5zMpVXySQrsJJkfdfF9QWzh95WUn3WnAEAAAAYN3+/oGPot5Z1vXFwsq1YNXkzK9VlVy//q5Lqr8wfAAAAgLFUfbh7yRXvSKoyKddussd3ydUr/rBK+XiSWSYTAAAAwKgaqZI/W7Wk8+OTeSWrqZDkpe9d/qY08qVUOd28AgAAADh1JemtJb+3aknndyb7ulZTJdRF777j4lpV+2qSl5hiAAAAACevSh5Ms/rNVdcvfmAqrG9tqgS7ZulV6w81m5cn1ZdNMwAAAICT9o1mx9AVU6W8SqbQHlg/UapLr17+rqS6JkmLOQcAAABwXBpVyt+s6uh8f7qq5lRa8WqqJn7Zu5f/SqnKZ5PqbPMPAAAA4Jh2JdXvdy9ZfNtUXPnaVE191dLOfxqutbwyqW4xBwEAAACe1W1pNi+dquVVMoX3wPqJUl129Yo/KcmNSeaYkwAAAABJksGkdHV3dH5gqh0y+NOq6TIih69S2PK5pCwyPwEAAIAZ7v5SK7+/+torV0+HjalNl1FZs/Sq9bW9s16TlKuT1M1TAAAAYAYaTqqlCzqGLp8u5VUyjfbAOtrl717+840qn6iS15m3AAAAwExQJd1VrfrjldcuXjUNt22a6iq1ywZX/HFJPphknmkMAAAATFOHkvL+hQ9tv+Hmm3+vMR03sJruI7jofcufX2vkuiR/MBO2FwAAAJgxSpV8qbSU/9F9zZUPT+cNnTGFziVX3/maKtXfJllsfgMAAABT3Mpaqb1j5dIr7pgJGzuz9kjqKrXLhpa/vZTqmiQXmOsAAADAFLMjJe/pXrr4M0lVZspGz8hD6hb++S3tp809/e0l+esk55v7AAAAwORW9iS5oWOo+vCKGzsHZtrWz+hzQr3qL9bMbWnt+y+pqnel5EwfBgAAAGBSqbK3KuUjszpaPnR31xUHZ24M5PJ337ugmfp/TZU/S3KuRAAAAIAJtjOlfLRtdsuHZ3Jx9QQF1lEW/vkt7fPnnP62VHl3kldIBAAAABhnm0rJR2fX8/GZeKjgs1FgPZOuUrt06K5fTyn/LckbBAIAAACMsWVVqT60avYV30pX1RTHUymwnsOi99z90lpp/oek/FEcXggAAACMnn0lubml5KMrl3beJ45np8A6Thd3rW9rHzj41lKVP0nyS0lqUgEAAABOUKNKvtdMPjncseBr67surovkuSmwTsLl//3es5ut9bekyr+LMgsAAAA4tmaSFaXk5qo0b+6+/qodIjkxCqxT9Jr33fOCRqPxOyXld5K8LkmLVAAAAGDGa5SUFbWq+nKjlpvXXNO5XSQnT4E1ii5+5/IzZ7XnTUl+uUrekuRCqQAAAMCMsbtKlpWSb9br+eb6Gzv3imR0KLDGTKkWXb3ikpZUv1hKuSpVOpOcLxcAAACYNh5PqjurqtzRrMqy1dd2rkmqIpbRp8AaR5ddvXxhKelMLZ2l5JIquTjJPMkAAADApNdXkvVV0p2SFbVmuXPlB658SCzjQ4E1kbpK7fL+5S8urbVFpVleWWq5uCp5cZIXJTlHQAAAADDudifZWqpsqZpZX1W5r2qUtSs/0LnZ3lUTR4E1SV3c9f15LfW2F7U2ai9uVs0XVKnOqpKzmqnOqlLOSnJ2Sc46Mohzk7Tl8NUQF0gPAAAAciCHr/5XL0l/klRV9qSkp6TqqaX0lKQnpdpTJY+OtDS3pD5vy9obFvWLbvL5//gTh1xYeuyaAAAAJXRFWHRkYXRlOmNyZWF0ZQAyMDIxLTA1LTA2VDE3OjM1OjQ0KzAwOjAwmR2G7gAAACV0RVh0ZGF0ZTptb2RpZnkAMjAyMS0wNS0wNlQxNzozNTo0NCswMDowMOhAPlIAAAAASUVORK5CYII=;fontStyle=1" parent="1" vertex="1">
          <mxGeometry x="272" y="200" width="60" height="60" as="geometry" />
        </mxCell>
        <mxCell id="4wnhlf1m7BTgz00R7PTS-3" style="edgeStyle=orthogonalEdgeStyle;rounded=0;orthogonalLoop=1;jettySize=auto;html=1;entryX=0;entryY=0.5;entryDx=0;entryDy=0;fontColor=#FFFFFF;endArrow=block;endFill=1;strokeWidth=3;exitX=1;exitY=0.5;exitDx=0;exitDy=0;exitPerimeter=0;" parent="1" source="EOyo4fcmfA98YA7bWsMf-3" target="4wnhlf1m7BTgz00R7PTS-1" edge="1">
          <mxGeometry relative="1" as="geometry">
            <mxPoint x="158" y="349" as="sourcePoint" />
            <mxPoint x="260" y="439" as="targetPoint" />
          </mxGeometry>
        </mxCell>
        <mxCell id="8jwDDrWikFqyBn_fs0aR-1" value="Transform" style="sketch=0;points=[[0,0,0],[0.25,0,0],[0.5,0,0],[0.75,0,0],[1,0,0],[0,1,0],[0.25,1,0],[0.5,1,0],[0.75,1,0],[1,1,0],[0,0.25,0],[0,0.5,0],[0,0.75,0],[1,0.25,0],[1,0.5,0],[1,0.75,0]];outlineConnect=0;fontColor=#FFFFFF;gradientColor=#F78E04;gradientDirection=north;fillColor=#D05C17;strokeColor=#ffffff;dashed=0;verticalLabelPosition=bottom;verticalAlign=top;align=center;html=1;fontSize=12;fontStyle=1;aspect=fixed;shape=mxgraph.aws4.resourceIcon;resIcon=mxgraph.aws4.lambda;" parent="1" vertex="1">
          <mxGeometry x="400" y="309" width="60" height="60" as="geometry" />
        </mxCell>
        <mxCell id="8jwDDrWikFqyBn_fs0aR-3" style="edgeStyle=orthogonalEdgeStyle;rounded=0;orthogonalLoop=1;jettySize=auto;html=1;fontColor=#FFFFFF;endArrow=block;endFill=1;strokeWidth=3;" parent="1" source="8jwDDrWikFqyBn_fs0aR-1" target="EOyo4fcmfA98YA7bWsMf-6" edge="1">
          <mxGeometry relative="1" as="geometry">
            <mxPoint x="338" y="439" as="sourcePoint" />
            <mxPoint x="390" y="439" as="targetPoint" />
          </mxGeometry>
        </mxCell>
        <mxCell id="iPhmxq3mS7waDfNKyjm2-3" value="DynamoDB" style="sketch=0;points=[[0,0,0],[0.25,0,0],[0.5,0,0],[0.75,0,0],[1,0,0],[0,1,0],[0.25,1,0],[0.5,1,0],[0.75,1,0],[1,1,0],[0,0.25,0],[0,0.5,0],[0,0.75,0],[1,0.25,0],[1,0.5,0],[1,0.75,0]];outlineConnect=0;fontColor=#FFFFFF;gradientColor=#4D72F3;gradientDirection=north;fillColor=#3334B9;strokeColor=#ffffff;dashed=0;verticalLabelPosition=bottom;verticalAlign=top;align=center;html=1;fontSize=12;fontStyle=1;aspect=fixed;shape=mxgraph.aws4.resourceIcon;resIcon=mxgraph.aws4.dynamodb;" parent="1" vertex="1">
          <mxGeometry x="460" y="199" width="61" height="61" as="geometry" />
        </mxCell>
        <mxCell id="iPhmxq3mS7waDfNKyjm2-4" style="edgeStyle=orthogonalEdgeStyle;rounded=0;orthogonalLoop=1;jettySize=auto;html=1;entryX=0;entryY=0.5;entryDx=0;entryDy=0;fontColor=#FFFFFF;endArrow=block;endFill=1;strokeWidth=3;entryPerimeter=0;exitX=1;exitY=0.5;exitDx=0;exitDy=0;" parent="1" source="4wnhlf1m7BTgz00R7PTS-1" target="iPhmxq3mS7waDfNKyjm2-3" edge="1">
          <mxGeometry relative="1" as="geometry">
            <mxPoint x="140" y="349" as="sourcePoint" />
            <mxPoint x="282" y="240" as="targetPoint" />
          </mxGeometry>
        </mxCell>
        <mxCell id="iPhmxq3mS7waDfNKyjm2-10" value="" style="sketch=0;points=[[0,0,0],[0.25,0,0],[0.5,0,0],[0.75,0,0],[1,0,0],[0,1,0],[0.25,1,0],[0.5,1,0],[0.75,1,0],[1,1,0],[0,0.25,0],[0,0.5,0],[0,0.75,0],[1,0.25,0],[1,0.5,0],[1,0.75,0]];points=[[0,0,0],[0.25,0,0],[0.5,0,0],[0.75,0,0],[1,0,0],[0,1,0],[0.25,1,0],[0.5,1,0],[0.75,1,0],[1,1,0],[0,0.25,0],[0,0.5,0],[0,0.75,0],[1,0.25,0],[1,0.5,0],[1,0.75,0]];outlineConnect=0;fontColor=#232F3E;gradientColor=#F34482;gradientDirection=north;fillColor=#BC1356;strokeColor=#ffffff;dashed=0;verticalLabelPosition=bottom;verticalAlign=top;align=center;html=1;fontSize=12;fontStyle=0;aspect=fixed;shape=mxgraph.aws4.resourceIcon;resIcon=mxgraph.aws4.cloudwatch_2;" parent="1" vertex="1">
          <mxGeometry x="589" y="510" width="30" height="30" as="geometry" />
        </mxCell>
        <mxCell id="iPhmxq3mS7waDfNKyjm2-11" value="" style="sketch=0;points=[[0,0,0],[0.25,0,0],[0.5,0,0],[0.75,0,0],[1,0,0],[0,1,0],[0.25,1,0],[0.5,1,0],[0.75,1,0],[1,1,0],[0,0.25,0],[0,0.5,0],[0,0.75,0],[1,0.25,0],[1,0.5,0],[1,0.75,0]];outlineConnect=0;fontColor=#232F3E;gradientColor=#F54749;gradientDirection=north;fillColor=#C7131F;strokeColor=#ffffff;dashed=0;verticalLabelPosition=bottom;verticalAlign=top;align=center;html=1;fontSize=12;fontStyle=0;aspect=fixed;shape=mxgraph.aws4.resourceIcon;resIcon=mxgraph.aws4.key_management_service;" parent="1" vertex="1">
          <mxGeometry x="550" y="510" width="30" height="30" as="geometry" />
        </mxCell>
      </root>
    </mxGraphModel>
  </diagram>
  <diagram id="MVMnZ15pBCyVMgYkKa-Y" name="Page-2">
    <mxGraphModel dx="1595" dy="697" grid="0" gridSize="10" guides="1" tooltips="1" connect="1" arrows="1" fold="1" page="0" pageScale="1" pageWidth="850" pageHeight="1100" math="0" shadow="0">
      <root>
        <mxCell id="0" />
        <mxCell id="1" parent="0" />
        <mxCell id="Hk3jv5YKV5BpY4zJ7PJa-3" value="PutRecord" style="edgeStyle=orthogonalEdgeStyle;rounded=0;orthogonalLoop=1;jettySize=auto;html=1;endArrow=block;endFill=1;strokeWidth=2;fontStyle=3;fontSize=12;" edge="1" parent="1" source="6xiz0G1c23atGB9jm4G8-1" target="Hk3jv5YKV5BpY4zJ7PJa-1">
          <mxGeometry relative="1" as="geometry" />
        </mxCell>
        <mxCell id="6xiz0G1c23atGB9jm4G8-1" value="App" style="shape=image;verticalLabelPosition=bottom;labelBackgroundColor=default;verticalAlign=top;aspect=fixed;imageAspect=0;image=data:image/png,iVBORw0KGgoAAAANSUhEUgAABLAAAAHDCAYAAAA0r+MHAAAABGdBTUEAALGPC/xhBQAAACBjSFJNAAB6JgAAgIQAAPoAAACA6AAAdTAAAOpgAAA6mAAAF3CculE8AAAABmJLR0QA/wD/AP+gvaeTAABu5UlEQVR42u3dd3xddf348dfn3KS7UPZGEEoWm4oDvwKKC4TaJo0KCOJCQMWBW7Tiz4ETN6CIssSMlgriAioIqFBAKMm9oUwB2bs7yfn8/gCR0ZaMe2/uvef1fDx4KCVN7n2d5Ix3zgBJkiRJkiSpggUTSJKkqtLRMw7qNqGOjSFuQUw3IYb1iXEyganEMIHAVAKTiUwA1gcmEphAjNMgDGX/5ylgBbAUeALiCgjLieFxkrj8mX9/HOITwH3E3IOkdffRvsMTLiBJkqTic4AlSZIqQ0fMQe9W5MJ2pGxHCNtB3JwYNieJmxDDJhA2gzitgt/FSuB+AvcR44PAfcTwAAl3QlhCqFvC7B0fdGFLkiQNjwMsSZJUPvPyGzGQNBEGX04StgdeRmQ7YDtga6A+AxWeJLCEGG4lpkuAJcSwhDpuYXbTI36TSJIkvZgDLEmSVHzn3rQB9eNbyKXNRFqAZuDlz/yjtbsP6AF6ifE6QryO1uZeQoimkSRJWeYAS5IkjVxHzziS3K7AKwjsCbGFGJoq/DK/avMQcD1wAzFcT5JeQ2vzXWaRJElZ4gBLkiQNTUfMkfQ2EsNehLAX8N9/Jhin7O4jcCVwCTG9iraWHpNIUoW4cNEknpo6ifFhPUKcykA6iVycDMk00nQSSVj3djONGzz7/5PwGGnoB5ZCXEESVzKYe5Lc4ADUPQ5hNStXLGPp6qUcPaPf+KplDrAkSdKLxRjo7NuJhFdAOgPCDGAPYJJxKtKdwOXAQkL8q2doSVKRXLhoEgOTNyWNmxPDJoS4KSRbEOMmwCbAFs/87zQCk4hsMIZH948ReYAQHyYNDxHi/RAeAh4ixIcYDPeTpA9Tn/s3MxufcuGq2jjAkiRJTw+sunubIdkf2I/AvkQ2NkzVuhPiHyAsYFLdXzlw+iqTSNIatn2/69uC1XE7Erbj+Q8WeRlPP1xkco2++weB2wncBuF2YryNmN5OrLud9oZ7/eZQJXKAJUlSVnXf8nIYPIAYXgtx/2d21FV7lgOXEbiQUH8Bs3d80CSSMqMj5qB3e5KkiRCbiGEHeN6QaryRXmQlcDuRPuAmkngjg8m/aG+8wzQaSw6wJEnKiu5bXk468FpC2Ad4C7CtUTJnEPgHMV5ILsxndtMtJpFUE05bVM/G621DHGwhxmZC0kKIzUSa8PL3YnkSWAz0QOglDdcx8anrOXjGctOoHBxgSZJUqzp6xlEX9iUNhwBv4+nfNkvPdT0hnk3d4G+YucsD5pBUFbqXbE0c2IPAnsS4B7AzhO2AnHHKbgDIQ7yKmFxJkruc1un3mEWl4ABLkqRa0tGzISH3BgIHQzwEWN8oGoJBYCExns2E5V3+Nl1SxVhQ2JL+uBeRvQjsBcwANjdMRXv+k3Jbm3sJIZpFo+UAS5Kkatd9y8uJ6cEQ3wbsC9QbRaPwBITfEdKzmN10qQcdksqmq3c6MdmbEPcE9oCwB8Rphql690G4AtK/AX+mrXmJSTQSDrAkSao2MQa6Cq8GZhM4BJhuFJXIrcDZ1IdfMLPxP+aQVDQdMUfS20hI9nnmYSL74r0Zs+J24CJCvJDBeAXtLatNoqFwgCVJUrWYd0sTg4PvIHAYsKNBVEb9BC6AeDqtzZeYQ9KwnXXjZCZM2IMwuA8hvBbCaz27SgQeAy4hjRexeuBCDtv1MaNo7d8ukiSpcnX0bUUS2yDOAfYxiCpg7/E64HSenHAWR22/0iCS1mj+DdMYmPB6QnwdhH2A3YE6w2gdBoArCVzEYJhHe+MdJtHzd0EkSVJl6bhtfcKqmYQwB3iLO/yqSJEHSMKvGAw/or3hXoNIGTc3JjQX9iDEAwjhAOB1wDjDaMQC1xHD2aS582if/pBB5ABLkqRKcNqiejacfDBwOIEDgfFGUZVYReC3DPId2psWm0PKkHm3bsrgwL6EeABwMLCFUVQCq4E/E2OnT8rNNgdYkiSNpQWFLVmdvpuQHAdxG4OoikXg94T4ZVqbrzeHVIMWLqzjoS1fRS6+DeIBRPb0mFJl5pNyM8yVjSRJ5TY3JuySfz2EDxKZhZcIqrY8PchKmUt703XmkKpcR88UcuEgCK1EDgQmG0UV4k4ivyap+wWt0+8xR+1zgCVJUrksWLwZq3PvIYSjge0NohrnIEuqVvNvmMbAxDcSOBjiLGCKUVTBUuAyYjid2DCP9jBoktrkAEuSpFLryO9FEo6H+A68oa2yx0GWVA3m5TcixrcTaYXwBrdXqtJNzm2E8DMGx/2C9h2esEdtcYAlSVIpnHnHBKaueg/E44FGg0hEiJ2kyWd9NLpUIebduinpQCvQCnFfvKRdteMp4ExydT9k1vTbzFEbHGBJklRMCwpT6ee9xPhpAlsaRHqR1cCppOO+5G/HpTFw2qJ6Npp0EPAeCAcC9UZRDUuJLCAJ36W18SpzVDcHWJIkFcOCxZuxuu4YQjge4jSDSC/pEQhfJW34sfcrkcqgq6eFkHs3MR4FbGoQZdBVwMm0Nl7k0wurkwMsSZJGY/6SHRgc+CjwQWCCQaThinli7pPMafiDLaQi61iyCcngocB7IO5uEAmA6wnhGyxumMfckJqjejjAkiRpJLp69oDcxyEeCuQMIo3aJZB+jLaWHlNIo9ARc+Ty+0P4IJGZeDN2aS1insg3iU3neiZwdXCAJUnScHTm9yPwZWA/Y0hFt5oYTmHC0q9w8Izl5pCGYd6tmzK4+ihC+DCwtUGkIeshhq/Q1tDlpYWVzQGWJElD0ZHfhRwnEpljDKnkbieJH2J2819MIb3k9mkvcnyUyDuA8QaRRmwRSfy8257K5QBLkqR16eprJKQnEWlzuymVfU+1k1XJsRza8LAxpOeYGxN2LhwEfBQ4wCBSUV0C6adpa7nBFJW2WyBJkl6so2dbkuQLwHuBOoNIYyTyAMRPM6f5LGPIbdNt65P0vwfiJ4BtDSKVcOsT6ILcZ2nd6XZzVAYHWJIkPe/gYMkm5AY/SYzH41MFpUo6lPg99QPH8PZd7jaGMqerp4WQ+xgxHgZMNIhUNishfpfl/d/giN2WmWNsOcCSJAlgQWEqq9NjCeELwFSDSBXpSQhf4uaGH/noc2VCR34XkvApn3grjbHIfyB+jrams73R+9hxgCVJyraFC+t4ZPMPETiJyAYGkarCXwnxPbQ232UK1aSuwgxiPJHAwR6zSRUkxCuB42ltvt4YY5DfBJKkzOrI70vCD4FdjSFVnScJfIrWptNNodrZLvXsTi75vA8OkSpaCvyClXWf4vDpT5qjfFwpSpKyZ0FhS/r5JsTD3RZK1S7+gfrk/cxs/I8tVLU6868h8DngbcaQqsZ9xPhZHzJSPu60S5Ky47RF9Ww05ViIX8X7XEm15CFCPJrW5vmmUFXpzO9H4EvA/saQqlTk99TxYWY13WmM0nKAJUnKhu7eA4jhR0CjMaSa3bU9m/FLP8TBM5bbQhWtq6+RkJ5EZI4xpJqwghi/Qmz6Du1h0Bwl2sqbQJJU2wcJvdOJ4fsEDjKGlAm9kLbT1tJjClWc8/o2Zlx6InAsUGcQqeZcDcn7aGsomKL4HGBJkmpTR884crkvEuNngHEGkTJlKTF8iDmN55pCFeHCRZNYOekjhPB5YD2DSDVtJTHO9Wys4nOAJUmqPR09u5MkvwT2MIaU6V3ds1m+6hiO2G2ZLTQm5saElr4jCfGrwFYGkTLlKnIc7r2xirhVN4EkqWZcuGgSKyefROBjQM4gkoAbScMs2hvvMIXKal7h9aTxO/jLFCnLnoRwHG2N55hi9BxgSZJqQ3dhH2I8A2gwhqQXeJQQ30Fr8yWmUMl1FBoI8bvee1HS/4Szqec4ZjY+ZYtRVDSBJKmqXbhoEqunfIkYPwUkBpG0FoPE+AXmNJ9sCpVEx90TCUs/Q+CzwHiDSHqBu0iTw2lvuNIUI+MAS5JUvbrybwZOB7Y1hqQh+g3jl72fg2csN4WKuD06GPghsJ0xJK3DAJGvERu/6g3eh88BliSp+px70waMr/8+cKQxJI3AtaTpIbS33G8KjUpHYXtC/JGXC0oapitI03fT3vJvUwydAyxJUnXp6nklJOcBLzeGpFG4lyQ5iNkNN5pCw9YRc+TyHyGG/wdMNoikYQs8RoyH09Z8sTGGmkySpGo5WAj5Ewjhq0C9QSQVYVf4cWKcxZymv9pCQzavd2fS8AvglcaQNEqREL7F4obPMzek5niJrbYJJEkV74LF2zBQdw7wOmNIKrLVEN7nI871ki5eMp7lA58HPguMM4ikoon8nrqVhzNrj8eNsXYOsCRJla0zP5uEXxDZwBiSSnboQDiRtsavmUJr1JHfhYRfA3sYQ1KJ/BtCK22Ni0yxZg6wJEmV6cw7JjB15cnAR40hqUx+ws2NH/UyDj1r4cI6Ht7sk4RwEp51Jan0VhLDscxpPNMUL+YAS5JUeTp6mkmS3wC7GkNSecVz2OiBo9h//wFbZNy8W5pIB38NvMIYksrsdNL0I7S3rDbF/zjAkiRVlq7e4yB8B5hgDEljItJFTA/zwCGryz8GugvHAd92WyRp7IS/sTrM5tCGh23xTBETSJIqwtOXDJ4KHGkMSWMuchkxnUl7y1JjZMh5fRszLv0lcLAxJFWA2yE5iLaGgikcYEmSKkFHYXuSOB/YzRiSKsgVpOlBDrEyYl7h9aTxLGArY0iqII+SMpv2psuzHsIBliRpbHXk9yWhA9jUGJIq0FWk6VscYtWwhQvreHiLrxHiCUBiEEkVaBVwFG1Nv8lyBAdYkqSx053/IJGfAHXGkFTBu8x/Y/mqt3LEbstsUWvboSVbEwfOB/YxhqQKF4mcxJymuZndGvs9IEkquzPvmMB6K08jcoQxJFWJS0inHEL7NitMUSPmFV7PYDyPwGbGkFRFfsUjyz7I0TP6s/bGHWBJksqro2dbcsk8InsZQ1KV+TNPTZjJUduvNEU1b4dijlA4kcCJeMmgpKoULiW3oo1ZezyeqXftgpcklU1n/k0EfgNsaAxJ1SkuYKMH2th//wFbVKHz+jZmXDwf4huMIanK3UBa92bapz+UlTfsbxwkSeXRnf8kgYtxeCWpqoWZPLLZacToL4Krzby+3RiXXuPwSlKN2INk4Aq6l2ydmS2wy1ySVFIdMUdSOAX4sDEk1ZBv0tb0OTNUic7edxLCGcAkY0iqMXeSqzuAWdNvq/U36gBLklQ6Z94xgakrfg2h3RiSanBP+gRam75riAr29C9RvgmcYAxJNbxBupuUN9Le2Ffbm11JkkphXn4jUhbgo8kl1a5IDO9jTuOZpqhAHT1TSJLzgIONISkDHiRJ3sTshhtr9Q06wJIkleKgYUeS5A/AjsaQVOP6ScJbmN14mSkqSPeSrYkDvwP2MIak7AiPE9K30tr8j5p8dy5gSVJRdfTtTZJeCGxqDEkZ8SSkr6GtpccUFaAz/xoC890OScrsNimmb2NOy99q7Y35FEJJUhEPGgozSdKFHjRIypj1ILmQjiWbmGLMt0OHEbjM7ZCkTG+TQnIx3b2vqrU35gBLklQcXfkPEGIXPuFJUjZtT65/HhcvGW+KsdoOFY4nxLMAl4GkrJtCDH+ku3fPWnpTDrAkSaMTY6CzcDJwOlBnEEnZXR+G17J84FRDlFlHzNGV/zHEUzy+kaRnrU8Mf2TeLU218oa8B5YkaRQHazHQnf8JhGOMIUn/XTfyKeY0fccQZXDxkvEs7z8LQrsxJGmN7iUN/0d74x3V/kYcYEmSRqYj5kjyp0N4rzEk6XkGSeJbmd38F1OU0Lk3bcCEut8Rw2uNIUnrEm+jPnkdMxv/U83vwgGWJGn4OmKOpO9MiO82hiSt0YOEur1onX6PKUpg3q2bkg78CeLuxpCkIbmF+oHXMXOXB6r1DTjAkiQNT0fPOJLkN8BsY0jSOv2TSXX7cuD0VaYo6nZoc5LkL8DOxpCkYbmRVf37c9iuj1Xji/cmh5Kkobt4yXhC0onDK0kaileybPB7Ziii7t6XkSR/w+GVJI3Ebkyon09Hz7hqfPEOsCRJQ3PWjZNZNnAxgUOMIUlDFOKxdBUON0QRdBQaiMnfgB2NIUkjFNmXXFKVT8z1EkJJ0hAOGm5bn2T174F9jCFJw7aMNOxFe2OfKUa6HeppJiR/IbClMSSpCEL8DK3N36qql+xSkySt0/wbpjE44Y/AK40hSSPe676OwfQ1tLesNsYwdeT3IscfiWxsDEkqmkiMhzKn+fxqecFeQihJWsdBw23rMzjhUhxeSdJoDxP2IiRfN8Rwt0N9ryXhModXklR0gRB+SXfvq6rnBUuStCYXLprEqsl/AF5nDEkqikjkEOY0XWSKIejM70fgQmCKMSSpZO4nTV9Je8u/K/2FOsCSJL3YxUvGs3zgIuAAY0hSEUUeIKa7095yvzHWobv3AGK4EJhgDEkqucWsrHsth09/spJfpJcQSpKeryPmWDZwDg6vJKn4ApuRJD83xDp0F/YhhgtweCVJ5bIL4wfOY26s6BmRAyxJ0v/MjQlJ4SwCbcaQpJJ5G135I82wBvP6doN4ITDZGJJURoGD2Lnvc5X9EiVJAogxMK/wMyJHG0OSSu4J6gZ24e273G2KZ3QUGgjxcgKbGUOSxkRKEt/C7Oa/VOKL8wwsSdLTuvMnO7ySpLJZn/66M4jRXygDzF+yAyFe5vBKksZUQhrOoaNvq8p8cZIkdRdOgvApQ0hSGQXeyLz8e90GLdmawYG/ENjSbwpJGnObkks7OW1RfaW9MAdYkpR1nfkTiPFEQ0jSGIjhu5X6m+6y6FiyCbH/z8D2fjNIUqVsm3g1G036WqW9LAdYkpRlXfkjCXzLEJI0ZtYnSX+YyXc+/4ZpJAN/gtDkt4EkVZpwAp352RX1ilwokpRRHfl9SfgTMN4YkjTWe+VhJq2Nv8vM+z3rxslMGvcnYB8XviRV7MbpcXK5GcyaflslvBrPwJKkLOroaSbHfBxeSVJliPFHdPRMycR7PW1RPZPGXYDDK0mq9I3TNAYHzmXhwrpKeDUOsCQpa7p7tyBJLiaygTEkqWJsS5J8ORPvdOPJPwIOcJFLUlV4JY9s8ZlKeCFeQihJWXLhokmsmnwZ8EpjSFLFGYB0b9pabqjZd9iV/xLwFRe1JFWVflJeTXvTdWP5IjwDS5KyoiPmWDX5tzi8kqRKVQfJj4mxNn/J3Nn7TmCui1mSqk49CWdx5h0TxvJFOMCSpKxICqcAbzOEJFW01zCv8K6ae1fdva8jhF/hFSCSVK2aWW/liWP5AtyASFIWdOZPIPBtQ0hSVbiX5asbOGK3ZTXxbrr6Ggnp1d57UZKqXkqa7Et7w5Vj8cU9A0uSal13oY3AyYaQpKqxFRPHfaom3sl5fRtDeqHDK0mqCQnJ4K/G6qm5DrAkqZZ19bySGM9yfS9JVSbwKTp6tq3q99Bx90TGp78DdnSBSlLNbKB2IEm+NhZf2QMaSapVCxZvBkk3MNEYklR1JpFLqvfs2bkxIVl2HpFXuyglqeZ8mO7eV5X7izrAkqRadNqievrrOoCtjCFJVSryzrE4QCiKnQvfgfh2F6Ik1aSEGH5CR8yV94tKkmrPhlNOAV5nCEmqduGbVfeSOwuHAR932UlSTduTJP+hsm4RbS5JNaa7993EcJYhJKlGJPFNzG7+S1W81nl9u5GmVwOTXHCSVPOeJMRGWpvvK8vm0N6SVEO6evYghtMMIUk1JIZvEGPl/+K5o2dD0nQeDq8kKSvWI4avl+uLOcCSpFoxL7+RN22XpBoU2YuuvraKfo1zY0JIzgVe7gKTpEw5ko78vuX4Qg6wJKkWLFxYR0oXsL0xJKkGhfj/WLiwrmJf3875bxJ4iwtKkrK3hSLhx+XYRjnAkqRa8PAW3wb2M4Qk1aydeHTzwyvylXX3zoJwgotIkjJrZx7Z4thSfxFv4i5J1a47fyiRcw0hSTXvVja6v4n99x+omFfU1dMCyT+AKS4eScq0J0jYgdlNj5TqC3gGliRVs3l9uxH5uSEkKRN25NHN2yvm1SwoTIXQicMrSRKszyCfK+UXcIAlSdXqrBsnkw7+Bp/2JEnZEeMXmRvHfh9+bkzoj+dBaHKhSJIACBzHBYu3KdWnd4AlSdVq8rifeuAgSZk7Omhil77ZY/4yWgpfAt7m8pAkPccEBupOLNkW0L6SVIW6e99BDOcbQpIyqYebG3dlbkjH5Kt35vcjcAmQc1FIkl5gkCS3C7N3yhf7E3sGliRVm3n5nYjhF4aQpMxqoaVw4Jh85Y4lmxA4D4dXkqQ1y5EOzC3FJ3aAJUnV5OIl40k5H2+YK0nZFvhk2b9mjIFk4AxgCxeAJGkdG6k5dOT3KvZndYAlSdVk+cB3gD0MIUmZtx8dfXuX9St2950AHGx6SdJLCCR8rfifVJJUHbp63w5hnutu1fj+zuMQbydyO4F/E3kE4uOE8BgxeZxk8DFi7nFCWP2ivxrjONJ0MiQTSQY3hrAJhE2JbExgI2LcnMB0YFv8JZ5qw3m0NR1Wlq/U3fcKYnolMM7sEgDLgSef88/ja/yoSELC+kQmAhOAacCG5lMmpOxHe9PlRdtLtKgkVYGOnm1Jkhvc4VENuQ9YBCwixD7I3c7gwG20tzxa+p+nuydSt3wn0thATBsIoQnYGWjBwZaqywBpugPtLf8u6Vc5Z8l6TOi/HsIOJldGrAJuIVAgDXcQuJeQ3g3cx2Dubjb5zwPsv//AiD/7aYvq2WDqppBuTi5uTsoWJMmOxLgjsCMwHZjkYlDVi/yFOU1vKtanc4BV6bqXbE3snwmhkcBmBpFGZTVpWMCcxs6qetULF9bxyOZ/BfZxEapKLQOugngtsIhQv4jW6fdU3Ks8Z8l6jB94FfAaAq8GXgWs5+JThR8cfJc5TSeUdn80/xsi7zS2atS/gWuJ8VoCi8nV99G/4520h8GxPQ7sfRlpsjvEPYA9CGEPiNu4uFR90j1pa7mhGJ/JAVal6uqdDnwbwiEuJ6nIQtyX1uYrqub1dvaeSAgnueBUTXsqBG4g5c8k4S8MDl5Fe8vqqnsXHTEHhWaSeACEg4H/A+pcvKowT5Km25fs7MWuwnshnmFm1YgVBK6BcAVpvIZxA9cyc5cHqme71LcVuXRf4HXE+DoITS5SVYGiXe7uYKQSzSu8njReBEw0hlQCIc6mtXl+deyo9OxOkvwT7zmiyvcUgd8R+T1p3SW0T3+o5t7huTdtwPj6txA4hBjeAnGai10VIYZTmNP48eLvk97SRDp4LTDZyKpSyyFeDuEKQvgbg4PXVuUvVNZmweLN6K97C5G3EXgzMNVFrgo0QIg70tp816gP42xZYboKu0K82h0FqWQe4qkJ23LU9isr/pV29IwjSa4BdnOxqUKtIPJ7AueTTrmY9m1WZOadL1xYx2NbvI7Iu4ixHS811NhaTVK/DbN3fLBon/HiJeNZPnANsKt5VUVS4F+E8BcCf2ZC7ioOnL4qE++8o2ccdWFf0jATmANs6reDKkf8AW3NHxvtZ3GAVUkWFKbSH68BGo0hlWrdGY9kTvNZVfFaO3u/SghfdKGpwgwS+SMhnE89C5jZ+FTmi1y4aBKrJ7WShvcQ2A9vBK8xEd5HW+Mvi7cNKpxMiJ+2q6rACuAqCBdRTyczG/+T+SIdMQe3vJokfTfwLjwzS2NvGQkvY3bTI6Pa0tmxYg6qA92FLmC2MaSS7dxfSmvDGwkhVvxL7SrMgPh3vN+OKsd9hPALyJ1ekTdgrxTdvS8jhiOBI4GXG0Rl9E3amj5XnG1QzyshuQrImVUVuk/3OMQLgHmkUy7J1BnAw3XWjZOZNP4dEI8BZhhEY/hz+0XaGr82qs9gxErZ4c1/jsjXDSGVzJOk6S4lf9R4MTx92cZ1QIuLTWMsApdD+BmPLJ3P0TP6TTJEc2NCS9/BJOkJxPBag6j0P63xs8xpPtltkGrYCuBSYuxkwvIuDp6x3CTD1JHfi4QPAofhLWtUfg+STtluNANnB1iVoLuwPzH+BX/LJZVQOIa2xlOr4qV62YbG3ioCvyLkfsDsnfLmGO12vvdVxHACMAsvL1RprCbEnYpxg1y3QaowKYSFwK8Yv3SeQ6siOa9vY+oHjycJxxHZwCAqow/S1vTzER/R2W+sd2qXbE0cuB7YxBhSiQQuZ3bj/lVx6WBH/tUk/A0H2hoby4DTqQ/f8R4iJTB/yQ4MDnwcOAqYZBAVySAhHkZr829Hv1/a+ypiuNJtkCrAHcCvCPHXRRnMas0WFKbSz4cgfgLY3CAqg+tpa9pr5Id1GjunLapno8kLgX2MIZXMcoi709a8pOJfacfdE0mW3gA0uNhUZk9A/DGrc6dwaMPD5iix8/o2ZtzgpyEch4Msjc5iSD9AW8s/R/2ZzrxjAlNX3oAPE9LYSSH8EdKfcHPTH5kbUpOUcx902YchfhbY0CAqqRD3orX5+hH9VeuNoc7CTwjxWENIJfVJ2pq+VxWvtCv/PeDjLjKV0ZOE8G0G639E+w5PmKPcBww9m5MknwM+CEwwiIZoBZG/kAs/Y1bDn4p2dnFX/tvACebVGBzNPg7pzwl1p9K60+32GEPn3rQBE8Z9hhg/Ckw0iEojnkpb8zEjWlsYb8wOVN8FnGcIqZT7Q/EaBpteQ3sYrPjX2t27JzFcg5dtqDz6iZxKf3KSZ1xVws//kq2J/d+AcJj7ZlqLXmAhIfyZcUsvKfp9gLx8XWPj3xBPoT75BTMbnzJHBeno24pcejKRQ90uqQSeYPnqrThit2XDPryz3VisEPK7kPB3fPKDVEqrSeJezG6+ueJf6dyYsHPhKuBVLjaVwUUQP1EVl9VmTXffK2Dwx8SwtzEy7z4CVwKXMJj+saRP0PXydZXfYmI4mUeXdvh020rfLhX2J8YfA83GUFEFjqK16VfD/2sqrwWFqfTHa/D+AlKJV4rhRFob/19VvNauwjEQf+pCU2l/JuKVwKdobf6HMSpYR8yRFI4Bvg5MNUhm3EfgMmK4jFy8jFlNd5btK3fmv0Pgky4ClcHNhPAVFjfM8/5WVeS0RfVsPOnjxPBlvG+jiucq2ppeO+zdWbuVUYyB7kIn0GoMqaRu4pFlM6rit3oLFm/GQF3eRxirdNseHoD4adqazq6KJ3Hqad29LyOGXwH7GaMmPQX8kxgvIYZLmNN4/Zj8fM7r2400XQTUuUhUQj0QTuLmhi4HV1Wso2dHkuRX+AAyFUuattDe0jucv+IAq5y68p8FvmEIqaQGILyatsZF1XGQmj+HyGEuNpVAhHAOSfw4s5seMUc1LsEY6O77KMSTgfEGqWrLgL8/O7DqbbxhzA/kn/7F6l+B17l4VCL3EjiJwcYzquJ+pBraemNe4QNEvo9nY2n0vkdb07DOAHaAVbaD1ML+xPhn/A2XVOpD9m8wp+nzVfFa5xVeTxovcV2s4gv/gsEP0dbyT1vUwj5E757EMA94mTGqxgoIVxPjZSTxMjZ8YBH77z9QUa+wq/BeiGe4qFQCTxA4mcEpp9C+zQpz1KCOnmaS3LkQdzeGRr67ysNMrNuaA6evGvpfUTl2PLcghuuALYwhlVQfT03YnaO2X1nxr/TiJeNZPvAvvB+eimspxC+x0QM/qriDZY3OeX0bMy79DXCAMSpSP3ANIVxGGi9jct3fh7NDPgYHnxuSJAVgExediiglhF8ymPs87dMfMkeNO/OOCUxd+QPgg8bQiEUOZk7TRUP9cM8GKrXTFtUDHTi8kkq/05Qm76+K4RXAisFP4fBKRRX+RkjeQ+tOt9uiBh3a8DAd8S0khW8CJxikAna54SbgUoiXksYraG9ZWjWvPkm+gcMrFdf1pHyY9sa/myIjnt7nPprOwhWEeCowxSga/u4rbcBFQ/9wlVZ3/iNEfmgIqeQrvxNobfpudawXel9GDD3AZBeciqCfyNeJjV/1HiMZ0dV7HIQfAokxyuo+AlcClzCY/J72hnur8l109O1Nkv7d7x8VaQfscYif5ubGM7xBe5a3S32NkC4AdjKGhr0OSQc3o71l9VA+2jOwSi3l7Y4JpRIfvMNnaW36XvWsF8JPCA6vVBQ3kMQjmN18sykypK35J3Tl7wfOASYYpFT71DwMLAQuIam7lFnTb6v69zQ3JuTyPyIGh1cqhosIuWNonX6PKbK+XWoocO5Nr2L8uE6IbzCIhi5OIwkHABcP5aMdYJVaLnybGCcS2YFA/dCWIdPw7DhpKP4K4VNV88RBgHm9byTlIBedRmkA4sk8svwrHD2j3xxZPFho6qYj/zAJFwJTDVIUy4G/QbgUBi9hcfONNXdGyc75Y4hhbxe1Ruk+Ih9mTtM8U+hZh+36GKcteisbTf4x3hdLwxFCG0McYDkkyaKO29anf1npfvNWn5tKrr50w9GYTiGN9SX7/Lk4GRhXugWQTCIt5ePQ04kkoXS/kY9hAjGdWMIV2HhCeInH8sZ7iemVtLXcUFU/e3Njws6F64HdXBFpFG6B9AifMCgAugv7EOMfcIg1EgMEriWNlxLDJUyp+0dF33h9tBYs3oz++gLEaS56jXw/kC5yfIjZTY8YQ2vVlf8E8B3nDRqiR3lk2eZD+aWs31CSVLaNuY8s16gPHH5H3cojmbXH48bQszrye5HjL0Q2MMZLuh24hBguYfXqSzhs18cy8867878mcoTfAhqhJ4nxI8xpPssUGpLO3iMI4Qy86ktD8xbamv70Uh/kAEuSyuHCRZNYNfkWYCtjaAQGgM/Q2vh9Qojm0It0976KGP6CT4F64a7u3RAvhXApIb2U1ub7MpmhqzAD4jXu+2uEriLH4cxqutMUGpbOwkxCPB/v16iX3l6fQVvj+1/yowwlSeXYgPeeSAgnGUIj8BAxfRdzWi41hdZpXuH1pPFiKOVl6hVvKfAPYnz6LKs5jdc79AU685cSeL0/JBqmSAzfZuP7vsD++w+YQyPSXdifGH+Hv2DRugQeZsP7t3ipdY0DLEkq+UHlrZuS9i8B1jOGhrcxj1dSl7yDmY3/MYaGpKv37RC6gFxG3vEK4CoiV5HEK3l4+eU+2OAFOvveSkgvNoSG6VEiRzKn6SJTaNQ68vuScDEwyRha+35veD2tjQvX+SFWkqQS686fSuRoQ2iYTueRZR/2YFzD1lX4EMSf1ei7GyTwLwiXQHoJT068kqO2X+lCX9tBY8yRFG4AdjGGhuF60nQW7S3/NoWKZl7vG0nD7/ByQq1N5BvMafr8uj7EAZYklXRjfUsT6eBNeANLDd1qQnw/rc1nm0Ij1pmfS+DLNbJHm4fw9JMC61Zc7kMMhvN9UDiKEH9pCA3j562D8cuP4uAZy22houvKvxlYQLYvddfaLaKt6RXr+gAHWJJU2oPIiwgcZAgN0VMkoZ3ZjX80hUa//il8nxA/Vn3HzzxAwhXAJQymf/QskBHquHsiybI+iNsYQ0OQEjmRtsZveN84lVRXoR3ib4DEGHrReihhU2Y3PbK2D/CMAEkq2cFjfj+HVxq6cDdJeiCzm262hYqip+GT7Ny3BcR3VPa3Po+R8ldCvBRylzKnoeDCK0bXpz4KweGVhmIFIR5GW/N8U6jk2ho76M5vQ+Q7xtALJKThDUDH2ncZJEml0ZW/HHidITSEI81/Uc9B3qxdRdfRM44k+T1wQAW9qpUQrnp6YJVcwuBO19MeBl1YRXTuTRswvv5WYENj6CU8SprMpL3hSlOorDrzPyTwEUPo+bvE4Re0Nn5gbf/ZM7AkqTQb5f1weKWhuYSVuVbapj9pChVde8tqFhRm0x8vB/YYo1fhjdfLbXz9iTi80ku7nYS30tZwiylUdrHx44TCdsDBxtD/vi/iG9f1nz0DS5JKoSu/ENjPEHoJv2Kj+z/A/vsPmEIltaCwJf3xauBlZfqKBeBSQryUZNVCb7xeRh2F7UliHm+SrHVbTP3AG5m5ywOm0Nitr3qmkCT/BJqNoWeloZH2xr41/SfPwJKkYuvufR3R4ZVe0s+5ufFDzG1KTaGSm9n4H+bl38QgCwlsWfTPH/kPIVxKTC8h5i6lveFeo4+RJH4Jh1dat0Wk6ZuZucujptCYam9ZSkdhNkm8BljPIHpmO/ZGYI0DLM/AkqRi68pfBuxvCK1VCL9gccPRzA0Or1Re8/I7FWmItRT4BzFeQgyXMKfxep9cVgE6erYlSZYA44yhNW9/4pWsqD+Iw71sXRWku3AIMV6A8wkBEBfQ1vz2Na7CjCNJRdTZ83+E5ApDaB0b5VNpbTrWg32Nma7e6RDmAy3D+FsriVwNXEpILyVtXuSN1yty2f4MwocMobX4K8tXv40jdltmClWc7sI3ifEzhhDwKK2NG69pX9kBliQV9eChcAnENxhCaxZ/RmvTcQ6vNObOunEyk8Z9H3gPUL+Gj1hJ4J9ELicJlzMw+e+0b7PCcJV88Ne7BTHcDkwwhnjxUd/fqQtvZmbjU8ZQRVq4sI5HNv8b8CpjiIQGZjfd8uJVmSSpSAcPhX2I0cdQa21+QmvjRxxeqaJ09GxLkns7Me5IYIDAvRCv5cmJ1/ikwCrT1XsKhOMNoTW4gVX9b+CwXR8zhSra/CU7MDhwAzDVGBkX4hG0Np/9oj+2jCQVSWf+zwTeaAi9eCPMacxuPMbhlaSSmHfrpqT9dwCTjKEXbID+RW7F/j4JVFWjK/8B4HRDZN5PaGv68Av/MLGLJBVBR/7VDq+0ZnEBg41eNiiphKuZgU/g8Eovdgfp4FsdXqmqtDX9HMIFhsi8V67pDx1gSVIxJJxgBL1IiNewvP8wb3YtqWQ6ejYkxmMNoedvf3iYNLyV9pb7jaGqkw4eQ8BLXrNtNzrunvjiQy5J0uh0974MmGkIPV+8jTDuYJ/2JKmkQvJRvF+Mnm8Zg8lBtDf2mUJVqb3lflI+Z4hMq4elu7/wDx1gSdJoxfBRIGcIPcdDwFuZveODppBUMucsWY+EjxpCz90rgfBe2huuMYWqWk/jz4GrDJFhufiiywgdYEnSaCwoTAXeZwg9x3JID6ateYkpJJXU+P5jiGxgCD0r8AXaGjsMoao3N6SQHg2sNkZmV2gOsCSpqAbie4D1DaFnpMSkjbaWf5pCUkktXFhHSI4zhP4nnkNr0zfsoJrR1tJD5EeGyOoqjb1f+EcOsCRppObGhBiPN4SeFcKXmdPwB0NIKrlHNp8JcRtD6OntT7yGpyZ+wBCqOav7vwY8YohMejnzb5j23D9wgCVJI9XSdzCEHQwhACK/Z3HD1w0hqSwCHzGCnvEoSXgHR22/0hSqOYft+hiEkwyRUen4xuf+qwMsSRrxwYNnX+lZd5HjyKfv1yBJJdbV00LkdYYQT1+6fjizmu40hWrWI0t/BtxiiCyu4ZKm5/6rAyxJGomO/C7AfoYQsJKUVmY3eXq7pDJJPgoEO4gQvual66p5R8/oJ/I5Q2RxHRebn7f1s4gkjeTYgU948KBntqzH0d50nR0klcW5N20AHGYIAVcw2PAVMygT2hrnAzcZImMinoElSUU4eHiHIQThDNoaf2kHSWUzof69wGRDZN4ThHgE7WHQFMrGLleIxPD/DJG15e4AS5JGZ1zdu4CJhsi8O0gHP2YGSWUzNyZEjjWEgGNobb7LDMqUtoYuYLEhMmU7Llw06b//4gBLkoYrhKOMkHkpIb6H9palppBUNrvk3wq83BBZ3w/hLNqafmMIZXAfPBLi1wyRKQmrJjb891/qRvWp5uU3ImU2hAMh7khgcyBnY0lrFRkA7oF4Bm3NP6m61z+vd2dSZrggM/99/H3amq8whKTyrnvCR4yQefexsv9jZlBmLW7qZOfC13GYnx0haQJugJEOsBYurOPhzT5JyueB9SD+d4dekoZiEwg/pjM/wJym06rqlQ8m7yO4ssu4AnHKiWaQVFYdhe0hvskQmXc0h+36mBmUWXNDSlf+J8B3jZERaXz2PljDv4Rwbkx4dPNfEcI3gfWsKWkU3l5dBw894wjRJz9l2wCk76F9mxWmkFRWIT0cn36bdb+hrelCMyjzcit/CXgbh6xIwrOXEA5/gLVz4WtEH90rqRgrI+6rro1l7hBgExdclg8g+RZtLf80hKSyijEQwrsNkWkPsTr5qBkkYNYejxPDWYbIyjaQbf93+DgcXfmDgc9YUFKRpgEXVNnK05u3Z3vrmWdi3Ul2kFR2nYVXAdMNkeVNUPgMhzY8bAjpv4cR4Ud4E6OMrP/Y5r//d+gDrI6eHYGz8dRlScXxFE+O/3PVvNqOvq0gvtnFlmFJ8gkOnL7KEJLKv/6Jnn2VbVfR1vArM0jP0dZQAP5uiAwIbE5HzzgY6gCr4+6JJEkHsL71JBVHXMBR26+snhVneiQ+ZTXD3678jtmNfzSEpLLr6BkHod0QmTVImn6Y4BNkpBfvn/NrI2RCQi5s8fT/GdKHL/0psIfdJBVvg5N0VtkG8kgXWmatJsQTzCBpjLaXbwM2MkRWxR/T3vIvO0hrMDjut4AP1snEss5tA0MZYHX2Hgu8x2KSiqjKLh/s2R3YycWW1YPH8H3ampcYQtIYrYO8fDCzy57HSMJXDSGtRfsOT0D4nSEyIEmHMMDq6NubEL5nLUnFVW2XD4ZWl1lWv1V5gMH6bxhC0piYl98I4oGGyOo2KH6V2U2PGEJa189J8DLCTAhbw7oGWB09G5KkvwXGG0tScdc/VXf5oAOszH6v8pmnf7snSWMg5V3AOENk0h1Mqv+pGaSX8OhTlxB4zBC1Lq7jHlhzY0KSnAdsZyhJRVZdlw/Ou6UJQpOLLZNu5ObGs80gaQwdboKsCp/1ybfSEBw9o5/IHwxR8zaDtQ2wWgr/D/Bx8ZJKoMouHxwcaHOZZfVblZOYG1JDSBoT8/PbAXsbIpOup7Wh0wzSUPfZwgVGqHmbwpoGWJ35txH4rH0klUTVXT7o/a8yqoeeRneGJI2dAdqAYIgs7ivFLxFCNIQ0RHHwD8BKQ9S0NZyBNT+/HYFfu7GUVCLVdflg9y0vB3ZzsWXx4CHM9ewrSWO7HuLtRsikf9La/HszSMPQ3rKUyKWGqGHx6TOw6p79gzPvmMDgym5gQ+tIKtGap7ouH0wH5hCc52dQD4sb5pmhgly8ZDxL043JBR8so4xsLvs3AV5tiAxK4olGkEYghL9APMgQtbp82ZiOmPvfAGvqyp8Be1pGUulWPF4+qGpY7vGrnn01hjp6xpGEAyAcAGF/iC9n+cB6JIAX1CgrYuL1ENn0D2Y3/8UM0gik8bK13OFbtSHH+Js3fnqA1VX4EMT32ERSCT1RXZcP9r6MyAwXW+aOGvMsbvLGuWOho2cKueRoIh8HtnpmedhF2eTwKqvboJNtII3QnMab6So8QHj6XkmqQauSjRK6CjMgnmINSSX266q6fDCGgz2EyOKxA9/07Ksx0N37OpJkMZHv8OzwSpIypcDNTb8zgzRCIURC+KshankZJ9MSYjwZ8J4SkkrpWlbWVdc9HSJvdLFlbaPIw0yu/60hyqyr8CliWAhsZwxJGd4GnewvUKRR78B7I/eaXk/GaQnBS2QklWYLAhSAT/LUhNdx+PQnq+aVn7aonsD+LsKMScMvOXD6KkOUUWf+6xC/Bd61QlKm3ctgep4ZpFHvzF1tgxoWwrQ6Qng7MW0nhu0Iz3kq4Zo9SWBwjF7uaiLLxu5QPDxOMkY340jjSogrxuRrJ0QIj49h9+VExuiAMg6SxLEcuixlMPSPzXIP/YRk6Yj//mAaWTb+vqq6ZPC5Np70aiJT3Upka4+HyKlmKKPO3mMJfM4QkhR+RnvLajtIo3Rzc56dC08C6xmjFvfW47Q6WhsXAgutIUn/XTnyRu9+lbmDhz/S3niHHcqko29vQnqKISSJVSR1PzeDVARzQ0p3/gYi+xqjJvfXp3nKviS9aN0YvP9V1sT4MyOUycVLxpOkZwL1xpAkzmf2jg+aQSrWPh3XGqFmD9LWd4AlSc917k0bgPcGzJh/Exv/YIYyWTHwYaDZEJIEhOQnRpCKKIZrjFCjkugAS5KeZ8K4NwA5Q2Tp4IFTaQ+DhiiDc5asR/S+V5L0jOtpbfBsEamY4uANRqjVZRsmOcCSpOetGOObjJCtJQ7RJz+Vy/j+44GNDCFJQIxnGEEqtuY7AJ8qXYtCnOAAS5Kez/tfZcs/aW2+ywxlMP+GaYTkE4aQJABWsnrgN2aQiuzps+pvNUQNSvEMLEl6VlfvdGA7Q2RJ7LBBuXY6Jn4C4jRDSBIA8zhs18fMIJVEwQQ1KDjAkqT/8ZG72Vviaew2QzkO0/IbEePxhpCk/x6IxTONIJVsD+8WI9QkB1iS9KwkeaURMnXwcBXtLf82RBmknACsZwhJAuA+BpsWmkEq1T4e/zFCTZroAEuS/ivGVxkhU3s3Xj5YDuf1bQwcZwhJetb5Pv1WKuU+fXjACDXJm7hLEgALClOBJkNkRkpd8PLBcqhPPwtMNYQk/Vfw6bdSSQ3eb4NaFHMOsCQJYIAZQM4QmfEPZjZ6enmpdfRsTuAYQ0jSs26lrXGRGaQSyiWegVWTQuIAS5IA0vhqI2RI5C9GKIMk+RwwyRCS9N/tTzzfCFKJreh/yAg1yTOwJOkZ3sA9UwcQySVGKLHu3i2ADxhCkp4jYb4RpBJbsssTQGqI2luDOsCSpKc5wMqOpTz21D/NUGKRE4GJhpCkZ93F7KYbzCCV2NyQAk8Zoub2LR1gSRIdhe0JbGaIzGz8LufoGf2GKOXPVM+2EN5rCEl63gboAkKIdpDK4nET1BwvIZQkQurZV5la3vFSI5R69yJ3IjDeEJL03O1PssAIUtl+4B6zQa0tUoIDLEkicYCVreXtAKuUuntfRoxHGkKSnnfk9Tgb3vc3O0jlEh+3Qa0tUgYcYElSiLsZITMepLVhsRlKuXMRTgDqDSFJz9vX+Av77z9gCKlsP3SP26DWFin9DrAkCZpMkBGRK7z/SAktWLwZ8D5DSNKLNkB/soFURiF6CWHtrUc9A0tSxs3LbwRsbojMbPgW2aCE+us+hk8elKQXyw3+2QhSOXf5vIl77QkOsCRl3GDabIQsHUBwvRFKpOO29SF8yBCS9CKLefsud5tBKqvHTVBzvIRQUtYlDrCyZGXuBiOUSK7/IxCnGUKSXiAGHx4ild9SE9ScQQdYkrItRO9/lR13cmjDw2YogQsXTSLGjxpCktboryaQyi1uaIOas9oBlqSMb9uCZ2Blx3UmKNXuxKQPApsYQpJeJCUXrzSDVGYh2cwItXbcxlN1VpCU7Y0bDrCys9Hz/lelcNqiemL4uCEkaY07Gjcxu/ERO0jl3u+LDrBq77htmWdgScquc5asB2xpiMxs9DwDqxQ2nHQksK0hJGlN0sttII2JTU1Qc5Y6wJKUXeMGWoBgiIyoD4uNUGQdMUcInzaEJK1FSLx8UBob3tqg5tanwTOwJGVYLnr5YHYs55CG+8xQ7B2J/BxguiEkaW3Sa20gjQkvIay51alnYEnK9tH3y22QGXcQQjRDEcUYCOGzhpCktbqf1ua7zCCVWUfPFGCyIWpMwlMOsCRl+AA8bGOErCxrbjNCkXUVDgJ2M4QkrdUiE0hjIFfv/a9qc3/epxCqjBYUpjKQeC1yrVkRHubw6U9W6VrQAVZmhNttUOykePaVJK17PekASxoLg4Ob4ak6NbhOTR91gKXS6uiZQi4cS+SD9MeXw6A3zK41E0jpyv+F+oEjmbnLA1X26rd2AWZEEh1gFVNnfj9gH0NI0jqPtnpsII2BHNvjjSNqT5o87FxSpdNV2JUk/IsYToawAz7trWZHA8CbWV13elW96hgDsJWLLyscYBX3mIzPGUGSXsLgYK8RpDGQspMRanKl+qgDLJVGR34XiFc+M7hSNg5oD6a792VV83o7b90YmOiCy8r3Z50DrGKZ17cb8EZDSNI69fPYiiVmkMbkuMQnJNfmcnWApRK4cNEkEhYAU42RsVVKDI3V83JXe/ZVlgxMvNMIRZKmn8YzaiXppSzh6Bn9ZpDGhAOsmjzaDA6wVAIrJ30S2N4QWRRzVfNSc7ltXV6Z8STt26wwQxFcsHgbYI4hJOmldom4wwjSmPESwlo0sd4Blops3q2bEsIJhsiokHuoal5rmnoD9+x41ARFMpD7JFBvCEl6qX0i7jSCNAYWLN4MWN8QNbdOfYwDp69ygKXiigNfA9YzREYlafUMsAgOsLKzwXvECEVw7k0bQHifISRpSBufu2wgjYHViWdf1aLIvfD008Ok4ujoaSbG9xgiw+qWPVg9+5UOsDK0wXOAVQwT6j8ETDGEJA1lPyP9txGkMZAEB1i1yQGWir2ySL4H1Bkis5Zz8IzlVfNqY9zcRZaVgwgvIRy1i5eMJ/IRQ0jSkN1nAmlMDkq9gXsNr1MdYKk4OvveCrzZEJn2YFW92iR6bXxWeAbW6C0bPBTYwhCSNESD8WEjSGOx3xf3MkJNLtd7wAGWiqEj5gjptwyReQ9V1auNYQMXWVY2eHgQMbodhkCInzSEJA1D3Xi3PdJY7LMQZhiiBoXESwhVrG+mwvuBnQ2R+W+Eh6rsBXsGVma+NYOXEI5GV+EgoMUQkjT0w2geevwxM0hl1tm3E8RphqjF/Xn+Aw6wNFodPVMIzDWEID5YZS/Yp2Vm5zDiKSOMaofBs68kaXiWcvSMfjNIZZZL9zZCze7P3wkOsDTqlUTyOcCbYQuI1XMG1pl3TAAmuMwyIkkHjDBCXYUZwH6GkKRhHWgtN4I0Fj974ZVGqFH13AEOsDQa3Uu2JvIxQ+iZKUH1DLA2XOrlg5kSBm0w0nTx00aQpOGuO1lpBGlMeAZWbXqQmY1PgQMsjcrAN4FJdtAzB7rVM8AarHOAlSUxeAbWSHQUticyyxCSNOwNj2dgSeV28ZLxwK6GqEm3//f/OMDSyHT17EHkXYbQ//bVqugeWAPJNBdYpr43HWCNRBI/AdQZQpKGvQJdZQOpzJav3h0Yb4iadMeza1dbaIQb5lP8/tHzhFz1nIGVG/QG7tn65vQSwuHq6NkQOMoQkiSpOnb3wquNUKuiZ2BpNAc2+X2B1xlCz1MX762eF+sZWNnaoUl9EtTwdwKPAyYbQpJGdLDlMZZU9h873mSEmt0vvfXZozhraPjH/rQZQc9fqXAdMxv/U0UbOM/AytY3qGdgDcfFS8ZDOM4QkjSKvWVJ5XPmHRMg7GuIGjWY9Lpy1SgO/uO1RtBzPEVMP1BVrzhE7+uTqXVW6j2whmP5wDsJbGYISRrxhidnA6mMpq7cFx8uVrMrVFYnhf/+iwdxGr45zWfRkb+LwD4kYWRnssQ4Bagf9t8LIYG4/gi/9ScCE0b4rqcRCCP4muMY+WU4Uwkj+BmN5KAsZxitAC4h5D5Ga9Pt1bUaDDmI/ixnRuKBxPB82ASSNBrBA2mpvPv2byG4b1+j69N7OHz6k//9NwdYGpn2psuByw1RYy5cNIknxw3t6R1LVy/l6BlVem+hNGEE80hVqSRMMMIQdfe+jsgMQ0jSqEwxgVRGIb7FCLUq9j733xxgSfqfg2csB5ZnYCvn9CpT0ok2GOo+QjjeCJI0alNNIJXJ/Px2DNJoiJr1vAGW98CSlD3B068yJXoG1pB0974MOMQQkjRq455+IIakkhvgzUaoafnn/osDLEnZE4PrvmwtcC/lGFImjsMzsyWpOPoHNzKCVAYhePlgTUtveu6/eRAnKYtH6t7UO1t7Nh5EvJQLF02C8D5DSFKRDKSbG0EqsXOWrAfRM7BqeE1Kup4DLEkZF133ZYwDrJeyasqRwIaGkKSi2cIEUomNH2wFvNdp7crTvs2K5/6BB3GSsid4E/dsLW8HWOsUY4D0I4aQpKLyDCyp9Pt4hxmhppfvDS/8IwdYkjK4MkwdYGVJZBMjrENX4Y0QmgwhSUXd2djaBlIJLShsCXE/Q9T0TrwDLEmC4D2wssWDiHX+OITjjSBJRfdyE0glNBDfBbhPX9uuf+EfOMCSlEFx0AaZ8jITrEVX73SIPr1Hkoq+q8EORpBK+jN2qBFqWsqK+n+98A8dYEnK4gZvmREyZTLz8t4Ha40/C+Ej7gtIUkl4BpZUKl19jcCehqhpizl8+pMv/EN3WiVlTwgOsLImRs/CeqGO29Yn8B5DSFJJbM45S9Yzg1QKg4fboOZ33v++pj91gCUpe1IHWNlb5uxkhBfIrToKmGoISSqJwMTBXcwgFVlHzzgI7zVEza9Br17THzvAkpTBFWLqACtzy9yn7L1IdOdPkkq7nsUBllRsufAOYAtD1Lq6q9b0pw6wJGWPZ2BlT8AB1nN1FBrAAytJKikHWFIJfq7CR4xQ8+vOB2jd6fY1/ScHWJKyJ3GAlcENYbMRniOk7UaQpFLvb8Q9jCAVUUffa4FXGKLmXb3W1aptJGXw6H2pDTJnJzrunmiG//4IhFlGkKQSi+zJxUvGG0IqkiT9mBEysZ/617V+C1hHUuakA8uNkDn1sHR3MwAdPVOAXQ0hSSU3nhX9noUlFUN378uAmYbIgCS9bK3/yTqSMsgzsDK5MQyecg5AXTOQs4MklUEMrzGCVJSfpQ8DdYaoeQ8yq6lnrbvz9pGUOVPGeQ+sbJphAiA3uJURJKlcB9281gjSKC0oTCXwPkNkQVhICHFt/9UBlqTsOXD6KmDAEJk7ini1DQCC9wKTpLKtcsP+dETPepVGoz9+nMgGhsjCOjNetq7/7ABLUlY9aoLM2ZELFm9jhrDaBpJULnEa3LKXHaQROvemDQh8zBAZMZg6wJKkNbjfBFncKOb2M0K4ywaSVEZJfKMRpBEaN+6znn2VGbfT3nLrOlenNpKUUfeZIIMi+2W+weDAjfggA0kqn5C+xQjSCHT3bkGIHzZEZvbTf/9SH+IAS1JWeQZWNo8iDsh8gvaW1QQW+L0gSeU6KAuvoaNnc0NIw5QmXwQmGSIjcuHil/oQB1iSsikEB1jZtC1dhV0zX2GQk4F+vx0kqSwSktyBZpCGYX5+O0J8vyEyYwUDky9/6ZWpJGVS6gArq2J8W+YbtDctJvBlvxkkqWzbnplGkIazq85XgHGGyIxLaN9mxUt9kAMsSVndKDrAyqoEB1gArU3fAL4JRGNIUokF3kTHbesbQhqCrsIMIocZIlMryYuH8lEOsCRldSXpACurIq9kQWFLQwBtTZ8DZgK3GkOSSmoCuVVtZpBeQkfMEeKpQM4YGdo7D7mLhvKBDrAkZVNIHGBlV8JA2m6GZ7Q1Xcgjy5qBNiLzCTxmFEkqxSFa8IwS6aXkCscS2csQmfJPWqffM6RDOFtJyqT5N0xjcIIH6lkV4jW0Nr/SEGswNybsWtiRwWQHGNyKwFSi96Co7u/3pA7i5/FJTtJYi+R4ObOa7jSFtAYdPZuT5PIQpxkjU2vGTzGn6TtD+dA6a0nKpFl7PE5XfgUw0RhZ3FCGvenqnU5b8xJjvMDckAK3PPOPakFnfi7B4ZVUAQKDHAGcZAppDXLJ94kOrzKnrm7+UD/USwglZdkDJsgwL+VQFnT3vorAFwwhVYwPsHChJxFILzSv941E3mmIzLmBWdNvG+oHO8CSlGV3miDDAu+jI3qDUNWus26cTAxn4Rn3UiXZmoe3OMgM0nNcvGQ8afiRITK5Q949nI92gCUpw+vL4JPXsn4QkeTfbAbVrEnjfgxMN4RUafsf8RgjSM+xYvArQIMhMrlCdIAlSUOTev+jzEs+YAPVpK58K/AeQ0gV6U3M693ZDBLQkd+XGE8wRAYFrqOtoTCsPXerScqsGG4zQua/CQ6m+5aX20G1dTDQtxVwmiGkCj5sS8MnzaDMO/emDUg4C/CWDtncDz9nuH/DAZakLO8/egaWcsTBD5tBNWNuTEjir4GNjCFVtMO4YPE2ZlCmja87E9jWEJk0wGA8f7h/yQGWpAxvNJfeCkRDZN77mX/DNDOoJuxS+DjENxhCqnj19NcdbwZlVlfhGAgzDZFRkUtob7l/uH/NAZak7Dp4xnLgP4bIvKkMTvReWKp+8/p2I/I1Q0hVInAsCwpbGkKZ09HTDPE7hsiwhLNH9tckKds7jz6JUBDjJ7lw0SRDqGqdeccE0vRcYLwxpKoxkf7002ZQ5rZXSfIbwP2u7HqKZasXjOQvOsCSlG0xOMASBDZj1eQPGUJVa+rKk4EWQ0hVtwE6+pkHL0jZsN7KnwK7GiLTzueI3ZaN5C86wJKUbTH1Ru76r095FpaqUnfvQcBHDCFVpQnk4lwzKBO68p8gcpQhMi4kPx/pX3WAJSnbEm42gp6xOaumHGcGVZUFhS2J4UwgGEOqUjG+l+7ePQ2hmtaVfzPwLUNk3k20Nlw78kM3ScqyuuQGI+g5Ps95fRubQVVhbkzoj78GNjGGVNUSYvCG1qpdXX2NEM4HcsbIuBhPG93KUpKybGbjf4g8YAg9s1Wdxrj0RDuoKuzc9zngAENINWF/uguHmEE1Z15+Ixi8COI0Y2TecuL4c0fzCRxgSVLgRiPoOY5hXn4nM6iideZfA943R6opMf7AezGqppy2qJ6UTgg7GENAB+07PDGaT+AAS5JC8DJCPVc9KT80gyrWeX0bE/gNUGcMqaZsx8opXzaDakKMgY0m/wTY3xgCIOXHo/0UDrAkKU3/ZQS9wJvpLMwxgyrO3JhQn54NbGsMqQaF+HG6CrsaQlWvq++bwAcMoWdcRXvTdaP9JA6wJCnk/mUEreEg4od03La+IVRRds6fROAthpBqVj3EX7BwoWdYqnp19p5IiJ82hJ6zY12UqxscYElSutMSYJkh9AKbE/q/bgZVjK78wRA+bwip5r2CRzb3Z11Vuq0qfJQQTjKEnuNeHlk6vxifyAGWJLWHQQI3GUIvEuIxdOXfbAiNufn57YBfAcEYUiacSHffK8ygqtJZOAriKYbQC/yYo2f0F+MTOcCSJIDI9UbQGgTgNM5Zsp4pNGbO69uYwXgxsKExpMyoI6a/8qmEqhqdhcMI8Rf4ixY93wpWJ78o1idzgCVJT7vKBFqLlzFx4BQzaEwsKExlXHoxhCZjSJnTzKpJPzKDKl5nfjYh/grnC3qxX3Jow8PF+mR+g0kSQJpcYQStVeQouvLvMoTK6sw7JrA6XgB4GZGUWeG9dPYeYQdVrM7CYQTOB3zwgF5okFzd94v5CR1gSRJAe8O9wB2G0DqcTldfoxlUFh0xx5SVZxN4vTGkjAvhp3T0NBtCFaer9+OEeDZQbwy9eN3F+cyaflsxP6UDLEn6H8/C0rpMgfQ8zrxjgilUUjEGksIvCLQZQxIwmSSZz/wbpplCFbOd6s5/DcL38J5XWst3CTF8q9if1AGWJP1XiH8zgl7CHkxdeaoZVOKDgu8D7zGGpOfYiYEJHSxc6GVaGlsdMce8ws+IfN4YWvv+DBfT1lj0p7w7wJKk/wrBAZaG4ki6ej9uBhV/Zy8GugunQDjeGJJevJ/CG3lk85MNoTFz8ZLxhML5RI42htYtLcm6ytP9JOm5uvL3AZsbQi9hkCS+ldnNfzGFimJuTNi5cCrwAWNIWqcYj2NO808NobI6Z8l6TBjoBg4whtYtXEpbY0m+TzwDS5Ket1PIlUbQEORIQxcdPbubQqPWEXPsXDgDh1eShnRsGH5Ed8F75Kl8unqnM2Hg7zi80pDWUelJpfrUDrAk6flrRW/krqFajyS5iAsWb2MKjdjChXXkCufgPa/0tCdNoCHtrcR4Np09/2cKlVxn31shuQbwSZgaij/T2lyy4ykHWJL0XCF3iRE0DFsxUPdHzr1pA1No2M68YwIPb95B5J3G0DPONoGGaAIhuZCOvr1NoZKIMdDZ+xlCehHEaQbRkKTJV0t6qGZhSXqBrt5bIexgCA3D9azqP4DDdn3MFBqSjp4NSXIXQPQMCv3XEsYvew2rJt8P5MyhIR7OPQ68kbbGRbZQ0Zx142QmjzuTyBxjaMgif2RO01tL+SU8A0uSXrwz+AcbaJj2ZEL971lQmGoKvaTuW15Oklzt8Eov8GUOnvEw4CBCwzlinEaIf6Ajv4stVBQdhe2ZNO5qh1ca7sqIJPlSqb+IAyxJetGaMfzeCBrBZvvV9MffceGiScbQWnXmXwOD/wQajKHn6OHmxt8+vS6JboM03O3PxuS4jK7CDGNoVLoLh5DEa4FdjaFhCXTR2nBtyQ/TLC1JLzAhtxBYagiNwH6snrSQjp4NTaEX6czPJnAJkY2NoRf4MnNDCkCO+ebQsEU2hriQ7l6fEqfh67h7Il35HxDjBcBGBtEw9RPjF8rxhRxgSdILHTh9FbDQEBrZQUTYmyT5Cx1LNjGGAJgbEzp7TyTQCUw0iF7gBlob5z37b7ObbwaWmEUjMIUYfkdn/m2m0JB19exBsvR64KN4j2yNzGm0NZdlu+UAS5LWKFxsA43CniQDV9Dd+zJTZFxHz4bs3HchIZzkfpfWKPIlQojP/7PgWVgaqYkELqA7/xFTaN3rnhjoKhwPyd+BRoNohJZSP/D/yvXF3JGSpDWp6/89EA2hUWiEsIjuwj6myKiOnt1JkmshHmgMrVHgcuY0XfTiPfTUAZZGI0fkh3Tlf0BH9ImWerEFizejO/97iKcA4w2iEYvxW8zc5YFyfTkHWJK0Jm/f5W7gZkNodBt1NibGS+jsfacxMqaz9wiS5Crg5cbQWtcQMZywxv8yu+mfwL0m0ih9lFCYxzlL1jOFntXd+w7663ogvNUYGqV7WdH/vXJ+QQdYkrQ2IVxgBBXBBEI4l87eE4nRe0vUugWFqXT1nkEIvwZ8IqXW5XzaGhetZfsTAbdBKsK+DIcwYWAR83p3NkbGdfRtRVe+mxjOxxu1qzg+xRG7LSvnF3SAJUlrE8N5RlDRtrchnER330Wce9MG5qjVg4P8q+mP10F4rzH0ElYTcl9c9zbIywhVNNNJw9/pKrSbIoMWLqyjO/9JkrQPmG0QFclVtDaeX/4daknSmrU1FIAbDaHiiQcyvu5aunr2sEUNOfOOCXTmv0PClcB0g2gIfkjrTrev8yN6mhfiZYQqnikQf0tX4SzOunGyOTKiq2cPHtn8aiLfAVzuKpaUkHz8RQ8gKQMHWJK0LjH+xggqrrADJP+kMz+XudHtcNUfHBR2ZerKfxD4pPtVGtoqgMdI02+85MfNDSngNkjF3rF5N5PGLaK7d09b1LALF02iu/BNSK4FXmEQFdkZtDZcOxZf2B0tSVqXuvBbfBqhiq+ewJfZufAnFhS2NEcVOuvGyXTlvwHxOmA3g2jo84Mwl/aWR4f0sSlnGUwl0EgMV9PZ+xkWLqwzRy2tX2Kgq9DOqsl9xPgZwKdQqsjC4yT1Xxyzr+4CkKSX0JW/CniNIVSyHYEQP8Psxp+PxanYGtE64WDgh8B2xtAw9fDIsj04ekb/0L/fCjdA3N10KpEbIbx/rQ8UUPXo6NubJH4H4v8ZQyUT43HMaf7pWH15z8CSpJfmJRwq5Z7ANCKn0V34K/PyO9mjgnX1Tqcz/wfgdzi80kiE8JFhDa8ASD0LS6W0G8Sr6c5/jY67J5qjCnX07EhnvpMk/YfDK5V2Gxavoafp1DF9CS4FSXoJCxZvRn/dvXgatkpvOSF8gyfHf4ejtl9pjkpZBxSmspovEuLHgHEG0Qj9hramQ4f9t+bduilp/72Al3qp1O4hxi8wp9mhaTXo6NmQXO7TxPgxYLxBVGKDkL6CtpYbxvJFOMCSpKHozP+ZwBsNIQ8iMuTCRZNYNeUDxPg5ApsZRKPwFGnSRHvDyJ4q2Jm/iMBBZlSZXEKaHk97S68pKtDFS8azbOAjhPAFiNMMojL5Pm1NnxjrF+ElhJI0FCE4SFA5bU0Iv6Yrv5CO/KvNMQYHB12Fj7Jq8m0QT3F4pSJsRL464uHV03//1zZUGR1AktxEd/6XdPRsa44KceYdE+gqHMPygT4C33Z4pTJuw+4mTb9UEa/EhSFJQ9xpWG/l3UQ2NobGwIUQvkhb402mKKGOnnGE5Khnfqu9jUFUHDFPGnenvWX1iD/FaYvq2XDynQR8aqnKbRUx/Ixc3TeYveOD5hiTbdMUQvIhAp8AtjCIyr8ZC29nTuOCSngpDrAkaai68t8GTjCExkgKXECanEx7wzXmKObBwZJNyA0eTYzHenCgYu/2E8IbaG1cOOrP1J3/MpG5JtUYWU7kDJL4XVqb7zJHObZNPRuSSz5C5KPAhgbRmAicT2vTuyrn5UiShqardzqEPtedqgB/JQknM6vhT4QQzTHSn+nCrpAeD+FQYIJBVHzxl7Q1v68on6q7dwtiuAuot6vGUD9wHoTveVZwKbdN8TjgMGCyQTSGHmR10sKhDQ9XygvyIEyShsObuauyLAFOJU1/RXvLo+YYgjPvmMCUVQdD/BCB1xtEJXQ/q/qbOWzXx4r2GbvzvyHyTtOqQo4krwNOZ9yyczh4xnKDjMLcmLBz4SDgo8AbPE5XZfyMhzm0NnZV1mpHkjR0XflWoMsQqjArCXSQpmfR07yQuSE1yQsODHbp25eYHg6hFVjfKCrDbvY7aGvsKOqn7Oh7LUn6N9uqwjwK/BqS02lrKJhjOPuVvdMhHA68D9jKIKocsYO25ndU3JbVBSNJw7BwYR0Pb36XN9JVBbuXyPmE9FzaWm7I9oFBzx4Q3vX0P2ztt4bK6ELamg4pzfd1/l/AbiZWJR7xAlcD51M/0MnMXR4wyRrMy29EGt9JCIcR8UnDqkQPkda10D79oUp7YQ6wJGm4ugsnEeOJhlAV+DfwR+Ai0vRPo3oKWjU468bJTBr3euBtEN7qkwQ1Rp6kbmBn3r7L3SX57F35DwCnm1kVbhBYCOE3rFo9v6iX0laj+TdMI51wICnvIPAWYJzfIqpgbbQ1dVfiC3OAJUnDdcHibRiouwPIGUNVdVANV0C8jCR3GbN2uqnqbwB/5h0TmLxyDxL2JfAWIvsAdS5qja34Ydqaf1KyT99x90SSpXcCm9paVWI1kcsI4Q+Q/oG25iWZeNcdhe1JOIQYDyHwf/gABlWDwJm0Nr23cl+eJGn4vJGuqt8jEP5JjNcS4jWk9ddW4qni/5sJxEBn306E9JWEsDfwSp6+jMoDAlWShdzceEDJ70PXnf8cka+bW9Up3gbhj4T4B5b1/5UjdltWE2/r3Js2YHz9a4nsS+BNwC4ua1WZ26kPuzOz8alKfYEOsCRpJDp6didJrnc9qhpzH4ReiHkIPSTpbaTxP6wa/E/ZLv9YUJjKQDodmE7KTiShAeJ0YmjAm6+rsj1BiLvR2nxX6bdBt61PsvoufyZUAwaAm4CrCfydhKuZ1XRndewL9m319C9V2BfC6yDuCiQuUlWpQSKvY07T1ZX8Ij3wkqSR6sz/4Zn7GEhZsAK4F8J9hHgvkfsgLifyFIGlkKwg8hSEpSSD/c/7mzGsTwxP79SHWEdgYyIbE8PGEDclYRMiGwOb4GVRqlaBo2ht+lUZt0FfJ/A5w6sG3UfkWgK9hNjLYOhl4rI8B89YPiavpqNnHAnTibndCeluEPYgsPsz2y2pRrZh4au0Nn6p8je1kqSRHjzsR2ChISQp4yK/Y07TzLJ+zXm3bkrafycw0QWgDEiBu4BbCPyHyN1E/gPcS0zvYXzuQdIVy5m1x+PD+qzzb5gGUzYiTTckphsS42YkYXsi2wPbQ9ge4lZ4ZpVqWYjX8PDy13L0jP6Kf6kuLUkaha78VcBrDCFJWd3x52HqBnZm5i4PjME26EfAh10I0vMsA5YDT/H04CtZw8/tBkTWx8GU3Ig9TsqetDfeUQ2v1if1SNKoxG9DmG8HScrszv8xYzK8Aqgb+BYDdR8ExrkcpGdNfuafTda++2Yk6ZkfhmNpb7qjWl6tE2dJGo3WpgVAryEkKZN+RWtj15h99bfvcjfEc1wMkqQR+DFtTb+pphfsAEuSRiOECHzLEJKUObdSHz465q8izX2Jpx+yIEnSUN1EOuXT1faiHWBJ0mg9suw84HZDSFJmrIK0nZmNT435K2lvuBf4mYtEkjRES0lDO+3bVN0vPxxgSdJoHT2jnxi+ZAhJyojAp2hruaFiXs/q5BvAky4YSdJLiIRwFO2NfdX44h1gSVIxtDWcB1xvCEmqdeFiZjf+uKJe0qENDxPjd1w2kqR1b8LCt8b03o2j5ABLkoqzMYgk4QuGkKSadi+rw5HP3P+wsqzo/x5wv4tIkrRGkcvY8L4vVvNbcIAlScUyu/GPwF8NIUk1aZAQD+XQhocr8tUdsdsy4GsuJknSi4W7iXXvZP/9B6r5XTjAkqSibhuSTwPREJJUYyKfpbX5iop+jWl6OsTbXFiSpOdYRQittE9/qNrfiAMsSSqm1oZrgXmGkKQaEplPW+N3K/51tresJoaPucAkSc8K8bhnjlGqngMsSSr+mvXzwIAhJKkmFFhV956KvO/VmsxpuojI711skiRiOIXW5jNq5zBLklRcs5tuIXCGISSp2oXHIR7C4dOfrKqXXVd3PLDK5SdJmfZnNr7vU7X0hhxgSVIpDKafJ/CwISSpakVC+l7ampdU3SufNf024PsuQknKrD5yK99R7TdtfyEHWJJUCu0tjwJfMIQkVanAV2htnl+1r3/8sq8Cd7kgJSlzHoV4MLP2eLzW3pgDLEkqlcWNvwD+YQhJqjoXsbjxq1X9Dg6esZwYP+uilKRM6ScJc6ry7OEhCC5fSSqh7t49ieEaIGcMSaoKS8it3LtmfnPdmb+UwOtdrJKUBeF9tDX+slbfnWdgSVIptTZfD5xqCEmqCstI4uyauuwihvcDS120klTjIl+p5eEVOMCSpNLLrfwikQcMIUkVvutPeC+zm2+uqXfV3ngHxC+5eCWppv2Gtsav1PqbdIAlSaU2a4/HIX7aEJJU0b5KW2NHTb6zm5t+QIhXuoglqSb9lUl1RxFCrPU36j2wJKkcYgx0Fy4D9jOGJFXcSvocWpuOqOmd/45CA0n8FzDB5S1JNaOX3Mp9avGJg2viGViSVA4hRNLwXuApY0hSRa2g/8ak+vfX/G+u2xv7iHzV5S1JNePfhLo3Z2V4BQ6wJKmcBw93EPmUISSpUsTbSHOtHDh9VSbe7sb3f4vAdS53SapygYdJcm+hdfo92XrbkqQyHivFQHf+9xDeagxJGlOPQHw1bc1LMvWuuwq7QrwGGO+3gCRVpacgvJ62xkVZe+OegSVJ5RRCpD55P/CoMSRpzKwkckjmhlcAbY03EeJn/RaQpKq0mkhbFodX4ABLkspvZuN/IBxvCEkaE5HA+5jTdHVmC8xu+gFwkd8KklRVBonhcOY0/TmrARxgSdJYaGs8h0CnISSpzEL8LK1N52W7QYjUD7yfyAN+Q0hSVYiEeDRzGjN9/OAAS5LGyqrkWA8eJKmcwhm0Nn/LDsDMXR4gcCQQjSFJlb754lO0Np+R9QwOsCRprBza8DCBD3jwIEnlEP/ARvd9yA7P0db0J+AUQ0hSRfscrU3fNYMDLEka64OHC4nh24aQpBIK/J00trP//gPGeIFJdZ+D8C9DSFJFbr/m0tb0TUM8zQGWJI21je/7AnCFISSpJG5kZf9BtLcsNcUaHDh9Fbk4C3jEGJJUUb5Pa9NXzPA/wQSSVAEWLN6M/robgC2MIUlFcwv1A69j5i7eb/CldPceRAy/w19wS1IFiD+grfljdng+N1CSVAlm7vIAIRwGDBpDkori36TpGx1eDVFr8+8JnGQISRpz36O16eNmeDEHWJJUMQcPjQuJ0dOEJWn07iXk9qe95d+mGIbZjScB8wwhSWMlfpu2pk8Sgg95WgMHWJJUSXqavkbkj4aQpBEKPEyavonWnW43xnDbhUh9eA/EvDEkqezr4JNpa/60Ida1iZckVZbz+jZmXLwe4jbGkKRheYIQX09r8/WmGIWuvkZI/wmsZwxJKoPAXG/Y/tI8A0uSKs2hDQ/D4EzAJ2ZJ0tAtJ8RDHF4VQVtDgRDeB6TGkKRSC592eDU0DrAkqSIPHlpueOam7h48SNJLW0VkFq3NV5iiSFobu4jx84aQpJKJhPhx2hq/bYqhcYAlSZV78PA7Al4HL0nrtpzIIcxp+rMpimxO88nA6YaQpKJLifHDtDafYoqhc4AlSZWstem7EH9mCElao2XE1OFVSQ+xGo8FLjKEJBXNagLvZk7zT00xPA6wJKnSPbL8eOASQ0jS8zxB5E3MabnUFCXUHgapD4cCNxpDkkZtGTF5O61N55li+HwKoSRVg3OWrMeEgauAnY0hyT1YHiOmb6Wt5Z/GKJMFhS3pj/8EtjaGJI3Io6S8jfamv5tipJt/SVJ16ChsTxL/AWxqDEkZ9iBJ8iZmN3hGULl19+5JDH8FphpDkoblThLezOymW0wxcl5CKEnVor3xDkKcCSw1hqSMuo8kt5/DqzHS2nw9IbwVWGYMSRqyHkLd/zm8Gj0HWJJUXQcP/yAJM4GVxpCULeFuiPsye6e8LcZyO9R4FZHZwGpjSNJLbbq4nNzK19I6/R5jjJ4DLEmqNrMbLyOEdwADxpCUEXeRy+1PW/MSU1SAp5/6+B4gNYYkrVU3T054C7P2eNwUxeEAS5KqUWvj7yAc5cGDpAzoJdS9llnTbzNFBWlr+g2B9wHRGJL0Ij/k5sZ2jtreqyaKyJu4S1I16+w9lhB+YghJNeqfrE7exqEND5uiQnUVjod4iiEkCYBVwNG0Nf3aFMXnGViSVM3mNP+UyBcMIanmRH5HOmV/h1cVrq3xB8T4/wwhSTxICG9weFU6DrAkqdrNafo6IZxsCEk1I3AmG9/fSvs2K4xRDduh5hOJ8bOGkJRhN5OGV9HaeJUpSrl7IEmqfjEGugvfAT5hDEnVvDYD5tLWdJIpqlBn72cI4ZuGkJQxfyId9w7ad3jCFKXlGViSVAtCiLQ1fdLfgEuqYqsI8UiHV1VsTvPJRD5lCEkZcjob3f82h1dlOuQxgSTVGH8DLqn6PErKbNqbLjdFDejq/TiE73qsIamGrSDGDzGn+SxTlI8bFUmqRU8/nfDHruclVb54G2lyEO2Nfbaope1Q/mgCP8UrPiTVnrsIyRxaG641RXm5QZGkWvT00wmPAVJjSKpgfyWNezu8qsXtUNNpBI4BBo0hqYZcSG7l7g6vxoYDLEmq7YOHdwMDxpBUgU7nkWVvor3lUVPUqNam04mhFfBpkpKq3SCRr3Bz49uZtcfj5hgbXloiSbWuu/cdxHA2UG8MSRVgNfBh2pp+borMbIdeRQwXARsZQ1LVCTxMymHMafqzMcZ6UUiSat+8wutJ4zxgfWNIGuODgDnMafqrMTKmq6cFcn+AuI0xJFXRdus6EtqY1XSnMcaelxBKUhbMbryMlP8D7jGGpDFyLbmBPR1eZVRbSw8h/T+IeWNIqgKRGE5hMH2Nw6vK4RlYkpQl3b1bPHMZx57GkFTGXc6zSScfTfs23gsp6869aQMm1P2OGF5rDEkV6kFCfC+tzb83RYXtTZhAkjKmo2cKSe63EA80hqQSW0mIH6a1+QxT6FkXLprEysm/JtBmDEkV5iLSuvfSPv0hU1QeB1iSlEULF9bxyGY/gvAhY0gqkVshtNLWeJMp9CIxBrrynyaEr+NtTSSNvZUQPktrww8JIZqjMjnAkqQs6+w9kRC+4vZAUpH3MDsZHPcB2nd4whhap+7eg4jhXHzIiKSx0wPhUH/hUg27F5KkbOssHEaIPwcmGkPSKK0g8DFam043hYasI78LCQuA7Y0hqYwi8HPGL/s4B89Ybo7K5wBLkgTz+nYjTed78CBpFMcBeUje6W+wNSLn9W3MuLQD2N8YksrgTkL8AK3Nl5iieni9uSQJZjfcSMIriPzFGJJG4HTSqXs5vNKIHdrwMBvd/yZCONkYkkooAqdTH3Z1eFV9PANLkvQ/HTFHKJxI4EtuIyQNwUMQP0hb8wWmUNF05T8A/BCYYAxJxRNvIw3vo73pcltUJw9OJEkv1l04hBjPwpvqSlq7P1Ef3svMxv+YQkXX1dMCyW+BFmNIGqWn73WVpp+kvWWpOaqXAyxJ0pp1FBpI0vkQmowh6TlWQPicjxpX6bdDPVNIws8gHG4MSSMTbyOG9zOn6a+2qH4OsCRJazf/hmkMTPg1gUOMIQm4glzde5k1/TZTqGy6Cu+F+CNgkjEkDVE/MXyfOHku7dusMEdtcIAlSXppnb1HEMJPgcnGkDJpOTGeRE/Tt5kbUnOo7Lr6GiH9LbCrMSS9hCtI4nHMbr7ZFLXFAZYkaTgHD+cCexpDytTu4t9IB99Le8utttCYOvOOCUxdeTLwUWNIWoP7ifEztDWd7SXuNbpHYgJJ0pBdvGQ8ywa+RuATbkOkmt9NfBzip2lt/IUHAqooXfl3EfgJkQ2MIQkYJPJT4rgTad/hCXPU8J6JCSRJwzav8HrSeBawlTGkmnQRoe4YWqffYwpVpAWLN6O//lSIbzeGlGGB6xhMjqW94RpjZGFxS5I0EvNvmEY64WdE3mkMqWbcThKOY3bjH02hqtCdfw+RU4D1jSFlyoOE+HlmN/3Ss4SzwwGWJGm0Bw8fJPI9vMG7VM1WE/kuccpXfVqTqk5Hz+aE5DSfmCtlZHsFp5KO+5KXC2aPAyxJUhEOHgrbk8SfAW82hlR1u4OXwuDxtLX02EJVrbMwhySe5r2xpJoUCXQxGD5De+Md5sjoHosJJElFPXgI8SfAJsaQKv5Y4DZi8jnmNHbaQjWjo2dbQvILAm80hlQzFhLiCbQ2X2+KbHOAJUkq8sHDkk3IDXyfyGHGkCrSUuBrTKr7PgdOX2UO1aSu/MHAT4GtjSFVrT5iONFftOi/HGBJkkpjXuEtpPFnwHbGkCpCCuFcQvoZWpvvM4dqXsdt65OsPgk4FqgziFQ17oXw/9jovl+w//4D5tB/OcCSJJXOhYsmsXrKl4jxBCBnEGnMXALhk7Q13mQKZc68vt1I058A+xhDqmgPEeN3iVN/6ANFtCYOsCRJpdfRtzdJeiqwhzGksu7pXUcIn2Z242XGUKbFGOjKv5sQvg1sahCpojw9uJqw/EccPGO5ObT23RpJksp78PBNYAuDSCX9gcsT+SY9TecwN6T2kJ7R0bMhSfgahA8CiUGkMfUggW8xbtnPHFxpKBxgSZLK66wbJzNx3KcIfBqYaBCpqO4i8HUGG8+gPQyaQ1qLebc0EQe/QmSOMaSye4TIj1lV9z0On/6kOTRUDrAkSWOju/dlxORkiO1uj6RRu4vIN3h02S85eka/OaQh6si/mlz8FjG81hhSObZV8WfE8afSvsMT5tBwecAgSRrjg4e+vUnS7wOvMYY0bHdCOIVJuVM5cPoqc0gj1JU/GPguMN0YUtHdSIzfY+MHzvOpghoNB1iSpLEXY2Be/nBi+DqwtUGkl/yhyUPydTa673wPBqQiOW1RPRtPPorIV4DNDSKN2lXAybQ2XkQI0RwaLQdYkqTKcfGS8Swf+ADwWWArg0gv8k/g29zcON+bs0sl0tEzhST5BHA8sKFBpGEZADoh/TZtLTeYQ8XkAEuSVIkHD+PIJe8h8iUcZEkpcDEh/oDW5kvMIZXJgsJUBtJjSMMnCGxmEGmdHiKEX5LEU5nVdKc5VAoOsCRJlavj7okkyz4I8TPAFgZRxiwncDaB7zG76RZzSGPk4iXjWTFwJDF8EeI2BpGeI3AdcDrjlp3DwTOWG0Sl/XaTJKnS/feMrJQvE9jSIKpxtxPj6eTCL5jd9Ig5pApx2qJ6Npz0LkL4ArCTQZRhqwj8jpRTmNN0tTlULg6wJEnV48JFk1g16WgIxwMvM4hqSAT+TOTH9DRe7P2tpAq2cGEdj272LmI4AdjVIMqQJRB/xqqBX3HYro+ZQ+XmAEuSVH06Yo5c3yxi/Biwj0FUxe4nhF8T0zNoa15iDqnatkf5vUjC8RDfBdQZRDVoBYGLIJ7O7KZLfZqgxpIDLElSdevu3ZMYjgaOACYYRFUgBS4jhtN5dOkFHD2j3yRS1W+LtiANRxM4FtjEIKqB7dTfCZzFYHoe7S1LTaJK4ABLklQbFhS2ZCAeB3yQyMYGUQXqg3A2IfdrWqffYw6pBl28ZDzLBg8hxE8ArzKIqmw8cDeB80hyP2fW9NvsoYr7DjWBJKmmdNw9kdzSdxM5GtjTIBrjPa2HSfkNMTmH9oZrDCJlSHdhH2J8P9AGTDGIKtQjwDxiejZtzVd6iaAqe7dKkqRa1VXYlchRhHgYXtKh8llK4CIi5/HIsj96iaCUcWfeMYEpqw4mxCOAtwI5o2iMPQrh9xA73U6pmjjAkiTVvo6YI5ffH8IHibwdqDeKimwFcCkxdhLjPO8XImmNupdsTdp/GCG8H9jRICojh1aqeg6wJEnZsmDxZgzUHU7kKKDFIBrFXtTDwMXEOJ+nJv6Ro7ZfaRRJQxJjYF7+/4gcCeHtwIZGUfG/z3iAwAKS2MUGDyxk//0HjKLq3vWSJCmrOvJ7kdAGzAIaDKIhuAXiAmK8kNh8Ne1h0CSSRrctijm45dUk6RxgDrCFUTQKvYRwIYPhInp3upq5ITWJaoUDLEmSALp6Wgi5WcQ4C2/+rv9ZQeRyQvwzaXIx7Y19JpFUMnNjQvMtryEX30ZM2yDsYBS9hOXAZQQuZDD5Pe0N95pEtcoBliRJLzQ/vx2DcRaB2cTwGiAxSqYsJvJncvFPPDHxb14aKGlMxBjo7t2bmJtNiG8FdjGKgAj0EMMlJOnvGYxX0N6y2izKAgdYkiSty4LFm9FffxDENxB5A4HNjFJzxwJ54K8ELqdu8K/M3OUBm0iqOPNu3ZTBgX0J8QDgYLzUMEtuh3AVIV4JdRfTOv0ekyiLHGBJkjRUMQY6CzuTi28ghjcA+wJTDVNVBoCbgKsJ8UoG4+W0t9xvFklVZW5MaC7sQYgHEMIBwOuAcYapGfcT+BtwCQl/ZlbTnSaRHGBJkjRyCxfW8egWryTGN0A4AOLewHjDVNhBAPGfRP5Owt8Zt3wRB89YbhZJNeWcJesxof+1wGsI4bVEXgFMMkxVGARuhng1kX9QV38Vs6bfZhbpxRxgSZJULAsX1vHIpg3EsBch7EVgHyK7AznjlGWv5jEivcB1xHgdIV5HW0uPYSRldnsUkn2I4bUQ9wW2NUxFeBK4hshVBK5jVf+VHLbrY2aRhrKrJ0mSSmdBYSqr416E8Api3JvAK4CXGWZUlhJiLzFZDLGXJC4mcjOtzfeZRpLWoqt3OjHZG+IehLA7xD2ADQ1TUncRyRO4mRgXkwv/YHbTLWaRRsYBliRJ5dZx2/ow0ECSNhFCE5EGiM3Ay4E6AwFPP2Xp38ASiEsI3EKa6yPGAnMa7iSEaCJJGu32qGdbcrndIe5BDLtD3B3YzjDD8gRwG4HbSLmVEG6FwR5Wjstz+PQnzSMVjwMsSZIq50BiHLAjSfL0UCvEHYhhSwLbQNgK4rQaercrgH9DuAfiPYTwb4j3QLyXwF08MfFWjtp+pd8UklRm82+YxuC4BkLY6elfsDAdkp0gTgcmZ6zGSoj3QvIfQvw3kfue3W6R3sPquts4tOFhv2mk8nCAJUlStbhw0SRWTd2WJG7JYLo1hK0JbElkMwLTCGxAZH0C04hMo7xnc60k8iiBR4FHITwK6aPAIxAeJcaHIdxPLrkb0nuY3fSIC1SSqkz3kq0JgzuRshPEHYAtCXFbYtga2JLqeRLiUuA+4EEID0F6HzE8SMJ/IN5LTO4mzd1H+/SHXOhS5XCAJUlSrTrrxslMmDANBtYnJNNI4iQi44jJ83+DnqTrQVjzjeZjeJxIJEmXA6sYDP3P7PhDfd3jhJWrya16xCf7SVLGxRiYl98ccluTxi1J4rakYWtC3JTIhgQ2Ajbi6ftubUTxH3CyGsIDhHgPKfcTuJcQHiBN7ydJHoT0QZJwP/1THqB9mxUuMKn6OMCSJEmSJJXX/Bum0T9uYxI2IsltwCBTIZ1IEiaQsh4J9RDWJ6YTIEwEphKoI/IgMT4AyT2E9AHScDd19Q8we8cHjSpJkiRJkiRJGjP/H1r142VgAbAAAAAAJXRFWHRkYXRlOmNyZWF0ZQAyMDE5LTEyLTA3VDE5OjAxOjMyKzAwOjAw1HBOpwAAACV0RVh0ZGF0ZTptb2RpZnkAMjAxOS0xMi0wN1QxOTowMTozMiswMDowMKUt9hsAAAAASUVORK5CYII=;" vertex="1" parent="1">
          <mxGeometry x="-10" y="314" width="133.04" height="50" as="geometry" />
        </mxCell>
        <mxCell id="Hk3jv5YKV5BpY4zJ7PJa-1" value="Kinesis&lt;br&gt;Firehose" style="sketch=0;points=[[0,0,0],[0.25,0,0],[0.5,0,0],[0.75,0,0],[1,0,0],[0,1,0],[0.25,1,0],[0.5,1,0],[0.75,1,0],[1,1,0],[0,0.25,0],[0,0.5,0],[0,0.75,0],[1,0.25,0],[1,0.5,0],[1,0.75,0]];outlineConnect=0;fontColor=#FFFFFF;gradientColor=#945DF2;gradientDirection=north;fillColor=#5A30B5;strokeColor=#ffffff;dashed=0;verticalLabelPosition=bottom;verticalAlign=top;align=center;html=1;fontSize=12;fontStyle=1;aspect=fixed;shape=mxgraph.aws4.resourceIcon;resIcon=mxgraph.aws4.kinesis_data_firehose;" vertex="1" parent="1">
          <mxGeometry x="271" y="309" width="60" height="60" as="geometry" />
        </mxCell>
        <mxCell id="Hk3jv5YKV5BpY4zJ7PJa-2" value="S3 Bucket" style="sketch=0;points=[[0,0,0],[0.25,0,0],[0.5,0,0],[0.75,0,0],[1,0,0],[0,1,0],[0.25,1,0],[0.5,1,0],[0.75,1,0],[1,1,0],[0,0.25,0],[0,0.5,0],[0,0.75,0],[1,0.25,0],[1,0.5,0],[1,0.75,0]];outlineConnect=0;fontColor=#FFFFFF;gradientColor=#60A337;gradientDirection=north;fillColor=#277116;strokeColor=#ffffff;dashed=0;verticalLabelPosition=bottom;verticalAlign=top;align=center;html=1;fontSize=12;fontStyle=1;aspect=fixed;shape=mxgraph.aws4.resourceIcon;resIcon=mxgraph.aws4.s3;" vertex="1" parent="1">
          <mxGeometry x="480" y="309" width="60" height="60" as="geometry" />
        </mxCell>
        <mxCell id="Hk3jv5YKV5BpY4zJ7PJa-4" style="edgeStyle=orthogonalEdgeStyle;rounded=0;orthogonalLoop=1;jettySize=auto;html=1;endArrow=block;endFill=1;strokeWidth=2;" edge="1" parent="1" source="Hk3jv5YKV5BpY4zJ7PJa-1" target="Hk3jv5YKV5BpY4zJ7PJa-2">
          <mxGeometry relative="1" as="geometry">
            <mxPoint x="163" y="349" as="sourcePoint" />
            <mxPoint x="281" y="349" as="targetPoint" />
          </mxGeometry>
        </mxCell>
      </root>
    </mxGraphModel>
  </diagram>
</mxfile>
